<?xml version="1.0" encoding="UTF-8" standalone="no"?>
<!-- Created with Inkscape (http://www.inkscape.org/) -->

<svg
   version="1.1"
   id="svg1"
   width="2933.3333"
   height="2690.6667"
   viewBox="0 0 2933.3333 2690.6667"
   sodipodi:docname="neko_cat_mid.svg"
   inkscape:version="1.4.2 (f4327f4, 2025-05-13)"
   xmlns:inkscape="http://www.inkscape.org/namespaces/inkscape"
   xmlns:sodipodi="http://sodipodi.sourceforge.net/DTD/sodipodi-0.dtd"
   xmlns="http://www.w3.org/2000/svg"
   xmlns:svg="http://www.w3.org/2000/svg">
  <defs
     id="defs1" />
  <sodipodi:namedview
     id="namedview1"
     pagecolor="#ffffff"
     bordercolor="#000000"
     borderopacity="0.25"
     inkscape:showpageshadow="2"
     inkscape:pageopacity="0.0"
     inkscape:pagecheckerboard="0"
     inkscape:deskcolor="#d1d1d1"
     inkscape:zoom="0.3467542"
     inkscape:cx="1467.8986"
     inkscape:cy="1345.3334"
     inkscape:window-width="1920"
     inkscape:window-height="1177"
     inkscape:window-x="-8"
     inkscape:window-y="-8"
     inkscape:window-maximized="1"
     inkscape:current-layer="g1">
    <inkscape:page
       x="0"
       y="0"
       inkscape:label="1"
       id="page1"
       width="2933.3333"
       height="2690.6667"
       margin="0"
       bleed="0" />
  </sodipodi:namedview>
  <g
     id="g1"
     inkscape:groupmode="layer"
     inkscape:label="1">
    <path
       id="path1"
       d="m 1055.714,1839.46 c -12.088,-1.487 -24.714,-0.717 -36.714,-1.549 -17.347,-1.189 -34.702,-3.218 -52,-5.077 -80.509,-8.65 -162.187,-23.563 -239,-49.167 -28,-9.309 -55.082,-19.923 -81,-33.976 -5.269,-2.856 -13.782,-6.442 -16.821,-11.865 -1.912,-3.41 -1.663,-9.627 2.049,-11.826 3.772,-2.184 9.943,0.774 13.772,1.86 11.662,3.14 23.349,6.505 35,9.849 44.429,12.752 90,19.751 135,30.291 95.188,22.707 194.983,40.332 293,36 9.962,-0.397 20,0.721 30,-0.093 6.305,-0.517 12.638,-2.907 19,-3.907 24.606,-3.29 48.946,-7.56 73,-14 57.878,-15.102 115.689,-37.405 166.985,-68.417 27.801,-16.807 53.853,-34.583 77.015,-57.584 17.929,-17.999 36.339,-38.512 41.55,-63.999 2.45,-12.383 1.638,-26.688 -11.55,-32.468 -7.722,-3.532 -16,-2.568 -24,-1.108 -20,3.576 -39.785,17.028 -52.536,32.576 -6.551,7.99 -14.464,22 -9.722,32.926 2.729,6.3 9.258,-0.16 12.219,-2.966 3.586,-3.573 6.039,-8.241 10.039,-11.402 6,-4.771 15.898,-4.916 21.87,0 10.796,8.879 5.632,21.021 -1.885,29.87 -12.588,14.821 -29.985,26.371 -49.985,20.816 -30.067,-8.311 -34.071,-45.704 -23.571,-70.24 4.571,-11 12.323,-19.742 20.571,-28 19.272,-19.296 44.38,-34.068 72,-36.829 10.893,-1.171 22.554,-0.463 33,2.829 33.174,10.575 43,44.976 34.845,76 -9.845,36.829 -38.944,67.24 -66.845,91.714 -26.456,23.207 -56.133,41.898 -87,58.595 -70,37.691 -146.309,63.623 -225,74.962 -22.002,3.17 -44,4.457 -66,5.729 -15.498,1 -31.806,2.363 -47.286,0.46 M 659,1630 c 3,-13.491 9.682,-26.361 12,-40 11.616,4.403 22.32,13.957 33,20.399 21.808,13.155 44,25.249 67,36.342 46.596,22.546 96.898,40.254 148,48.824 18.214,3.054 36.637,4.088 55,5.346 26.578,1.82 59.529,-1.611 82,-16.94 11.386,-7.767 22,-18.324 17.25,-32.971 -3.657,-11.04 -12.946,-19.55 -22.25,-26 -20.017,-13.797 -44,-19.039 -68,-19 -11.711,0 -21.757,2.906 -31,10.286 -3.049,2.439 -7.32,5.608 -8.493,9.543 -1.943,6.52 10.758,6.51 14.493,6.461 6.507,-0.084 13.713,-1.368 20,0.71 11,3.941 16.978,17.393 11.547,28 -5.918,11.559 -18.195,12 -29.547,12 -24.176,0 -50.609,-7.273 -57.1,-34 -8.9,-36.06 26.022,-64.751 58.1,-70.739 50.385,-9.405 116,8.658 143.547,54.739 4.039,6.793 6.819,14.31 8.453,22 1.612,6.606 2.338,13.28 1.424,20 -6.986,51.323 -65.851,72.965 -111.424,74.961 C 926,1743.33 852.604,1725 782,1695.424 739,1677.389 697.688,1656 659,1630 m 1123,-255 c 3.857,-3.277 7.832,-6.171 13,-6.815 14.884,-1.854 25.924,11.502 22.239,25.815 -5.439,21 -32.239,32.317 -51.239,22.447 -11.012,-5.672 -18.434,-17.853 -22,-29.447 -4,-13.821 -5.188,-29 -1.254,-43 6.861,-24.474 29.916,-45.079 55.254,-48.7 15.408,-2.3 33.456,2.7 47,10.023 42.288,22.556 52,79.461 46.714,122.677 -5.256,42.239 -32.927,82 -60.714,113 -46.42,52.171 -99.567,96.724 -155.4,138.6 -23.636,17.728 -48.139,33.4 -73.6,48.4 -7.747,4.561 -22.302,14.802 -28.547,2.985 -7.049,-13.338 3.121,-19.579 12.547,-26.985 18.97,-15 38,-29.531 57,-44.6 16.208,-12.961 32.594,-25.637 48,-39.57 9.182,-8.304 17.716,-17.371 27,-25.544 49.843,-43.882 104.705,-90.886 129.796,-154.286 4.204,-10.666 5.204,-21.633 5.204,-33 0,-23.527 -5.15,-50.781 -26,-65.351 -16.335,-11.415 -38.502,-6.11 -45.451,13.351 -2.549,6.828 -0.878,13 0.451,20 M 630,1669 c -4.584,-17.711 -8.737,-35.475 -14,-53 -3.513,-12.067 -8.39,-23.774 -11.711,-36 -5.67,-21 -8.857,-42.189 -14.378,-63 -3.911,-14.238 -6.493,-28.76 -10.197,-43 -2.714,-10.271 -6.293,-20.445 -7.714,-31 24.823,12.168 47.745,27.902 72,41 10.316,5.712 27.381,11.456 33.567,22 6.979,12 -3.642,31.333 -7.567,43 -9,27.578 -16.815,55.534 -26.306,83 -4.129,11.951 -6.908,26.269 -13.694,37 m -188,-97 c 8.33,0.851 11.319,-4.057 16.424,-10 6.268,-7.296 12.493,-14.613 18.576,-22 15.923,-19 30,-38.828 41.191,-61 3.519,-7.038 6.477,-14.591 9.117,-22 1.11,-3.115 1.692,-7.816 4.394,-10.062 3.298,-2.938 9.189,-1.61 13.298,-2.123 4.202,-0.525 7.966,-2.815 12,-3.815 2.782,13.479 7,26.624 10.251,40 2.933,12.222 4.684,24.777 7.749,37 5,18.567 11.438,37.977 14,57 -9.158,-5.728 -16.406,-14.407 -24,-22 -2.775,-2.774 -6.609,-8.305 -11,-8.268 -7,0.059 -15.644,7.904 -22,10.497 -19.53,7.969 -40.076,16.417 -61,19.16 -6.607,0.866 -13.35,0.611 -20,0.611 -3.787,-0.01 -6.829,0.349 -9,-3 m -133,-78 c 14.526,-3 28.694,-8 43,-11.6 34.254,-8.755 69.207,-15.851 104,-22.015 19.268,-3.414 39.43,-9.385 59,-9.385 -8,27.67 -25.666,53.908 -43.619,76 -8.381,10 -17.732,19.362 -25.381,30 -17.662,-5 -34.207,-12.476 -51,-19.663 -18,-7.68 -36,-14.529 -53,-24.054 -7,-3.829 -14,-7.715 -21,-11.283 -4.367,-2.025 -9.306,-3.803 -12,-8 m 383,11 c -7.067,-16.372 -26.024,-24.527 -41,-32.259 -18.448,-9.524 -36,-20.99 -54,-31.314 -6.288,-3.604 -12.704,-6.985 -19,-10.577 -3,-1.664 -7.123,-3.27 -9,-6.229 -2,-3.122 -2.712,-15.013 0.333,-17.397 4.067,-3.224 10.667,-4.279 15.667,-5.891 13.85,-4.616 27.827,-7.685 42,-11.074 5.418,-1.296 10.939,-2.27 16.424,-3.259 2.25,-0.392 4.966,-1.35 7.067,0 1.875,1.286 2.692,4 3.509,6 2.617,5.497 4.287,11.352 6.449,17 6.427,16.785 11.354,34 17.551,51 2.615,6.693 4.363,15.531 9,21 0.367,7.365 6.532,15.661 5,23 m 101,-90 c -19.143,-4 -34,-18 -42.742,-35 -1.873,-3.62 -8.748,-13.313 -6.258,-17.411 1.968,-2.9 9.83,-3.589 13,-4.589 4,12 11.176,22.779 20,32 -3.325,-8.104 -7.073,-16.065 -10.78,-24 -1.22,-2.467 -3.975,-6.561 -2.22,-9.297 1.873,-2.703 7,-3.103 10,-3.703 6,10.493 10.363,22 15.752,33 2.035,4 3.496,10.391 7.462,13 3.786,2.655 9.396,1.979 13.786,2 6.689,0 13.281,1 20,1 -7.15,-12.252 -12.75,-26 -18.424,-39 -3.025,-7 -7.278,-13.462 -8.576,-21 l 11,-4 c 7.372,14.605 14,29.961 20.576,45 2.209,5 5.065,15.908 9.818,18.972 2.854,1.841 7.384,0.964 10.606,1.028 7.682,0.203 15.269,1 23,1 -4.667,-11.21 -10.621,-22 -15.691,-33 -7.49,-16.311 -14.068,-33 -22.062,-49 -3.247,-6.259 -6.019,-12.646 -8.938,-19 -1.406,-3.06 -2.432,-7.141 -5.523,-9 -3.035,-1.771 -7.421,-1 -10.786,-1.039 -7.368,-0.323 -14.586,-0.961 -22,-0.961 l 10,22 c -6.006,-2.808 -14.01,-6.488 -18.61,-11.329 -3.39,-3.424 -3.955,-9.781 -8.523,-11.777 -4.234,-1.894 -9.394,-0.474 -13.867,-1.082 -3.043,-0.418 -5.364,-2.025 -8.089,-3.313 -6.301,-2.976 -15.911,-5.652 -19.917,-11.604 -5.73,-8.274 -7.397,-19.327 -9.469,-28.895 -3.22,-15 -5.525,-29.638 -5.525,-45 0,-18.45 1.421,-37 5.749,-55 15.82,-65.818 68.933,-116.788 123.251,-153 14.82,-10 30,-18.288 46,-26.247 8,-4.034 17,-9.166 26,-10.753 -2.449,-4 -5.1,-7.348 -6,-12 -16.467,0 -32.702,-0.304 -49,2.435 -43,7.216 -85.052,28.203 -120,53.565 -15.428,11.212 -29.466,24.568 -42,39 -7.395,8.755 -12.423,20 -25,21.948 -4,0.578 -6.351,-2.453 -9,-4.948 -4.067,-3.411 -8.361,-6.745 -13,-9.55 -19.811,-11.981 -43.083,-16.45 -66,-16.451 -6.685,-0.032 -19.365,-4.076 -22.199,5.001 -1.827,5.916 5.48,9.661 10.199,9.956 23.673,1.482 45.449,1.663 67,13.353 6.712,3.641 13.64,8.047 18.826,13.691 9.8,10.707 17.478,27.211 14.706,42 -1.842,9.832 -7.702,19.797 -13.203,28 -15.33,22.863 -37.681,40.968 -64.329,48.573 -44.693,12.753 -95.512,-10.638 -111,-55.573 -8.351,-24.582 -5,-54.016 3.953,-78 4.525,-12.342 10.657,-24.139 18.047,-35 4,-5.826 9.347,-11 12.927,-17 5.073,-8.756 8.641,-19 13.331,-28 6.662,-13 14.729,-25.189 23.169,-37 13.919,-19.477 29.022,-38.562 46.573,-55 32.863,-30.523 72,-53.077 113,-71.14 72.379,-31.977 151.89,-46.61 230,-55.034 4,-0.442 7.931,-2.068 12,-2.656 21.898,-3.17 44.901,-5.614 67,-6.17 25.314,-0.605 49.858,3.189 75,4.911 17.616,1.089 35.376,-0.207 53,1 32.618,2.089 65.364,2.752 98,5 8.662,0.596 17.335,1.571 26,2.053 4.832,0.27 12.372,-0.246 16.775,1.778 2.803,1.258 3.784,4.594 4.8,7.258 2.425,6.592 4.748,13.342 7.082,20 9.255,26.41 19.343,52.447 28.343,79 3.22,9.66 4.949,17.687 10.937,26 0.96,1.336 3.293,4.573 0.686,5.67 -2.99,1.258 -8.178,-3.441 -10.623,-4.808 -9.378,-5.242 -19.824,-9.137 -30,-12.529 -35.481,-11.827 -74.817,-17.398 -112,-20.333 3.835,-20.654 -11.171,-41.231 -30,-48.792 -31.829,-12.783 -77.197,-3.208 -86.622,33.792 -1.378,5.297 -1.054,9.654 -0.378,15 -22.277,0.956 -45.105,5.294 -67,9.389 -26.201,4.901 -53.604,10.611 -77,24.038 -14.402,8.245 -24.804,20.33 -24,37.573 0.301,5.34 2.994,14 7.9,17 3.343,2 9.871,-2.124 13.1,-3.319 11.858,-4.388 23.837,-8.681 36,-12.102 45.542,-12.999 92.892,-19.263 140,-22.579 21,-1.359 42.899,0 64,0.961 93.943,4.039 189.22,31.039 267,85.014 60,41.618 109.705,104.211 116.83,179.025 2.606,27.353 -2.83,52.634 -8.83,79 6.668,-0.286 13.356,-1.195 20,-1.83 3.172,-0.304 7,0.393 9.697,-1.773 3.136,-2.558 3.303,-7.766 4.505,-11.397 3.111,-10.425 4.798,-21.151 5.798,-32 0.924,-10.548 2.992,-21.416 2.992,-32 0,-30.424 -6.236,-62.114 -15.662,-91 -20.369,-62.421 -65.412,-120.015 -121.33,-154.539 -17.782,-10.979 -35.713,-22.461 -55,-30.589 -7.005,-2.987 -14,-6.148 -21,-9.061 -3.529,-1.461 -8.465,-2.452 -11.147,-5.321 -2.853,-2.936 -3.616,-7.781 -4.853,-11.49 -2.265,-6.788 -5,-13.568 -8.116,-20 -10.077,-20.614 -15.884,-43.556 -23.948,-65 -5.458,-14.39 -13.675,-29.688 -15.936,-45 37.712,0 75.43,-7.456 113,-10.089 8.282,-0.581 16.76,-1.224 25,-2.197 5.266,-0.714 11.821,-2.08 17,-0.714 8.438,2.605 16.437,8.786 24,13 22.565,13 42.994,29.214 62,46.911 88.525,82.428 120.866,211.472 117.985,329.089 -0.199,8 -1.63,16 -2.777,24 -5.434,37.799 -14.659,74.413 -33.632,108 -3.803,6.732 -7.7,13.602 -12.04,20 -2.536,3.575 -5.806,6.843 -7.737,10.714 -1.474,2.954 -1.799,10.166 0.635,12.755 3.51,3.905 12.979,-5.951 15.566,-8.084 13.498,-11.13 25.5,-26.385 34.283,-41.385 16.717,-29 32.566,-58.739 38.396,-92 3.852,-22 4.257,-45.727 3.282,-68 -0.452,-10.325 -1.961,-20.65 -1.961,-31 10.508,5.318 21.311,10.281 32,15.23 4.471,2.069 11,4.019 14,8.16 3.922,5.298 4.403,14.322 5,20.61 2.376,18.563 2,36.601 -1,55 -9.06,56.314 -37.178,111.447 -84,145.734 -15.484,11.266 -34.556,23.594 -54,26.266 -0.379,4.766 -1.365,9.462 -3.015,13.961 -8.053,21.969 -31.035,20.039 -49.985,22.615 -4.147,0.424 -10.101,-0.723 -13.787,1.424 -3.367,2 -4.739,6.75 -6.525,10 -2.688,4.814 -5.87,9 -9.703,13 -14.43,14.792 -32.33,16 -51.985,17 1,5.638 2.257,11.278 2.831,17 2.614,26 5.99,68.604 -25.831,77.572 -11.034,3.109 -22.738,2.723 -34,1.597 -23.183,-2.318 -47.127,-6.652 -68,-17.428 -18.477,-9.537 -38,-27.741 -60,-26.741 -7.068,0.35 -14.195,3.327 -21,5 -11.581,3 -23.165,5.74 -35,7.576 -42.491,6.424 -86,10.269 -129,8.385 -31.323,-1.372 -63.126,-4.749 -94,-10.572 -9.729,-1.835 -19.404,-4.434 -29,-6.863 -6.224,-1.576 -12.472,-4.021 -19,-3.352 -20.415,2.095 -38.264,18.653 -56,27.578 -10.261,5.164 -21,7.862 -32,10.621 -20.618,5.129 -44,9.32 -65,4.961 -32.286,-6.67 -33.493,-44.516 -30.286,-71.334 0.684,-5.714 0.932,-11.376 2.286,-17 m -351,33 c -1.708,-5.125 -6,-9.196 -8.389,-14 -3.243,-6.173 -5.844,-12.495 -8.389,-19 -6.222,-15.78 -10.309,-32.742 -14.75,-49 -0.725,-2.655 -0.472,-5.358 -1.305,-8 -2.287,-7 -3.912,-14.006 -6,-21 -0.862,-3 -0.828,-6.511 -4.167,-7 0.866,-3.421 1,-6.48 1,-10 5.834,4.421 4.217,13.573 11.429,17.957 12.081,7.343 25.225,13.018 37.571,19.905 14.22,7.932 27.34,17.126 41,25.92 6.268,4.036 12.526,8.087 19,11.791 2.817,1.611 7.434,2.986 9.264,5.817 2.248,3.478 -2.445,10.61 -2.96,14.61 -0.892,6.746 2.213,12.947 4.696,19 -10.816,2.605 -22.09,3.323 -33,5.499 -14.526,2.897 -30.173,7.459 -45,7.501 m 632,-39 c -2.392,-10.072 -8.383,-19.616 -12.691,-29 -7.961,-17.339 -15.595,-35 -24.061,-52 -3.248,-6.232 -6.042,-12.626 -8.824,-19 -1.251,-3 -2.424,-7.089 -5.061,-9 -2.655,-1.827 -7.363,-1 -10.363,-1 -8.046,0 -16,-1 -24,-1 2.328,8 7.192,15.379 10.691,23 8.588,18.703 17.309,37.298 26,56 3.309,7.322 6.508,14.77 10.065,22 1.244,2.549 2.461,6.277 4.881,7.972 2.162,1.515 5.83,1.27 8.363,1.604 8.188,1.079 16.75,0.424 25,0.424 m 48,0 c -3.401,-12.436 -10.144,-24.43 -15.741,-36 -6.874,-14.207 -13.365,-28.656 -19.95,-43 l -9.618,-21 c -1.291,-2.813 -2.691,-7.13 -5.328,-9 -2.656,-1.827 -7.363,-1 -10.363,-1 h -23 c 2.887,12 10.322,23.799 15.741,35 7.259,15.233 14.041,30.812 21.503,46 3.061,6.23 6.025,12.618 8.755,19 1.001,2.672 2.001,7 4.561,8.821 2.683,1.948 7.326,1.179 10.44,1.179 h 23 m 45,-1 c -2.403,-8.341 -7.077,-16.128 -10.691,-24 -8.588,-18.703 -17.413,-37.297 -26,-56 -2.908,-6.331 -5.954,-12.612 -8.733,-19 -1.214,-2.788 -2.576,-7.173 -5.074,-9 -2.292,-1.543 -5.879,-1 -8.502,-1 -7.425,0 -16,-1.113 -23,1 10.725,26 24.276,51 35.576,77 3.225,7.392 6.705,14.716 10.169,22 1.255,2.746 2.255,7 4.904,8.972 2.812,2.007 7.242,0.68 10.351,0.314 6.892,-0.814 14,-0.286 21,-0.286 m -141,0 c -3.37,-11.705 -10.026,-23 -15.219,-34 -7.357,-15.584 -14.207,-31.417 -21.562,-47 -3.219,-6.607 -5.9,-13.342 -8.913,-20 -1.306,-2.649 -2.112,-6.304 -4.7,-8 -3.03,-2 -8.173,-1 -11.606,-1.001 -8.005,-0.038 -16,-0.999 -24,-0.999 2.404,8.344 7,16 10.691,24 8.198,17.903 16.494,35.925 24.309,54 3.345,7.737 7,15.446 10.752,23 1.248,2.682 2.463,7 4.947,8.972 2.552,1.89 7.301,1.028 10.301,1.028 h 25 m 191,-1 c -11.133,-26.742 -24.602,-52.671 -36.691,-79 -3.061,-6.666 -6.309,-13.301 -9.309,-20 -1.162,-3 -2.566,-7.171 -5.39,-9 -2.612,-1.638 -6.664,-1.013 -9.61,-1 -8.334,0 -16.619,1 -25,1 2.526,8.77 7.892,16.726 11.691,25 8.277,18 16.725,35.978 25,54 3.208,6.985 6.216,14 9.568,21 1.276,2.635 2.55,6.326 5.131,7.972 2.61,1.666 6.61,1.028 9.61,1.027 8.334,-0.039 16.619,-0.999 25,-0.999 m -240,0 c -2.315,-8.038 -6.746,-15.387 -10.139,-23 -8.377,-18.797 -17.624,-37.206 -26,-56 -3.28,-7.359 -6.532,-14.78 -10.109,-22 -1.358,-2.742 -2.752,-7 -5.25,-8.682 -3.088,-2.06 -7.989,-1.318 -11.502,-1.318 -8.055,0 -16,-1 -24,-1 2.171,12.178 10.269,25 15.892,36 7.537,14.683 14.108,29.929 20.969,45 3.139,7 6.611,13.978 9.83,21 1.224,2.669 2.114,6.267 4.703,7.976 2.942,1.943 8.193,1.926 11.606,2.009 7.99,0.196 16,0.015 24,0.015 m 287,-2 c -2,-10.452 -9.124,-21.431 -13.741,-31 -6,-12.433 -10.459,-25.56 -16.518,-38 -6.024,-12.367 -14.554,-25.583 -17.741,-39 l -36,1 c 3.288,11.417 9.744,22.225 14.691,33 11.566,25.188 24.269,50 34.309,76 11.486,-1.452 23.77,0.674 35,-2 m -338,1 c -2.595,-9.007 -7.784,-17.491 -11.691,-26 -8.434,-18.367 -16.9,-36.722 -25.528,-55 -2.971,-6.293 -6.02,-12.613 -8.781,-19 -1.345,-3.111 -2.729,-8 -5.637,-10 -2.656,-1.827 -7.363,-1 -10.363,-1 -7.387,0 -14.631,-1 -22,-1 2.39,8.296 7,16 10.691,24 8.309,18.353 17.232,36.551 25.309,55 3.57,7.704 7,15.444 10.752,23 1.244,2.509 2.248,6.321 4.746,7.972 2.705,1.854 7.401,1.028 10.502,1.028 7.378,0 14.617,1 22,1 m 385,-3 c -2.39,-8.296 -7.091,-16.158 -10.691,-24 -8.433,-18.368 -16.901,-36.722 -25.528,-55 -2.971,-6.293 -6.019,-12.614 -8.781,-19 -1.277,-3 -2.529,-7.147 -5.39,-9 -2.397,-1.501 -5.908,-1 -8.61,-1 -7.595,0 -16.73,-0.149 -24,2 10.987,26.39 24,52 36.219,78 3.127,6.62 6.035,13.347 9.09,20 1.291,2.812 2.69,7 5.328,8.972 2.851,1.989 7.224,0.684 10.363,0.314 7.349,-0.868 14.743,0.442 22,-1.286 m 47,-2 c -3,-10.797 -9.036,-21 -13.691,-31 -7.348,-16.003 -14.569,-32.077 -22.09,-48 -3.219,-6.668 -6.219,-13.383 -9.463,-20 -1.198,-2.437 -2.189,-6.3 -4.455,-8 -2.775,-2.02 -7.301,-0.463 -10.301,-0.17 -7.487,0.713 -15.484,1.108 -23,1.17 10.471,25.524 24,49.683 35,75 3.349,7.746 7,15.399 10.741,23 1.259,2.724 2.259,7 4.908,8.968 2.575,1.796 6.351,0.316 9.351,0.032 7.566,-0.428 15.43,-1 23,-1 m 44,-2 c -1.816,-10.216 -8.166,-20.738 -12.752,-30 -7.716,-15.582 -15.741,-31.794 -21.932,-48 -2.853,-7.468 -6.517,-15 -10.068,-22 -1.248,-2.435 -2.324,-6.418 -4.746,-8 -2.502,-1.396 -5.935,-0.151 -8.502,-0.039 -7.351,0.319 -14.636,1.039 -22,1.039 1.664,9.335 7.75,18.417 11.691,27 8.094,17.626 15.907,35.372 24,53 l 8.618,19 c 1.218,2.649 2.509,6.331 5.081,7.972 2.368,1.511 5.935,1.028 8.61,1.013 7.35,-0.176 14.603,-0.985 22,-0.985 m 50,-4 c -11.11,-26.686 -24.151,-53 -36.741,-79 -3.025,-6.252 -5.906,-12.635 -8.683,-19 -1.24,-3 -2.576,-7.119 -5.213,-9 -3.103,-2.136 -7.953,-0.494 -11.363,-0.17 -7.589,0.722 -15.373,1.17 -23,1.17 3.167,12.673 11,25.246 16.741,37 11.441,23.709 23.153,47.694 33.259,72 11.521,-2.139 23.479,-1 35,-3 m -887,-1 c 8.356,-19.397 14.483,-40.206 24.32,-59 8.238,-15.74 16.861,-32.745 28.98,-46 10.391,-11.198 24.949,-15.742 39.7,-17.17 31.189,-3.018 62,12.05 89,26.403 8,4.262 16,8.434 24,12.767 9.849,5.591 19.32,13.297 30,17 -7.729,6.715 -19.284,9 -29,11.475 -13.087,3.272 -26.047,7.385 -39,11.191 -20.478,6.017 -41.066,12.522 -62,16.974 -26.298,5.592 -53.153,9.36 -79,16.66 -9.166,2.577 -18,6.7 -27,9.7 m 935,-2 c -11,-26.397 -24.223,-52 -36,-78 -3.038,-7.128 -7,-14 -10.219,-21 -1.324,-2.803 -2.324,-7.256 -5.175,-9 -2.429,-1.362 -5.968,-0.166 -8.606,-0.039 -8.358,0.403 -16.665,1.381 -25,2.039 2,7.378 6,14 9,21 8.534,18.838 18.177,37 26.424,56 3.235,7.413 6.792,14.721 10.317,22 1.239,2.557 2.186,6.325 4.677,7.972 3.18,2.028 9.037,1.028 12.582,0.604 7.215,-0.948 14.721,-1.576 22,-1.576 M 681,1257 c -5,2 -11.561,-0.295 -17,0 -12.787,1.227 -25.525,3.368 -37,9.474 -16,8.436 -26.122,22.526 -35.424,37.526 -17.576,28 -27.919,58.599 -40.576,89 -3.79,-0.479 -9.633,-0.182 -12.725,-2.603 -4.56,-3.572 -6.38,-12.179 -8.325,-17.397 -5.273,-14.142 -10.189,-28.391 -14.066,-43 -1.583,-6 -7.373,-18 -4.476,-23.826 1.592,-3.287 5.587,-5.581 8.422,-7.71 8.638,-6.487 17.704,-10.464 27.17,-15.168 22.383,-11.314 47,-22.824 72,-27.125 7,-1.218 14.818,-0.766 22,-1.26 13.543,-0.933 27,-3.911 40,2.089 m 97,134 -1,-1 1,1 m 684,-109 c 11.691,28 25.931,55 38,83 2.752,6.365 5.707,12.783 8.785,18.995 1.215,2.634 2.824,5.705 6.215,5.219 6.832,-0.962 13.322,-8.995 16.955,-14.214 1.437,-2.064 3.045,-4.372 2.992,-7 -0.167,-6 -5.19,-12.655 -7.523,-18 -6.9,-15.813 -14.873,-31.155 -21.705,-47 -2.782,-6.453 -5.212,-17.565 -10.534,-22.357 -2.273,-2.047 -6.427,-0.753 -9.185,-0.654 -8.02,0.288 -16,1.846 -24,2.011 M 458,1159 c 4.421,4.717 5.473,15.623 6.8,22 3.19,15.332 6.666,30.767 10.2,46 8,34.51 17.181,68.995 27.23,103 5.532,18.72 9.77,38.507 18.77,56 -16.234,-5.039 -31.128,-18.299 -45,-27.78 -13.282,-9.22 -28.13,-15.74 -42,-23.82 -4.708,-2.743 -11.704,-4.606 -15.301,-8.79 -2.699,-3.126 -3.457,-7.72 -4.349,-11.61 -2.785,-12.152 -2.422,-26 0.415,-38 7.208,-30.694 21.121,-59.456 31.93,-89 3.305,-9.183 9.8,-18.348 11.305,-28 m 1122,194 c -2.808,-8.191 -12.785,-13 -20,-17 -0.273,3.457 -1.568,7.482 -0.678,10.907 2.391,9.093 14.033,6.093 20.678,6.093 m -37,-2 c 2.203,-17.415 7,-35.715 1.652,-53 -2.772,-8.756 -8.36,-17.397 -17.652,-20.2 -6.223,-1.877 -12.71,-0.07 -19,0.2 4.909,17 15.311,32.928 22.691,49 3.51,7.643 6.293,18 12.309,24 m 12,-67 c 2.284,8.366 5.955,16.255 6.829,25 0.453,4.523 -1.308,11.388 1.159,15.387 3.653,5.92 13.673,10.297 19.012,14.613 3.676,3 11.57,12.987 16.935,11 7.065,-2.522 7.639,-17.708 8.651,-24 0.414,-2.658 1.031,-5.474 -0.359,-8 -2.634,-4.67 -8.988,-8.218 -13.227,-11.37 -12,-8.904 -25.209,-16.888 -39,-22.63 m -1155,34 1,-1 -1,1 m 1210,-19 c -0.463,-3.658 -0.451,-8.542 -2.318,-11.787 -2.1,-3.65 -7.23,-5.384 -10.682,-7.471 -5.694,-3.443 -13.515,-9.569 -20,-10.919 -3.515,-0.823 -7.503,0.725 -11,1.177 0.899,5.776 5,8 10,10.691 7,3.817 14.412,6.909 21,11.517 4.338,3.035 7.582,6.189 13,6.792 M 399,1285 c -8.432,-19.023 -12.603,-41 -18,-61 -5.536,-21.496 -12.279,-43.734 -14,-66 -0.636,-10 -2,-20.078 -0.826,-30 0.603,-5.528 3.015,-10.293 8.826,-11.605 6.981,-1.576 13.241,2.36 16,8.605 4.603,9.877 4.964,22.442 7.35,33 3.274,14.492 6.26,28.881 10.983,43 2.331,6.965 7.667,15.655 7.959,23 0.088,3.379 -1.793,6.931 -3.027,10 -2.396,5.965 -4.651,11.948 -6.83,18 -2.435,6.426 -4.435,13.32 -5.831,20 -0.894,4.228 -0.938,9 -2.604,13 m 147,-10 c 1.931,-24.463 7.861,-48.692 11,-73 l 25,1 c -2,15 -4.16,30 -6.75,45 -0.798,4.597 -0.369,12.647 -3.263,16.44 -1.541,2.02 -4.736,2.56 -6.987,3.56 -6.278,2.47 -12.586,4.909 -19,7 m 1134,-2 c 5.935,-4.269 12.34,-11.134 15,-18 -6.386,-0.547 -15.528,11.864 -15,18 m -69,-9 c 2.535,-3.568 4.936,-7.138 7,-11 -4.441,-2.368 -9.161,-4.607 -14,-6 -1.397,4.27 -3,8.485 -3,13 l 10,4 m -927,-5 1,-1 -1,1 m 1019,-12 c 4.472,-7.254 9.382,-14.251 13,-22 l -8,-4 c -4.159,7 -8.712,15 -11,23 2,1.261 3.778,2.19 6,3 m -704,-2.289 c 27.414,3.527 42,-22.784 55.579,-41.711 5.99,-8.383 14.371,-27 -2.58,-29.775 -16.823,-2.851 -26.494,21.775 -35.014,32.775 -2.985,3.679 -6.17,8.242 -10.985,9.387 -6,1.427 -13,-3.59 -18,-6.14 C 976.493,1203.494 965.75,1197 954.999,1190 948.47,1185.732 941,1181.235 933,1183.573 c -12.807,3.68 -10.241,19.321 -2,25.909 10.981,8.772 23.71,15.179 36,21.827 10,5.458 20.394,11.909 32,13.402 m 275,-0.012 c 10,1 20.216,-4.06 29,-8.452 16.204,-8.247 33.786,-16.505 47.907,-28.007 8.759,-7.24 7.793,-22.718 -4.907,-25.012 -8.519,-1.538 -15.332,4.075 -22,8.428 -10.542,6.881 -21.752,12.953 -33,18.591 -4.72,2.366 -10.462,6.222 -16,5.484 -5,-0.731 -8.473,-5.11 -11.331,-8.731 -6.311,-8 -11.744,-16.742 -17.708,-25 -4.575,-6.331 -11.961,-11.477 -19.961,-8 -14,6.243 -6.751,20.362 -0.579,29 12.847,17.979 24.285,39.309 48.579,41.699 m 350,-1.699 10,-22 c -7.777,-3.63 -15.38,-8.708 -24,-10 -0.466,5.345 -2,10.685 -2.754,16 -0.37,2.268 -1.412,5.365 -0.553,7.61 1.811,4.734 12.827,7.594 17.307,8.39 m -1069,-8 -1,-1 1,1 m 1176,-42 c -3.686,-2.052 -7.046,-4.501 -11,-6 -0.66,7.56 -7.582,16.494 -6.498,23.815 0.498,3.941 5.828,5.835 8.498,2.852 4.469,-4.893 7.282,-14.384 9,-20.667 m -93,17 c 1.814,-5.66 4,-11.231 5.522,-17 0.478,-2.215 1.478,-5.358 0.785,-7.61 -1.133,-2.975 -5.715,-4.39 -8.307,-5.638 -8,-3.956 -15.455,-8.415 -24,-10.752 0,5.956 0.395,12 -0.17,18 -0.289,3 -1.556,6.778 -0.226,9.725 1.234,2.736 4.859,3.761 7.396,4.854 6.242,2.687 12.334,7.136 19,8.421 m 96,-26 c 3.293,-7.654 4,-16 6,-24 -4.057,-2.309 -7.706,-5.123 -12,-7 -0.161,5.579 -2,11.195 -2.781,16.714 -0.454,2.668 -1.569,5.525 -0.219,8.102 1.791,3.184 5.758,4.955 9,6.184 m -86,-9 c 1.455,-6 2.294,-12 3,-18 0.505,-2.694 1.53,-6.042 0.393,-8.671 -1.705,-3.94 -7.84,-5.799 -11.393,-7.576 -10.595,-5.298 -22.227,-12.753 -34,-14.753 1.834,6.389 2.833,13.426 3.796,20 0.435,2.972 0.204,6 1.638,8.895 2.193,4.105 7.522,5.556 11.566,7.414 8.415,3.866 16,9.895 25,12.691 m 93,-27 c 0,-12.749 7.566,-29 -10,-33 -0.02,7.197 -4.009,20 0,26.485 2,3.311 6.455,5.34 10,6.515 m -612,-64 c -5.194,7.416 0.773,17.895 -2.603,25.866 -1.634,3.858 -6.897,4.541 -10.397,5.83 -8,2.945 -18.209,10.304 -14,20.261 2,4.667 7.193,6.66 12,5.646 4,-0.845 7.31,-3.622 11,-5.254 4.499,-1.991 10,-3.012 15,-2.894 4.663,0.112 9.729,1.004 14,2.894 6.567,2.906 14.88,9.513 21.347,2.257 9.408,-10.606 -5.762,-20.646 -14.347,-23.606 -3.458,-1.188 -7.597,-2.051 -8.682,-6.055 C 1151,1104.425 1152,1098.658 1152,1094 v -32 c 0,-4.44 -1.6,-12.805 1.603,-16.351 3.343,-3.7 10.827,-4.798 15.397,-6.316 16.888,-5.609 34.254,-6.44 49.999,3.019 4.374,2.628 6.843,7.193 11.001,9.906 9.308,5.989 16.999,-3.258 15.866,-12.258 -1.14,-9.154 -11.271,-15.516 -18.866,-19.111 -19.584,-9.271 -41.319,-10.258 -62,-3.889 -5.362,1.684 -10.748,3.445 -16,5.425 -3.111,1.173 -6.576,3.22 -10,2.975 -3.139,-0.225 -6.111,-2.23 -9,-3.4 -5,-1.812 -10,-3.423 -15,-5 -14.305,-4.398 -30.299,-5.561 -45,-2.55 -11.357,2.326 -25.466,8.347 -33,17.55 -4,5 -6,13.289 -1.347,18.772 7.982,9.56 16.347,-1.56 22.347,-6.382 2.956,-2.39 6.548,-4.04 10,-5.517 17.568,-7.519 36,-2.873 52.995,4.127 9.915,4 6.004,21.993 6.005,31 0,3.516 -0.786,7.565 2,10 m 524,52 c 0.639,-7.327 5,-18.816 0.972,-25.787 -2.673,-4.532 -10.52,-6.645 -14.972,-8.994 -13.527,-7.219 -28,-15.656 -43,-19.219 1.314,5.73 3.496,11.256 4.714,17 0.828,3.908 0.933,9.244 3.274,12.61 2.814,4.043 9.719,5.662 14.012,7.621 11.399,5.2 23,13.259 35,16.769 m -752,-2.286 c 10.491,1.255 27,2.527 36.985,-1.719 8.408,-3.618 7.001,-15.005 -1.986,-16.636 -7.041,-1.359 -14.999,1.88 -21.999,1.601 -8,-0.311 -16.19,-1.52 -24,-3.171 -5,-1.03 -11.003,-3.123 -16,-1.047 -6,2.583 -5.746,10.92 -1,14.53 6.942,5.038 19.83,5.465 28,6.442 m 448,0 c 16.869,2.219 36.834,0.651 52.999,-4.711 7.308,-2.319 11.541,-13.788 1.958,-16.566 -5.173,-1.5 -10.957,0.532 -15.957,1.562 -8,1.626 -17,3.221 -25,2.961 -6.685,-0.213 -15.538,-3.699 -22,-1.063 -5.217,2.106 -6.384,9.66 -2.566,13.712 2.566,2.806 6.903,3.623 10.566,4.105 m -711,-1.188 c 2.838,0.477 5.617,-0.609 8,-2.005 6.169,-3.616 14.535,-9.518 18.397,-15.519 2.544,-4.021 1.603,-10.217 -3.441,-11.55 -7.333,-1.894 -15.705,7.935 -20.956,11.925 -2.218,1.626 -4.695,3.354 -6.257,5.626 -2.835,4.378 -0.979,10.353 4.257,11.523 m -22,-20.972 c 3.872,0.971 7.679,-1.113 11,-2.81 8.377,-4.281 17,-9.741 23.671,-16.356 3.938,-3.963 6.073,-11.209 -0.715,-13.778 -3.523,-1.333 -7.087,0.359 -9.956,2.332 -5.107,3.513 -9.678,7.625 -15,10.857 -4,2.204 -9.316,4.125 -12.347,7.594 -3.701,4.236 -2.382,10.61 3.347,12.161 M 1741,1108 c -0.717,-8.317 -1.079,-13.417 -10,-16 0,8.45 1.6,12.815 10,16 m -86,-11 c 0,-6.425 -0.47,-12.615 -1,-19 -0.1,-2.744 0.531,-6.167 -1.028,-8.61 -3.231,-5.065 -13.731,-8.023 -18.972,-10.637 -18.509,-9.231 -38.417,-18.128 -58,-24.753 1.459,8.186 6.685,16.493 10.255,24 1.447,3 2.592,7 5.163,9.301 2.798,2.499 7.18,3.669 10.582,5.12 7.662,3.27 15.429,6.421 23,9.888 9.97,4.565 19.564,11.388 30,14.691 m -716,-1.376 c 8.394,0.361 16.938,-9.624 7.867,-15.766 C 941,1075.886 929.839,1077 923,1075.92 c -14.703,-2.43 -28.228,-6.92 -42,-12.523 -6.188,-2.519 -15.08,-8.397 -22,-6.938 -6.715,1.365 -9,9.244 -4.566,14.316 2.839,3.225 7.566,4.471 11.566,6.025 23.905,9.592 46.981,17.705 73,18.824 m 399,0.033 c 5.849,0.886 13,-0.712 19,-1.657 19.651,-2.608 36.752,-9.441 55,-16.799 4.172,-1.683 9.574,-2.977 12.682,-6.426 3.775,-4.188 2.742,-11.775 -2.726,-13.878 -6.75,-2.662 -15.956,3.103 -21.956,5.679 -13.637,5.722 -27.383,10.635 -42,13.174 -7.095,1.233 -19,-0.01 -25,4.108 -7.759,5.406 -3,14.592 5,15.799 M 600,1091 c 5,-6.686 13.96,-8.446 19.566,-14.518 5.215,-5.648 1.188,-14.309 -6.566,-13.242 -5.759,0.76 -11.153,5.628 -16,8.556 -2.775,1.677 -6.185,3.107 -8.347,5.594 -2.827,3.25 -3.054,8.112 0.575,10.868 2.772,2.164 7.362,2.107 10.772,2.742 m 344,-31.3 c 3,0.3 7,0.709 9.895,-0.879 5.66,-3.144 5.605,-10.261 0.891,-14.172 -7.144,-5.927 -20.153,-6.924 -28.787,-10.267 -5.124,-1.984 -10.423,-5.671 -15.999,-6.128 -9.408,-0.772 -11.212,11.014 -5,16.109 3.535,2.637 8,4.156 12,5.943 8.476,3.694 17.716,8.06 27,9.394 m 383,-0.134 c 6.32,1.822 13.214,-0.731 19,-2.91 8.844,-3.332 19,-6.181 26.956,-11.656 5.418,-3.73 7.469,-13.265 0,-16.257 -4.42,-1.771 -8.968,0.75 -12.956,2.471 -7.185,3.1 -14.544,6.053 -22,8.442 -4.108,1.316 -9.225,1.782 -12.786,4.344 -5.45,3.934 -5.214,13.524 1.786,15.566 M 1653,1057 c -1.266,-5.608 -2.019,-11.31 -2.83,-17 -0.475,-3.33 -0.237,-7.707 -2.183,-10.61 -1.736,-2.59 -5.283,-3.687 -7.987,-4.93 -6.015,-2.765 -12,-5.906 -18,-8.46 -17.422,-7.239 -35.031,-14.587 -53,-20.344 -7.475,-2.395 -15.233,-5.656 -23,-6.656 3.598,6.317 8.338,11.911 12.305,18 2.695,4.292 5.173,9.897 9.213,13.181 2.946,2.395 7.021,2.819 10.482,4.28 7,2.539 14,5.539 21,8.339 18.202,7.2 35.534,17.912 54,24.2 m -7,-41 c -0.156,-7.585 -2.556,-14.659 -4.185,-22 -0.815,-3.173 -0.815,-7.702 -2.815,-10.351 -2,-2.649 -6.17,-3.649 -9,-4.88 -8.5,-3.875 -17.327,-7.1 -26,-10.569 -34.653,-13.862 -73,-26.404 -110,-31.2 5.553,6.398 12.877,11.184 19,17 6,5.804 11.743,13.851 19,18 4,2.478 9.456,3.363 14,4.836 11.309,3.665 22.799,6.866 34,10.856 22.621,8.058 43.915,19.113 66,28.308 m -1034,-3 c 1.466,-18.55 5.306,-37.719 8.803,-56 1.197,-6.403 3.388,-16.76 -2.936,-21.258 C 609.759,929.976 601.77,937 600,945 c -5,22 -6.818,44.802 -11,67 l 23,1 m 1024,-43 c -1.802,-9.561 -3.239,-25.203 -10.549,-32.377 C 1622,934.27 1616.339,933 1612,931.399 c -11.482,-4.553 -23.27,-8.527 -35,-12.399 -48.643,-16.054 -101.721,-26 -153,-26 9.434,7.824 22.411,12.889 33,19 5.869,3.613 11.472,9.259 18,11.352 6.934,2.222 14.841,2.648 22,4.108 17.973,3.369 36.398,7.156 54,11.965 20.382,5.569 40.3,13.019 60,20.575 8.308,3.273 16.41,7.651 25,10 m -15,-46 c -2.123,-7.777 -5.787,-14.755 -9.219,-22 -1.781,-3.509 -2.887,-7.717 -6.11,-10.157 -3.907,-2.955 -10.047,-4.138 -14.671,-5.56 -10,-3.062 -20,-5.916 -30,-8.707 C 1518.809,865.845 1473.841,858 1430,858 h -34 c -6.239,0 -13,-0.777 -19,1 1.841,4.489 3.254,11.756 6.702,15.196 3.084,3.077 8.298,4.525 12.298,5.992 6.752,2.485 13.915,1.812 21,1.812 9.718,0 19.32,0.426 29,1 43.955,3 87.906,12.592 130,25.435 15,4.565 29.703,11.39 45,15.565 M 1134,824 c -0.657,3.539 -0.442,7.618 -1.588,11 -1.412,3.786 -4.86,6.638 -3.934,10.999 2.157,10.169 18.033,10.566 22.339,1.986 2.584,-5.151 -1.817,-8.448 -3.229,-12.985 -1.146,-3.382 -0.931,-7.461 -1.588,-11 9,0 16.983,0.519 25,5.468 18.773,11.532 22.325,35.99 9.226,53.439 -6.663,8.875 -18.226,16.921 -29.226,18.767 -5.795,0.968 -12.138,0.326 -18,0.325 -26.795,-0.172 -49.618,-34.819 -36.352,-58.999 7.75,-14.127 22.343,-19 37.352,-19 m 464,53 c -3.506,-7.5 -8.538,-14.167 -13.164,-21 -2.836,-4.118 -5.836,-9.365 -9.926,-12.146 -4.923,-3.225 -12.27,-3.676 -17.91,-4.973 -13.263,-3.049 -26.535,-6.169 -40,-8.153 -24.28,-3.728 -48.461,-7.112 -73,-7.728 -17.208,-0.407 -34.804,-0.714 -52,0 -9.016,0.434 -18,1.994 -27,2 1.273,5.501 3.285,10.771 5.4,15.999 0.799,1.975 1.501,4.64 3.299,5.973 3.534,2.62 10.284,0.028 14.301,0.028 12.318,-0.287 24.678,0 37,0 44.224,0 89,7.174 132,17.895 13.83,3.458 27.244,8.428 41,12.105 m -36,-48 c -5.444,-8.23 -12.807,-14.477 -19.83,-21.285 -3.836,-3.718 -7.17,-7.763 -12.17,-9.911 -4.588,-1.946 -10.106,-2.133 -15,-2.804 -10,-1.369 -20,-2.2 -30,-3.17 -43.794,-4.238 -87.398,-2.369 -131,3.17 0.875,5 3.32,16.797 7.699,19.968 3.208,2.324 10.655,-0.059 14.301,-0.544 10,-1.424 20.823,-1.424 31,-1.424 52.442,0 103.934,2.783 155,16 m -50,-45 c -4.673,-8 -15.449,-12 -23,-16.681 -6.683,-4.319 -15.229,-10.319 -23,-11.929 -4.681,-1.017 -9.335,0.179 -14,0.521 -11.423,0.838 -22.726,2.012 -34,3.675 -13.751,2.03 -28.072,2.236 -42,3.584 -11,1.056 -22.026,2.739 -33,2.83 1.295,4.987 3.494,17.517 9,19.227 4.915,1.463 13,-1.299 18,-1.945 12.605,-1.642 25.34,-2.326 38,-3.282 34.397,-2.266 69.79,-0.323 104,4 m 161,-106 c 32.168,-0.089 63.927,-10.714 96,-13 15.854,-1 32,0 48,0 22.235,-0.009 44.695,-0.739 67,-1.004 47.953,-0.57 96,-2.599 144,-2.996 v -2 c -107.724,0 -215.309,-3.827 -323,-4 -25.55,-0.041 -51.775,-7.094 -77,-10.729 -8.647,-1.271 -21.614,0.572 -25,-9.271 30.794,0 60.262,-11.615 91,-13 21.915,-1 44,0 66,0 33.218,-0.053 66.708,-0.608 100,-1.004 67.306,-0.8 134.614,-1.996 202,-1.996 -11.028,38.295 -49.339,65.959 -86,76.421 -66.178,18.885 -136.149,8.426 -203,-0.997 -24.583,-3.465 -49.255,-6.699 -74,-8.513 -9.014,-0.661 -21.694,1.588 -26,-7.911 m -1380,0 c 18.247,0 37,1.498 55,-2.286 11.69,-2.465 21.953,-8.947 34,-10.428 15.741,-1.934 32,-0.631 48,-1.325 24.951,-1.093 50,-2.961 75,-2.961 -2.076,8.719 -1.404,18 -2.576,27 -0.424,2.593 0.258,7 -2.027,8.972 C 497.948,698.912 492.91,698 490,698 h -27 c -22.422,0 -45.776,1.867 -68,-1.286 -13.602,-1.929 -26.495,-7.258 -40,-9.714 -15,-2.538 -30,-2 -45,-2 -7.534,0 -14.435,1.534 -17,-7 m 258,0 c 29,-0.08 57.536,-8.122 86,-13 20.252,-3.332 40.508,-4 61,-4 h 33 c 3.727,0 10,-1.215 13.363,1 2.908,2 4.355,6.942 5.884,10 4.216,8.432 9.151,16.9 11.753,26 h -63 c -11,0 -22.168,0.862 -33,-0.17 -21.459,-2.043 -41.567,-10.612 -63,-12.66 C 590.842,684 578.221,684 566,684 c -6.077,-0.002 -12.588,0.58 -15,-6 m 236,-1 c 17.742,0 36.504,1.759 54,-1.424 12,-2.199 22.563,-9.615 35,-10.576 19.214,-1.257 38.743,0.457 58,-0.015 44.635,-1.093 89.299,-1.985 134,-1.985 18.651,0 37.293,-1 56,-1 5.678,0 16.698,-2.105 21.61,1 2.853,1.848 4.191,6 5.637,9 3.945,7.89 9.753,17 10.753,26 H 986 c -37.578,0 -75.755,2 -113,-3.421 -21.012,-3.111 -42,-6.794 -63,-9.293 -9.08,-1.076 -19,1.423 -23,-8.286 m 404,1 c 18.613,0 38.68,1.383 57,-2.095 10,-1.91 18.778,-8.128 29,-9.605 19.958,-2.884 40.87,-1.822 61,-2.315 9.799,-0.24 20.236,-0.225 30,-1.155 5,-0.481 12.789,-2.494 17.61,-0.227 3.202,1.397 4.668,6.397 6.143,9.397 4.199,8.398 9.644,16.963 12.247,26 h -67 c -11.536,0 -23.515,0.924 -35,-0.17 -20.427,-1.945 -39.702,-9.491 -60,-12.254 -12.091,-1.645 -24.808,-0.576 -37,-0.577 -6.365,-0.03 -12.133,-0.078 -14,-6.999 m 223,1 c 11,0 21.978,-0.478 33,-1 6.606,-0.25 13.465,0.712 20,-0.465 12.717,-2.288 24.175,-9.535 37,-11.235 4.631,-0.662 9.347,-0.071 14,-0.389 17.292,-1.185 34.65,-1.709 52,-1.915 9.286,-0.11 18.673,-0.782 28,-1.011 3.231,-0.079 6.81,-1.254 10,-0.632 4.709,0.919 8.559,5.464 12,8.492 5.979,5.155 11.979,10.52 18,15.731 3.987,3.424 8.598,6.679 11,11.424 h -84 c -14.163,0 -29,1.173 -43,-0.17 -17.555,-1.83 -33.636,-8.914 -51,-11.402 -13,-1.86 -27,-1.428 -40,-1.428 -7.184,0 -13.606,1.466 -17,-6 M 767,635 c 28.827,0 56.343,-11 85,-13 10.627,-0.638 21.36,0.427 32,-0.039 48.87,-2.14 98,-1.961 147,-1.961 22.623,0 45.309,-1 68,-1 h 17 c 2.584,0 6,-0.542 8.363,1 3.364,2.377 5.107,8.447 6.884,12 4.633,9.265 9.753,18.437 13.753,28 -28,0 -56.04,-1.3 -84,-2 -36.359,-1 -72.696,-0.371 -109,-2 -32.292,-1.375 -64.806,0.918 -97,-2.075 -22.41,-2.083 -44.725,-7.147 -67,-10.346 -8,-1.126 -19.443,1.105 -21,-8.579 m 403,1 c 30.935,0 61.255,-11 92,-13.83 24,-2.3 48.773,-1.421 73,-3.17 7.683,-0.437 15.445,0.799 23,-1 -6.14,-1.815 -12.665,-0.656 -19,-1.089 -14.003,-0.959 -28,-1.336 -42,-1.95 -33.629,-1.473 -67,-3.436 -100,-9.961 -11.588,-2.279 -23.269,-4 -35,-5.166 C 1155.724,599 1150.436,599 1149,592 c 24,0 47.317,-7.527 71,-10.718 18.288,-2.463 36.615,-2.516 55,-3.321 18.621,-0.961 37.364,-2.736 56,-2.961 3.415,-0.037 8.594,-1 11.61,1 4.829,3 4.825,10.692 9.027,14.397 2.934,2.586 8.74,1.603 12.363,1.564 15.866,-0.701 30.248,-10.276 46,-12.533 14.254,-2.042 29.597,-1.09 44,-1.443 18.351,-0.449 36.587,-1.985 55,-1.985 -16,-4.71 -35.512,-2 -52,-2 -29.085,0 -58.233,-0.19 -87,-5 -10.661,-1.673 -22,-3.173 -32,-7 l 5,12 c -25.032,0 -50.025,-2 -75,-3 -30.521,-1.297 -60,-2.384 -90,-8.4 -12,-2.375 -24,-4.6 -36,-5.675 -5.605,-0.521 -11.814,0.019 -14,-5.925 8.211,-2.779 17.436,-3 26,-4.13 14.674,-2.045 29.283,-4.545 44,-6.041 12.398,-1.259 24.579,-4.999 37,-6.544 19.476,-2.424 39.386,-3.285 59,-3.285 v -2 c -26.152,0 -53,0.308 -79,-2.17 -19.728,-1.879 -39.308,-7.375 -59,-8.83 -10.037,-0.606 -20,-2.399 -30,-3 -7.698,-0.393 -15,0.329 -19,-7 38,-0.025 76.404,-9.775 114,-14.718 44.665,-5.873 90,-6.448 135,-3.372 13.214,0.905 26.754,0.09 40,0.09 5.448,0 12.827,-1.28 18,0.603 5.643,2.053 10.523,8.127 15,11.973 10.615,9.119 20.867,18.949 32,27.424 -4.215,1.769 -9.465,1 -14,1 h -28 c -11.334,0 -22.607,1 -34,0.996 -21,-0.249 -42.063,-1.564 -63,-1.996 2,5 5.334,9.737 7,15 32.815,-8 67.282,-11 101,-11 8,0 15.995,-1 24,-1 3.266,-0.015 6.966,-0.43 10,1 10.232,4.878 19.52,16.278 28,23.715 21.89,19.2 42.847,40.644 66,58.285 -5,2 -11.65,1 -17,1 -14,0 -28.216,-0.518 -42,-1.83 -7.287,-0.694 -14.693,0.111 -22,-0.209 -12.65,-0.554 -25.35,-1.368 -38,-1.961 -6.313,-0.237 -12.713,0.466 -19,-0.286 C 1398.38,610 1379,600 1357,600 c 2.937,8.624 7.179,16.864 11.247,25 1.569,3 3.051,8 6.143,9.972 5.137,3.277 15.1,-0.123 20.61,-1.053 18.76,-3.168 37,-8.369 56,-10.633 21.172,-2.533 42.801,-0.438 64,-2.456 8.327,-0.83 16.696,-0.209 25,-1 6.229,-0.593 13.854,-2.161 20,-0.316 5.401,1.486 9.876,7.141 14,10.772 10.398,9.154 23.919,18.479 32,29.714 -25.624,0 -51.412,-2 -77,-3 -23,-1 -46.122,0 -69,-2.17 -16.66,-1.612 -32.713,-7.83 -49.089,-10.571 C 1399.872,642.315 1388.172,643 1377,643 c 3,5.349 6.282,11 8,17 -9.039,-1.142 -18,-0.469 -27,-1.089 -25.635,-1.911 -51.322,-1.911 -77,-2.95 -20.379,-0.961 -40,-5.01 -60,-7.672 -12.285,-1.622 -24.552,-4.289 -37,-5.289 -6.182,-0.411 -12.28,-10e-4 -14,-7 m -899,0 c 36,-0.299 72.272,-9.02 108,-13.718 36,-4.737 71.706,-5.282 108,-5.282 -7.435,-2.198 -16.277,-1 -24,-1 -12.603,-10e-4 -25.358,-0.705 -38,-1.015 -40.096,-0.985 -80.383,-1.339 -120,-8.235 -13.332,-2.321 -26.496,-5.42 -40,-6.75 -6.512,-0.531 -12.814,0 -15,-7 30.747,0 60.494,-11 91,-13.83 17.588,-1.675 35.359,-0.437 53,-1.209 39.253,-1.719 78.67,-2.961 118,-2.961 -1.331,5.592 -1,11.283 -1,17 24.267,-0.016 48,-8.21 72,-11.728 23.64,-3.483 48,-2.702 72,-3.287 10,-0.248 20.909,-0.194 31,-1.155 4.492,-0.427 11.487,-2.432 15.61,0.17 3.33,2 4.944,7.615 6.637,11 4.753,9.546 10.753,19.751 13.753,30 -21.293,-0.176 -42.727,-2.029 -64,-3 -19.596,-0.819 -39.5,0 -59,-2.286 C 569.464,608.218 539.819,599 510,599 c -1.571,19.908 -5,40 -5,60 -26.297,0 -52.742,-1.811 -79,-3 -21.238,-1 -43,0.556 -64,-2.289 -12.776,-1.721 -25.422,-6.235 -38,-9.06 C 312,641.965 300.18,642 288,642 c -7.274,0 -13.376,1.37 -17,-6 m 257,0 c 10,0 20,-1 30,-1 7.432,-0.035 15.703,1 23,-0.518 12.453,-2.641 23.353,-10.052 36,-12.043 18.83,-2.964 38.967,-1.987 58,-2.454 9.728,-0.238 20.355,-0.143 30,-1.409 4.678,-0.615 13.402,-2.233 17.61,0.424 3.33,2 4.944,7.615 6.637,11 4.675,9.349 10.753,18.943 13.753,29 -22.707,0 -45.348,-2 -68,-3 -17.525,-0.728 -35.609,0.185 -53,-2.3 -14.119,-2.017 -26.733,-9.229 -41,-11.272 C 569,640.713 556,642 544,642 c -7,0 -12.73,1.193 -16,-6 m 218,-43 c 31.887,-0.264 62.377,-13.819 94,-16.83 18.671,-1.778 38.241,-0.17 57,-0.17 h 112 68 18 c 2.702,0 6.213,-0.501 8.61,1 3.33,2 4.945,7.615 6.637,11 4.749,9.5 9.673,19.2 13.753,29 -55.724,0 -111.348,-2.334 -167,-3 -21.333,-0.25 -42.722,-1 -64,-1 -19.543,0 -39.619,0.799 -59,-1.718 -22.137,-2.876 -44,-7.744 -66,-10.858 -7.392,-1.042 -19.038,0.811 -22,-7.424 m 812,0 c 31.352,-0.26 61.635,-12.587 93,-14 21.579,-1 43.399,0 65,0 32.57,0 65.363,-0.616 98,-1.004 85.968,-1.022 171.964,-2.996 258,-2.996 -2,10.393 -3.052,20.703 -5.626,31 -0.813,3.251 -1.196,8.793 -4.653,10.397 -2.743,1.272 -6.778,0.603 -9.721,0.603 h -20 c -24.724,0 -49.306,-1 -74,-1 -90.69,0 -181.293,-3 -272,-3 -33.101,0 -64.368,-6.518 -97,-11 -6.66,-1 -13.336,-1.486 -20,-2.286 -2.59,-0.31 -6.34,-0.248 -8.566,-1.736 -1.801,-1.205 -2.03,-3.041 -2.434,-4.978 m -35,-43 c 16.469,0 33.735,1.49 50,-1.463 14.595,-2.649 28.245,-9.537 43,-11.251 6.609,-0.811 13.36,-0.035 20,-0.325 19.337,-0.961 38.624,-1.501 58,-1.976 10.203,-0.25 20.8,-0.376 31,-1.074 6.962,-0.477 15,-2.317 22,-0.593 3.925,0.978 6.947,4.414 10,6.877 4.812,3.805 9.841,7.401 15,10.802 14.928,9.843 30.911,16.477 47,24.003 -6.138,2.576 -13.582,0.32 -20,0 -13,-0.527 -26.077,-1 -39,-1 -26,0 -52.072,-1.825 -78,-3 -21.764,-1 -44.439,0.955 -66,-2.439 -10.273,-1.617 -20.11,-6.128 -30,-9.214 -14.781,-4.612 -31.677,-3.347 -47,-3.347 -6.559,0 -14.084,1.799 -16,-6 m -1295,0 c 29,-0.003 57,-11 86,-13 21.615,-1.391 43.354,-0.092 65,-1.039 C 424.245,533.979 469.663,533 515,533 l -1,15 c 21.414,-0.059 42.835,-8.541 64,-11.572 6.296,-0.901 12.676,-0.084 19,-0.517 14.975,-1.026 29.974,-1.736 45,-1.915 8.855,-0.105 18,-0.479 27,-1.085 3.715,-0.255 8.312,-1.927 11.787,0.089 3.558,2 5.211,7.49 6.966,11 4.777,9.554 10.247,19.732 13.247,30 -8.708,-1.101 -17.276,-0.492 -26,-1.089 -30.578,-2.094 -61.484,-1.126 -92,-4.081 -12.734,-1.233 -24.683,-6.275 -37,-9.355 -11,-2.75 -21.713,-3.475 -33,-3.475 0,4 1,14 -2.603,16.968 -2.924,2.244 -9.9,0.032 -13.397,0.032 -12.293,-0.058 -24.788,0.726 -37,-0.714 -12.508,-1.476 -25.426,0.225 -38,-0.325 -44.115,-1.961 -88.278,-0.212 -132,-7.547 -15,-2.51 -30,-6.089 -45,-7.414 -7.057,-0.618 -14.289,0.507 -17,-7 m 1615,0 c 15,0 30,2 45,-0.614 15.183,-2.756 29.719,-10.571 45,-12.212 16.801,-1.806 34,-0.474 51,-1.213 28.939,-1.268 58,-2.961 87,-2.961 l 1,41 c -25.624,-1.1 -51.361,-2.357 -77,-3 -16,-0.376 -32.137,0.416 -48,-1.171 -16.357,-1.635 -32,-8.019 -48,-10.533 -13.58,-2.118 -27.355,-2.828 -41,-4.126 -6.142,-0.585 -12.162,1.518 -15,-5.17 m -1117,5 -1,-4 c 5.216,-1.542 10.61,-0.803 16,-1.039 11,-0.486 23,-0.458 34,-2.287 12.228,-2.038 23.703,-8.315 36,-10.388 15.717,-2.65 32,-1.63 48,-2.325 17.685,-0.775 35.254,-1.961 53,-1.961 v -2 C 862.791,531 814,521.443 765,517.946 761.575,517.699 758.506,516 754.996,516 742.696,515.565 730.215,515 718,513.424 712,512.643 706.486,514 705,507 c 24,-0.496 49.319,-5.442 73,-9.414 8.875,-1.586 18,-3.868 27,-4.586 21.585,-1.423 43.379,-0.093 65,-1.039 53.537,-2.345 107.361,-2.961 161,-2.961 -9.123,-2.697 -20.511,-1 -30,-1 -17.378,0 -34.609,-1 -52,-1 -29.327,0 -58.706,-2 -88,-2 -17.374,-0.083 -34.689,-0.561 -52,-1 -15.156,-0.357 -30,0.225 -45,-2 -20.466,-2.715 -40.475,-8.161 -61,-10.715 -7.325,-0.912 -17.447,1.032 -20,-7.285 12.734,0 25.323,-0.042 38,-1 4.68,-0.231 9.38,0.364 14,-0.68 12.835,-2.9 23.553,-11.32 37,-12.32 15.19,-1 30.771,0 46,0 22.234,-0.036 44.695,-0.738 67,-1.004 46.314,-0.551 92.612,-1.996 139,-1.996 -11,-3.682 -23.652,-2 -35,-2 -18.046,0 -36,-1 -54,-1 -28.324,0 -56.705,-1.66 -85,-2 -34.502,-0.407 -69.73,1.256 -104,-3 -21.488,-2.416 -42.558,-7.622 -64,-10.575 -7,-0.957 -18.244,0.997 -20,-7.425 13,0 26,0.402 39,-0.83 4.708,-0.448 9.366,0.121 14,-1.17 13.378,-3.431 23.896,-13.418 38,-14.829 18.961,-1.898 38.94,-0.171 58,-0.171 h 116 67 17 c 2.703,0 6.213,-0.501 8.61,1 3.092,2 4.574,6.861 6.143,10 3.833,7.665 7.71,15.309 11.491,23 7.756,15.887 14.643,32.428 23.065,48 7.61,14 17.254,29.599 21.691,45 H 920 c 4.302,14.934 15.704,27 20,42 -26.363,0 -52.697,-1.809 -79,-3 -13.226,-0.54 -27,0.418 -40,-1.289 C 807.469,566.952 795.287,560 782,557.45 770.551,555 758.626,556 747,556 c -7.052,0 -14,-1 -21,-1 M 207,508 c 37,0 73.194,-11.328 110,-14.83 23.531,-2.24 47.393,-1.176 71,-2.209 C 423.882,489.389 460,487 496,487 484.902,483.628 472.465,482.51 461,480.586 438.771,476.857 416.582,473 394,473 c 2.994,5 5.717,10.517 8,16 -23.722,0 -47.339,-2 -71,-3 -31.797,-1.353 -62.622,-2.325 -94,-8.6 -12,-2.4 -24,-4.4 -36,-5.976 -6.421,-0.853 -11.753,0.895 -14,-6.424 24.987,-0.207 49.354,-9.398 74,-12.718 22.529,-3.034 45.503,-0.913 68,-3.567 12.438,-1.468 25.47,-1.715 38,-1.716 3.728,-0.018 9.427,-1.999 12.787,10e-4 4.213,2.464 7.191,10.668 9.213,15 59.369,-16.69 122.901,-16 184,-16 h 45 c 5.471,0 14.6,-1.753 19.61,0.603 3.39,1.617 5.052,7.227 6.637,10.397 4.965,9.931 12.753,21 14.753,32 -26,0 -52.034,-0.622 -78,0 -21.051,0.53 -42,1.662 -63,0 l -1,16 c 34,-8.407 71,-10.696 106,-13.09 8.958,-0.614 18,-1.91 27,-1.91 3,-0.014 7.715,-0.82 10.363,1 3.135,2.216 4.637,7.695 6.39,11 4.619,9.237 9.508,18.362 13.247,28 -27.318,0 -54.778,-1.046 -82,-3 -11.649,-0.708 -23.392,0.355 -35,-1.3 -16,-2.266 -31.247,-7.732 -47,-10.7 l -1,16 c -21.277,0 -42.751,-1.03 -64,-2 -28.316,-1.201 -56.702,-0.721 -85,-2 -29.458,-1.25 -58.767,0.624 -88,-4.247 -11,-1.814 -22.027,-3.038 -32.83,-5.012 C 240,516.8 235.345,515 230,515 c -8.322,-0.192 -18.755,1.229 -23,-7 m 1635,0 c 7,0 13.981,-0.813 21,-1 10.646,-0.246 21.493,0.485 32,-1.666 12.947,-2.651 24.848,-9.334 38,-11.045 13.243,-1.725 26.688,-0.745 40,-1.328 29.957,-1.312 59.979,-2.961 90,-2.961 1.85,13.735 6.711,26.996 7,41 -23.28,-0.003 -46.747,-2 -70,-3 -19.266,-0.804 -39,0.23 -58,-2.289 -15.7,-2.066 -30.218,-8.711 -46,-10.425 -13.684,-1.621 -27.308,-0.438 -41,-1.375 -5.249,-0.36 -12,0.089 -13,-5.911 m -345,0 c 54.445,-2.338 107.334,-19 162,-19 h 33 c 5.259,0 12.912,-0.46 17.816,1.603 4.484,1.888 7.837,8.708 10.784,12.397 7.385,9.245 16.62,17.375 23.4,27 -25.696,0 -51.351,-1.691 -77,-2 -14.032,-0.163 -28.023,-0.643 -42,-1 -9,-0.204 -18.123,0.776 -27,-0.286 -16.154,-1.932 -31.214,-7.271 -47,-10.826 -12.066,-2.717 -24.697,-2.888 -37,-2.888 -6.741,0 -13.025,1.359 -17,-5 m -410,-43 c 15.409,0 31.844,1.649 47,-1.45 11.98,-2.55 23,-8.294 35,-11.55 6.318,-1.498 13.488,-1.465 20,-2 17.26,-1.093 34.715,0.718 52,-0.039 58.847,-2.577 118,-2.961 177,-2.961 -3.155,13.251 -3,28.399 -4,42 -42.338,0 -84.695,-2.493 -127,-3 -19.018,-0.222 -38.024,-1 -57,-1 -15.427,0 -31.745,0.962 -47,-1.439 -9.282,-1.561 -18.043,-5.171 -27,-7.84 -16.254,-4.843 -33.162,-4.721 -50,-4.721 -6.808,0 -16,1.305 -19,-6 m 394,-1 c 18.852,0 37.499,-1.293 56,-5.211 12.82,-2.789 24.969,-7.474 38,-9.361 20.526,-2.972 41.304,-2.428 62,-2.428 12,0 23.946,-1 36,-1 3.689,0 10.189,-1.231 13.351,1 3.39,2.449 5.072,9.351 6.896,13 4.753,9.68 12.055,18.9 15.753,29 -30.643,-0.633 -61.379,-2.62 -92,-4 -13.578,-0.555 -27.509,0.464 -41,-1.289 -14.194,-1.845 -27,-8.836 -41,-11.45 -12.701,-2.371 -26.131,-1.29 -39,-2.261 -6.339,-0.345 -13.369,1.82 -15,-6 m 351,1 c 17.207,0 36,0.463 53,-2.614 14.577,-2.646 28.27,-9.182 43,-11.097 20.437,-2.655 41.44,-1.428 62,-2.328 13.613,-0.596 27.37,-1.961 41,-1.961 4,-0.002 11.802,-1.459 15.363,1 2.9,2 4.193,6.87 5.433,10 3.825,9.655 8.204,20.6 9.204,31 -28.127,0 -57,1.832 -85,-0.09 -30.279,-2.073 -60.085,-7.91 -90,-12.91 -13.144,-2.093 -26.688,-4.356 -40,-5 -5.7,-0.219 -12.528,0.75 -14,-6 m -767,-43 c 21.361,-1.686 41.963,-7.456 63,-10.571 22.848,-3.429 46.93,-4.429 70,-4.429 11.989,-0.019 24,-2 36,-2 5.841,-0.066 12.459,1.255 17,-3 -25.73,0 -51.339,-2 -77,-3 -28.454,-1.207 -56.033,-2.541 -84,-9 -11.228,-2.425 -22.571,-3.167 -34,-4.086 -5.416,-0.435 -11,-0.263 -13,-5.914 17.741,-1.4 35.459,-2.364 53,-5.804 12.468,-2.445 24.358,-7.297 37,-8.911 33,-4.285 67.6,-4.285 101,-4.285 -6.026,-1.781 -12.75,-1 -19,-1.001 -9.826,-0.047 -20.174,-0.416 -30,-1.089 -23,-1.569 -46.121,-0.91 -69,-3.08 -15.134,-1.441 -30.11,-4.456 -45,-7.43 -12,-2.4 -24,-4.2 -36,-5.685 -5.465,-0.715 -11,0.147 -13,-5.715 8.431,-2.492 18.236,-2.113 27,-3.803 17.583,-3.392 35,-8.314 53,-10.027 18.942,-1.817 38,-1.377 57,-2.209 9.267,-0.406 18.738,-0.416 28,-1.051 8.389,-0.574 17.556,-2.136 25.96,-0.91 9.593,1.717 7.04,16.635 18.04,16.977 10.525,0.332 21.65,-2.182 32,-3.977 22,-3.569 43.858,-8.735 66,-11.718 32.972,-4.441 65.893,-1.282 99,-1.282 -1.756,13.894 -1.445,28.236 -4,42 -19.376,0 -38.672,-2.114 -58,-3 -20.573,-1 -41.541,-0.766 -62,-3.286 -25.054,-3.087 -49.635,-11.714 -75,-11.714 2.966,8.712 7.626,16.801 11.752,25 1.582,3 3.116,8.179 6.461,9.883 3.985,2.029 12.478,0.002 16.787,-0.612 13.81,-1.968 27.393,-4.546 41,-7.621 16.708,-3.775 33.882,-7.388 51,-8.65 22.509,-1.452 45.431,1 68,1 -10e-4,13.387 -2.427,26.65 -3,40 -22.397,0 -44.664,-2 -67,-3 -15.277,-0.63 -30.812,-0.31 -46,-2.289 -11.342,-1.479 -22,-6.321 -33,-8.823 C 1267,386 1258,386 1250,386 c 4.64,11 12.378,21.554 16,33 19.553,-5.495 40,-6.272 60,-8.17 31.572,-3.004 63.262,-5.83 95,-5.83 -1.663,13 -3,26.731 -3,40 -48.109,0 -97.82,-4.267 -145,-14 2.622,5.534 5.381,11 7,17 -21.325,0 -42.745,-2.455 -64,-4 -34.066,-2.243 -67.344,-3.467 -101,-10.2 -12.313,-2.463 -24.548,-4.8 -37,-6.376 -5.542,-0.736 -10.749,0.576 -13,-5.424 m 737,0 c 16,0 33,0.357 49,-2.464 12.887,-2.278 24.953,-8.813 38,-10.366 21.438,-2.552 43.431,-1.656 65,-2.185 23,-0.563 45.924,-1.985 69,-1.985 v -2 c -39.287,0 -78.772,-2.243 -118,-4 -18.092,-0.753 -37.073,1 -55,-1.428 -12.251,-1.755 -23.055,-7.351 -35,-9.903 -14,-2.988 -29.746,-2.669 -44,-2.669 -7,0 -14.555,1.964 -17,-6 17,0 36.183,1.918 53,-1.669 12.86,-2.743 23.631,-10.824 37,-12.16 10,-1.171 20.79,-0.171 31,-0.171 18.82,0 38,-0.214 57,-1.039 15.337,-0.672 30.603,-0.961 46,-0.961 5,-0.008 13,-2.642 17.741,0 6.259,3.635 11.144,13.241 15.259,19 7.763,10.41 14,21.773 20.424,33 5.458,9.661 11.496,20.308 14.576,31 -24.294,0 -48.74,-2 -73,-3 -25,-1.051 -50.197,0.2 -75,-2.17 -14.299,-1.366 -28.131,-5.989 -42,-9.457 -14,-3.471 -26.744,-4.373 -41,-4.373 -5.453,0 -11.588,1.472 -13,-5 m -1637,0 c 30,0 61.445,-6.457 91,-11.414 C 270.439,408 285.328,405 300,405 v -2 c -39.667,0 -77.763,-11.081 -117,-14.83 -9,-0.859 -18,-1.372 -27,-2.336 -5.303,-0.568 -9.758,-0.483 -12,-5.834 26.883,-3.397 53,-10.532 80,-13.715 19.807,-2.344 40,-1.012 60,-2.375 16.468,-1.127 34.432,-3.69 50.896,-2.592 9.022,0.602 7.104,17.141 17.104,17.584 17.804,0.79 36.666,-7.346 54,-10.478 C 430.377,364 455.282,364 480,364 c 16.923,-0.027 34,-1.22 51,-2 9.644,-0.383 19.368,0.57 29,-0.09 8.379,-0.573 16.575,-0.91 25,-0.91 3.199,0 7.776,-0.78 10.61,1 3.39,2.296 5.332,8.377 7.143,12 4.673,9.345 9.835,18.549 14.247,28 -40.013,0 -80.07,-1.212 -120,-3 -19.275,-0.805 -38.791,0.689 -58,-1.17 C 423.894,396.368 409.71,390 394.91,387.255 380,384.454 365,385 350,385 l 8,17 h -13 v 2 c 3.971,0 9.954,-1.116 13.61,0.603 4.598,2.163 7.568,11.787 8.39,16.397 16.823,-4.353 34.802,-6.028 52,-8.289 7,-0.934 13.936,-3.711 21,-4.527 14,-1.699 28.763,-0.6 43,-1.223 23,-1.008 45.932,-1.961 69,-1.962 15.284,-0.073 30.644,-0.999 46,-0.999 5.397,0 13.778,-1.576 18.787,0.603 3.68,1.601 5.213,7.07 6.966,10.397 4.832,9.663 11.247,19.607 14.247,30 -45.294,0 -90.784,-1 -136,-3 -21,-1 -42.034,0.354 -63,-1.09 -13.449,-0.926 -26.097,-6.622 -39,-10.026 C 390.615,428.409 381.645,428 372,428 l 8,17 c -18.383,0 -36.664,-1.536 -55,-2 -37.137,-1 -73.346,-1.743 -110,-8.611 -12,-2.389 -24,-5.004 -36,-6.22 -5.784,-0.58 -11.692,0.113 -14,-6.169 m 1304,-1 c 10.642,-0.088 21.468,-2.402 32,-4 24.365,-3.265 48.581,-7.815 73,-10.715 34.955,-4.285 70.819,-2.285 106,-2.285 0,14.364 4,26.971 6,41 -25.356,0 -50.699,-2 -76,-3 -14.546,-0.598 -29.548,0.489 -44,-1.286 -16.177,-1.987 -31.186,-8.221 -47,-11.714 -12.224,-2.676 -24.549,-2 -37,-2 -6,0 -11.544,0.981 -13,-6 M 641,379 c 16.827,0 35.483,1.834 52,-1.669 12.83,-2.721 23.872,-10.336 37,-12.042 12,-1.573 24.8,-0.794 37,-1.328 17.996,-0.788 36,-2.188 54,-2.961 -6.298,-2 -13.463,-1 -20,-1 -10.24,0 -20.778,-0.39 -31,-1.09 -35.063,-2.401 -69.383,-4.597 -104,-11.51 -11,-2.17 -22,-4.124 -33,-5.231 -6,-0.597 -11.367,0.041 -14,-6.169 29.399,-0.607 57.676,-12 87,-14 14.917,-1 30,0.352 45,-0.015 43.648,-1.069 87.292,-1.469 131,-1.989 22.567,-0.268 45.38,-0.456 68,-1.011 6.359,-0.155 12.598,-0.998 19,-0.985 2.441,0 5.447,-0.352 7.61,1 3.39,2.296 5.332,8.377 7.143,12 4.797,9.595 10.124,19 14.247,29 l -163,1 c 3.771,6.461 6.695,13.352 10,20 3.603,6.809 7.874,13.62 10,21 -21.293,-0.176 -42.727,-2.029 -64,-3 -19.538,-0.816 -39.604,0.479 -59,-2.3 -13.482,-1.932 -25.392,-8.804 -39,-10.415 C 680.818,384.844 668.268,385 656,385 c -6.627,0 -12.717,1.437 -15,-6 m 821,0 c 16,0 32.216,2 48,-1.211 13.803,-2.934 27,-10.91 41,-12.605 5.276,-0.639 10.698,0.009 16,-0.223 l 48,-2 c 32.633,-1.429 65.296,-3.961 98,-3.961 -16.108,11.181 -30.194,22.181 -33,43 -26.388,0 -52.679,-1.808 -79,-3 -16.618,-0.688 -33.499,0 -50,-2.285 -13.256,-1.88 -26,-6.354 -39,-9.049 -11.698,-2.413 -24.073,-3.666 -36,-3.666 -6,0 -11.366,1.207 -14,-5 m 6,-43 c 22,-1.738 44.24,-5.471 66,-9.25 8.29,-1.44 16.635,-3.75 25,-4.58 33.921,-3.556 67.928,-3.35 102,-4.185 39.604,-0.985 79.395,-1.759 119,-0.024 28,1.232 57,-2.549 85,0.754 21,2.49 43.736,0.285 65,0.285 7.641,0 18.792,-2.054 26,0.603 4.754,1.753 8.515,6.912 12,10.397 8.905,8.905 20.998,19.186 26,31 -72.072,0 -144,-5.221 -216,-7 -35.705,-1 -71.382,1 -107,1.985 -26.299,0.645 -52.693,0.015 -79,0.015 -32.212,0 -62.364,-6.482 -94,-11.753 -5.602,-0.933 -11.327,-1.896 -17,-2.247 -5.449,-0.268 -11.634,0.26 -13,-6 m -1339,6 v -6 c 16.881,0 34.461,-0.724 51,-4.425 9.201,-2.059 17.701,-6.624 27,-8.254 8.699,-1.525 17.264,-0.812 26,-1.411 12.923,-0.91 26,-1.91 39,-1.91 10.333,0 20.652,-0.761 31,-1.015 3.774,-0.092 9.186,-2.12 12.61,0.015 3.39,2.275 5.338,8.39 7.143,12 4.797,9.595 10.124,19 14.247,29 -26.019,0 -52.036,-1.824 -78,-3 -16.021,-0.662 -32.054,-0.241 -48,-2.155 C 183.534,351.548 156.866,342 129,342 m 215,-6 c 12,0 23.982,-0.434 36,-1 5.979,-0.222 12,0.582 18,-0.669 12.414,-2.633 23.376,-10.331 36,-12.031 14.581,-2.101 30.267,-1.3 45,-1.3 13.293,-0.005 26.647,-1 40,-1.001 13.187,-0.063 26.782,-0.46 40,-1.038 4.668,-0.205 11,-2.48 15.606,-0.358 3.36,1.598 4.626,7.296 6.15,10.397 4.894,9.954 11.172,20.336 14.244,31 -31.007,0 -62.055,-1.605 -93,-3 -21.147,-1 -43.047,1 -64,-2.134 -12.445,-1.882 -23.678,-8.366 -36,-10.866 -13.598,-2.751 -28.19,-0.516 -42,-1.83 -7.034,-0.67 -12.603,1.302 -16,-6.17 m 878,-37 -1,-5 c 12.737,-2.365 26,-2.545 39,-4.282 31,-4.189 61.749,-9.718 93,-12.548 24.46,-2.328 49.424,-1.17 74,-1.17 v -2 c -24.339,0 -48.749,-1.25 -73,-3 -12,-0.727 -24.129,0.172 -36,-1.286 -15.825,-1.944 -30.441,-8.444 -46,-11.249 -12,-2.137 -24,-2.465 -36,-2.465 -6,0 -11.366,1.207 -14,-5 10,0 19.997,-0.74 30,-1 7.677,-0.173 15.439,0.622 23,-1.015 12.677,-2.743 23.981,-10.417 37,-11.811 13.382,-1.434 27.541,-0.174 41,-0.174 h 81 c 0,20.169 -2.35,40.973 -4.714,61 -0.524,4.433 0.939,15.971 -2.889,18.971 -3.052,2.393 -9.805,0.029 -13.397,0.029 -13.694,-0.159 -27.353,-1 -41,-2 -19.175,-1.224 -39,0.187 -58,-2.289 -14,-1.808 -26.335,-8.938 -40,-11.711 -9.115,-2 -18.742,-1 -28,-1.001 -8.005,-0.038 -16,-0.999 -24,-0.999 m 263,-6 c 29.896,-0.247 59,-11 89,-13 14.562,-1 29.404,0.17 44,-0.004 25.939,-0.308 51.988,-0.996 78,-0.997 38.945,-0.188 78,-1.999 117,-1.999 14.899,0 30,0.928 45,-0.09 12.448,-0.91 27.477,-3.146 39.826,-0.646 5.174,1.079 10.726,5.988 15.348,8.736 13.826,8.436 31.363,19.575 40.826,33 -33.285,0 -66.738,-1.17 -100,-2 -44.346,-1.072 -88.655,0 -133,-1.015 -42.294,-1.036 -84.65,-1.985 -127,-1.985 -28.123,0 -55.368,-7.29 -83,-11.576 -5.297,-0.821 -10.665,-1.735 -16,-2.254 -2.607,-0.254 -6.176,0.348 -8.397,-1.344 C 1485,296.636 1485,294.748 1485,293 m -1356,6 v -6 c 9.306,0 17.971,0 27,-2.427 10.206,-2.926 19.427,-8.253 30,-10.109 4.956,-0.87 10,-0.212 15,-0.554 16.991,-1.163 33.979,-1.204 51,-1.949 9.488,-0.416 19.578,-0.135 29,-1.246 3.995,-0.472 10.77,-2.196 14.363,0.285 3.364,2.376 5.107,8.447 6.884,12 4.657,9.315 8.753,18.784 13.753,28 -20.04,0 -40.005,-1.495 -60,-2 -19.478,-0.463 -39.69,0.338 -59,-2.428 -15.061,-2.158 -29.277,-7.867 -44,-11.572 -7.507,-1.694 -16.373,-3.753 -24,-2 m 218,-5 c 14.649,-4.33 31.876,0.676 47,-1.289 14.869,-1.933 28.28,-9.711 43,-12.246 5.272,-0.949 10.683,-0.19 16,-0.555 16.935,-1.159 34,-1.91 51,-1.91 10.81,-0.017 22.192,-0.349 33,-1.09 4.901,-0.335 11.914,-2.515 16.61,-0.307 3.39,1.617 5.052,7.227 6.637,10.397 4.753,9.611 10.753,19.662 13.753,30 -24.603,-0.068 -49.422,-2 -74,-3 -16.517,-0.684 -33.591,0.729 -50,-1.286 -16.493,-2.026 -31.642,-9.288 -48,-11.96 C 389.622,298.732 375.548,299 363,299 c -6.393,0 -13,1.597 -16,-5 m 251,0 c 5.729,-1.694 12,-1 18,-1 9.569,-0.015 20.555,0 30,-1.439 13.453,-2.118 25.371,-9.923 39,-11.387 6.28,-0.675 12.696,0.063 19,-0.213 17.328,-0.759 34.609,-0.961 52,-0.961 34.642,0 69.318,-0.591 104,-1.004 22.948,-0.273 45.977,-0.996 69,-0.996 4.968,0 10,0.301 15,-0.17 3.663,-0.348 8.225,-1.83 11.786,-0.227 3.698,1.614 4.864,7.073 6.472,10.397 4.716,9.745 10.737,19.569 13.742,30 -56.057,0 -112.015,-2.33 -168,-3 -22.006,-0.258 -44.044,-1 -66,-1 -18.501,0 -37.662,0.92 -56,-1.576 -21.807,-2.969 -43.239,-7.776 -65,-10.997 -7.059,-1.044 -19.659,0.949 -23,-6.427 m 402,0 c 5.725,-1.692 12,-1 18,-1 10.496,0 21.612,0.197 32,-1.3 12.496,-1.802 23.318,-9.7 36,-11.4 13.977,-2.014 28.886,-0.721 43,-1.339 20.301,-0.961 40.685,-2.542 61,-2.961 v -2 c -24.393,0 -48.671,-2 -73,-3 -15.299,-0.631 -30.808,-0.131 -46,-2.285 -14.684,-2.083 -28.553,-7.925 -43,-11.053 -11,-2.349 -22,-1.662 -33,-1.662 -6.532,0 -12.171,1 -16,-5 8,0 15.995,-1 24,-1 8.538,-0.04 17.567,0.865 26,-0.615 16.612,-2.915 32.234,-10.04 49,-12.099 15.907,-1.953 32.973,-0.286 49,-0.286 h 34 c 4,0 10.982,-1.286 14.61,1 2.338,1.52 3.39,4.632 4.637,7 l 7.505,15 c 9.417,18.969 18.591,38 28.248,57 -25.06,0 -50.006,-2 -75,-3 -17.199,-0.714 -35,0.225 -52,-2.439 -13.334,-2.083 -26,-7.561 -39,-10.35 -11.69,-2.504 -23.1,-2.211 -35,-2.211 -6.211,0 -12,1.361 -15,-5 M 129,257 v -8 c 15.902,-2.348 30.818,-9.726 47,-11.714 20.419,-2.507 42.422,-0.286 63,-0.286 h 26 c 3.285,0 8.515,-1 11.363,1 2.908,2 4.355,6.942 5.884,10 4.216,8.432 9.152,16.9 11.753,26 -23.374,0 -46.682,-2 -70,-3 -17.234,-0.715 -35,0 -52,-2.3 -14.75,-2.113 -28.156,-9.81 -43,-11.7 m 222,-6 c 10.393,0 20.665,-0.732 31,-1 7.329,-0.165 14.76,0.58 22,-0.805 14.33,-2.741 27.528,-10.02 42,-11.906 14.246,-1.855 29.635,-0.289 44,-0.289 h 32 c 3.727,0 10,-1.215 13.363,1 2.908,2 4.355,6.942 5.884,10 4.155,8.311 9.18,17 11.753,26 -21,0 -42.056,-2.043 -63,-3 -15.253,-0.629 -31,0 -46,-2.134 -14.764,-2.233 -28.133,-9.987 -43.039,-11.866 -11.352,-1.204 -23.53,0 -34.961,0 -6.447,0 -12.507,1 -15,-6 m 227,0 c 9.371,-2.231 19.453,-2.591 29,-4.25 18.707,-3.25 37,-7.777 56,-9.58 C 684.284,235 706.615,237 728,237 h 127 60 c 5.617,0 17.635,-2.273 22.363,1 2.908,2 4.355,6.942 5.884,10 4.197,8.394 9.148,16.955 11.753,26 -56.71,0 -113.353,-2.322 -170,-3 -22,-0.258 -44.073,-1 -66,-1 -18,0 -36.234,0.993 -54,-1.425 -21.799,-2.968 -43.235,-7.879 -65,-10.996 -7.328,-1.049 -19,1.956 -22,-6.579 m 953,6 -2,-6 c 35,0 70.667,-8.383 105,-14.576 33.194,-5.986 67.243,-9.863 101,-8.424 38.464,1.724 77,9.735 113,23.424 9.883,3.76 19.546,8.096 29,12.823 5.884,2.942 11.74,6.753 18,8.753 -8.357,3.507 -22,1 -31,1 -25.242,0 -50.785,-1 -76,-2 -15.304,-0.631 -30.686,0.361 -46,-0.015 -22.265,-0.545 -44.733,-1.716 -67,-1.985 -15,-0.174 -30.107,0.93 -45,-0.09 -33.266,-2.278 -65.548,-12.91 -99,-12.91"
       style="fill:#020202;fill-opacity:1;fill-rule:nonzero;stroke:none"
       transform="matrix(1.3333333,0,0,-1.3333333,0,2690.6667)" />
  </g>
</svg>
