<?xml version="1.0" standalone="yes"?>
<svg xmlns="http://www.w3.org/2000/svg" width="2200" height="787">
<path style="fill:#040405; stroke:none;" d="M290 43C288.808 56.6667 282.809 69.9483 279.001 83C273.409 102.165 269.245 121.669 264.269 141C261.568 151.491 257.231 163.172 257 174C271.478 167.241 284.983 158.003 299 150.306C305.214 146.893 314.418 143.477 318.011 136.985C321.91 129.939 316.501 119.915 314.341 113C309.226 96.6273 304.092 80.2753 298.667 64C296.421 57.2632 295.008 48.1774 290 43M183 97C193.728 112.29 207.881 124.787 217.547 141C221.372 147.416 225.043 154.05 227.796 161C229.122 164.347 229.825 169.769 232.563 172.258C235.584 175.003 242.122 174.28 246 175C250.187 163.901 252.471 151.576 255.014 140C255.906 135.94 258.641 130.245 257.307 126.089C255.404 120.162 246.043 116.194 241 113.46C223.134 103.774 203.417 97 183 97M100 145C108.832 146.299 117.355 149.564 126 151.661C142.895 155.758 160.001 158.767 177 162.36C191.232 165.369 206.463 169.336 221 170C214.213 145.185 195.219 128.265 181 108C170.865 109.723 161.329 114.564 152 118.691C141.272 123.438 130.465 127.736 120 133.108C113.924 136.227 103.793 139.209 100 145M388 193C373.89 195.115 361.086 210.138 359 224L366 225C370.081 218.008 373.3 210.932 380 206C376.437 212.261 372.266 219.897 371 227L376 228C380.62 220.084 386.388 210.044 388 201C395.721 200.391 403.232 200 411 200C404.966 210.377 398.317 223.484 395 235L401 237C404.529 228.524 408.905 220.413 412.576 212C414.193 208.294 415.8 202.32 419.39 200.028C424.243 196.93 434.397 198 440 198C433.777 214.041 425.453 229.239 418.576 245C416.394 249.999 413.266 260.967 408.606 263.972C403.934 266.986 393.458 265.999 388 266L392 255C389.193 256.03 386.542 257.211 384.39 259.38C382.367 261.418 381.335 264.473 378.787 265.972C376.175 267.509 372.854 266.768 370 267.39C365.099 268.458 357.149 272.41 353.995 276.39C346.478 285.878 345.924 302.554 344.83 314C340.117 363.332 371.772 407.962 410 435.849C462.702 474.295 528.626 490 593 490C646.291 490 698.035 480.232 746 456.247C800.699 428.894 847.786 378.536 844.961 314C844.527 304.091 842.051 294.381 839 285C843.827 285.381 854.822 284.362 858.411 287.742C860.272 289.494 860.571 292.642 861.119 295C862.52 301.028 863.555 306.858 864.169 313C866.706 338.374 864.771 362.62 856.645 387C843.59 426.164 816.853 458.712 782 480.576C771.281 487.3 760.328 493.128 749 498.752C743.995 501.237 736.589 502.838 732.51 506.699C727.431 511.507 724.75 523.483 722.319 530C717.98 541.634 713.957 553.383 709.576 565C706.544 573.044 702.458 581.525 701 590C721.131 590 742.013 592.927 762 595.286C771.013 596.349 784.286 599.794 793 597.095C799.022 595.229 804.66 591.461 810 588.189C823.837 579.712 836.543 569.457 848 558C890.986 515.014 909.022 455.399 913.089 396C914.148 380.539 914.967 364.402 912.561 349C909.986 332.512 906.029 315.101 898.742 300C895.468 293.216 892.128 286.425 888.189 280C886.028 276.475 882.585 272.934 881.273 269C880.266 265.978 880.992 262.153 881 259C893.973 264.67 903.39 277.499 910.996 289C923.14 307.363 932.857 329.042 935.711 351C937.968 368.372 936 385.615 936 403C941.995 401.273 947.356 397.92 953 395.308C956.199 393.828 959.978 392.648 962.142 389.671C966.102 384.223 965.997 373.464 966 367C966.008 346.557 962.339 326.497 953.244 308C943.387 287.954 929.659 269.025 911 256.344C905.915 252.888 900.66 249.848 895 247.427C891.635 245.989 887.239 245.151 884.314 242.914C881.537 240.792 881.636 236.948 880.231 234C878.323 229.994 874.964 226.843 871 224.916C862.144 220.612 851.867 224.206 843.213 220.397C837.722 217.981 834.667 208.285 829.985 204.213C822.248 197.483 811.661 197.763 802 197C802.348 180.122 811.535 147.84 789 140.775C769.924 134.793 743.207 141.382 726 150.258C715.607 155.62 706.062 164.007 694 165.294C684.839 166.271 674.876 161.235 666 159.449C647.919 155.811 628.422 153.466 610 153.015C583.408 152.363 557.28 154.4 531 158.272C520.193 159.864 508.848 165.274 498 165.41C485.354 165.57 473.611 154.888 463 149.32C451.871 143.481 438.362 141.158 426 139.834C418.057 138.984 409.789 138.053 402 140.443C380.412 147.067 387.658 176.42 388 193M324 145C317.038 150.934 308.917 154.941 301 159.424C290.265 165.503 279.694 171.854 269 178C263.304 181.274 250.502 185.796 254.603 194.722C256.266 198.34 262.602 199.202 266 200.333C277.786 204.258 290.016 205.9 302 209C309.359 194.566 313.56 178.249 318.934 163C320.846 157.576 325.232 150.845 324 145M155 242C164.063 232.695 177.846 228.052 189 221.576C200.777 214.737 211.456 205.405 224 200C221.076 192.408 221.947 187.819 223 180C212.578 178.682 202.353 176.658 192 174.985C188.256 174.381 183.867 172.142 180.094 173.607C174.575 175.75 172.009 185.022 169.925 190C166.116 199.099 163.872 208.474 161.42 218C159.372 225.954 156.373 233.92 155 242M556 195C555.069 201.21 551.896 206.366 549.309 212C544.724 221.985 539.968 231.933 535.576 242C533.486 246.788 530.539 256.835 526.301 259.972C524.323 261.436 521.3 260.953 519 261.015C514.303 261.14 509.719 261.987 505 262C506.294 254.743 510.548 247.618 513.742 241C518.213 231.735 522.27 222.267 526.742 213C529.06 208.196 530.82 200.16 535.39 196.988C540.593 193.379 550.012 195 556 195M585 195C583.593 202.892 578.735 210.796 575.258 218C571.111 226.594 567.452 235.435 563.244 244C561.041 248.483 558.951 257.198 554.61 259.972C549.868 263.002 539.491 261 534 261C535.288 253.773 539.504 246.56 542.752 240C547.15 231.119 551.224 222.03 555.306 213C557.454 208.247 559.841 198.935 564.39 196.028C569.132 192.998 579.509 195 585 195M612 196C607.541 212.181 597.935 227.854 590.781 243C588.584 247.651 586.637 256.911 582.351 259.972C578.013 263.071 567.186 261 562 261C566.446 244.743 576.288 229.372 583.139 214C585.378 208.975 587.935 199.237 592.637 196.032C594.796 194.56 597.63 195.439 600 195.714C603.972 196.176 608.007 196 612 196M528 196C523.351 212.145 513.783 227.735 506.77 243C504.486 247.971 502.156 257.782 497.502 260.972C492.673 264.282 480.725 262 475 262C476.52 256.722 479.385 252.021 481.576 247C486.4 235.943 491.461 224.841 496.755 214C499.048 209.306 501.265 200.094 505.638 197.028C510.365 193.713 522.357 196 528 196M641 197C637.246 212.804 627.072 228.112 620.576 243C618.48 247.803 615.718 257.916 611.362 260.972C606.419 264.44 594.808 261.001 589 261C595.473 245.433 603.189 230.326 610.23 215C612.574 209.898 614.869 200.357 619.637 197.028C624.497 193.635 635.346 196.996 641 197M468 197C463.234 213.552 453.485 229.371 446.309 245C444.003 250.021 441.616 259.941 436.725 262.972C432.254 265.744 421.283 264.956 416 265C420.728 248.588 430.892 232.638 437.861 217C440.033 212.128 442.782 201.972 447.39 199.028C451.75 196.242 462.803 197.043 468 197M498 197C493.351 213.262 483.734 228.579 476.861 244C474.693 248.865 472.144 258.956 467.582 261.972C465.231 263.526 461.668 262.995 459 263C454.277 263.01 449.699 263.798 445 264C449.649 247.738 459.266 232.421 466.139 217C468.42 211.882 471.124 201.415 475.699 198.028C477.655 196.58 480.72 197.005 483 197L498 197M670 198C665.737 213.588 656.426 228.269 649.861 243C647.657 247.945 645.096 257.823 640.502 260.972C635.673 264.282 623.725 262 618 262C623.65 246.212 632.314 231.314 639.139 216C641.307 211.135 643.856 201.044 648.418 198.028C653.125 194.916 664.807 196.764 670 198M698 199C693.283 215.381 683.666 231.651 676.258 247C674.01 251.658 672.184 260.054 667.61 262.972C662.51 266.225 652.742 263.016 647 263C648.52 257.722 651.385 253.02 653.576 248C658.398 236.949 663.437 225.82 668.756 215C670.91 210.62 673.202 201.73 677.394 199.028C682.039 196.033 692.915 197.789 698 199M726 200C719.771 222.776 703.523 242.356 697 265C689.565 265 682.388 264.583 675 264C681.091 248.301 689.285 233.38 696.139 218C698.259 213.243 700.937 202.92 705.498 200.067C707.42 198.865 709.916 199.647 712 199.831C716.631 200.241 721.354 200 726 200M752 201C751.306 207.787 747.655 213.91 744.781 220C740.244 229.611 735.675 239.257 731.424 249C729.325 253.813 726.808 262.869 722.363 265.972C717.733 269.205 708.29 266.044 703 266C703.967 260.578 706.916 255.987 709.139 251C713.92 240.271 719.081 229.725 723.861 219C725.902 214.421 728.466 204.955 732.638 202.028C736.873 199.056 746.976 201 752 201M730 268C732.544 257.287 738.958 246.886 743.742 237C749.335 225.44 753.959 213.331 760 202C764.717 202.876 769.221 202.914 773.999 203.005C775.89 203.04 778.681 202.824 779.929 204.603C782.546 208.336 776.387 216.576 774.861 220C769.648 231.698 764.436 243.522 758.752 255C756.911 258.718 755.25 265.675 751.606 267.968C749.06 269.571 745.75 268.43 743 268.17C738.704 267.763 734.312 268 730 268M810 206C805.635 221.958 796.027 236.868 789.424 252C787.327 256.808 784.688 266.875 780.351 269.972C775.704 273.292 764.51 270.001 759 270C760.047 263.922 763.065 258.555 765.626 253C770.237 242.998 775.174 233.087 779.576 223C781.738 218.044 784.511 207.971 789.275 205.028C794.302 201.922 804.418 205.559 810 206M312 288C302.693 284.086 292.956 284.956 284 278.779C276.227 273.418 270.845 264.955 266.003 257C256.251 240.976 249.346 223.598 243 206C240.514 206.492 237.582 206.768 235.649 208.589C233.181 210.913 232.373 214.944 231.189 218C228.009 226.209 225.365 234.485 223.116 243C221.819 247.91 218.48 254.24 222.322 258.7C227.663 264.9 235.953 267.628 243 271.175C264.887 282.193 287.51 288 312 288M253 206C259.062 222.235 264.988 238.229 274.193 253C278.275 259.55 282.568 266.841 289 271.351C312.776 288.021 346.443 269.227 368 257.54C375.766 253.33 384.763 249.341 391 243C378.995 236.942 364.844 234.59 352 230.799C330.133 224.343 308.092 220.472 286 215.255C274.841 212.619 264.109 208.57 253 206M807 274C800.462 272.786 793.629 272.523 787 272C788.446 265.914 791.611 260.672 794.139 255C799.057 243.965 803.997 232.875 809.258 222C811.068 218.26 814.005 207.225 819.105 207.377C824.891 207.548 832.264 216.296 831.255 222C830.091 228.579 825.162 235.984 822.258 242C817.123 252.643 812.97 263.771 807 274M222 211C210.205 218.805 198.425 226.997 186 233.769C179.71 237.198 169.155 240.515 164.703 246.213C159.293 253.136 161.144 264.038 162.05 272C163.447 284.265 168.71 295.664 173.265 307C178.114 319.064 182.43 331.245 188 343C193.498 331.652 194.729 317.242 197.499 305C201.968 285.248 207.173 265.486 212.71 246C214.998 237.948 217.305 229.926 220.003 222C221.241 218.362 223.304 214.76 222 211M859 228C856.857 234.029 850.801 237.801 845 240C845.008 229.429 849.077 228.001 859 228M836 230C839.045 242.756 843.692 269.821 826 274.442C822.016 275.483 817.98 274.503 814 274C820.116 259.093 828.171 245.024 834 230L836 230M842 271C843.382 266.754 845.275 262.457 845.816 258C846.232 254.562 845.24 250.438 846.603 247.184C848.861 241.796 859.298 235.695 863.999 232.304C866.081 230.802 868.846 229.44 870.995 231.608C872.802 233.432 873.288 236.61 873.869 239C874.685 242.357 875.725 246.546 874.397 249.911C873.122 253.138 869.648 255.323 867 257.346C859.933 262.743 850.877 269.417 842 271M154 243L155 244L154 243M876 261C875.796 270.525 869.752 273.089 862 277.265C858.949 278.909 853.91 281.474 850.623 278.836C846.581 275.593 854.964 271.8 857 270.755C859.724 269.357 862.419 267.956 865 266.302C868.675 263.947 871.616 261.64 876 261M923 289L916 277C920.962 276.925 930.72 286.402 923 289M241 277C242.441 282.985 241.26 294.922 246 299C244.778 305.26 246.504 311.711 247 318L261 318C260.928 309.309 259.053 300.516 257.46 292C256.906 289.036 257.114 285.132 255.062 282.699C252.137 279.231 245.222 277.977 241 277M881 290L872 293C871.209 291.123 870.245 289.197 870.332 287.09C870.461 283.933 873.649 281.512 876.671 283.083C879.242 284.418 880.189 287.469 881 290M934 309C931.082 304 928.023 298.737 927 293C935.32 291.617 942.377 304.285 934 309M511 293.289C527.611 291.131 536.477 306.251 544.705 318C548.817 323.872 552.921 335.097 541.999 336.756C527.483 338.961 526.551 314.217 514 312.133C510.67 311.58 506.804 314.302 504 315.781C497.903 318.997 491.847 322.4 486 326.05C481.494 328.863 476.616 332.128 471.019 330.566C462.583 328.212 464.889 318.201 470.105 313.924C480.46 305.432 497.567 295.035 511 293.289M672 293.379C680.148 291.747 686.941 295.224 694 298.753C702.853 303.179 712.142 307.637 719.981 313.76C725.535 318.099 727.719 328.181 718.995 330.566C713.669 332.022 709.255 329.099 705 326.343C699.164 322.565 693.039 319.42 687 316C684.102 314.359 680.493 311.809 677.001 311.963C673.377 312.123 670.927 315.377 668.899 318.004C663.828 324.574 656.812 340.584 646.044 336.257C638.771 333.334 641.12 324.988 644.36 320C651.091 309.636 658.906 296.001 672 293.379M884 294C885.962 297.362 889.942 302.704 889.469 306.787C888.868 311.976 879.069 313.789 875 314C874.687 310.038 871.795 302.135 874.067 298.649C875.915 295.813 880.963 294.831 884 294M943 310C946.098 317.551 951.056 325.058 941 329C939.991 322.261 932.821 312.123 943 310M893 314C895.033 319.271 896.853 324.457 898 330C891.267 333.93 883.877 338.308 876 339C876.949 333.886 874.689 326.75 876.607 322.214C878.585 317.537 888.439 314.813 893 314M722 498C714.94 501.296 708.364 505.247 701 507.947C679.497 515.831 653.855 520.019 631 521C630.989 525.163 630.827 529.083 629.235 533C621.623 551.736 594.28 557.833 577 549.411C566.045 544.071 559.282 533.043 559 521C551.05 520.836 542.881 519.226 535 518.13C516.138 515.508 496.329 511.917 479 503.68C467.138 498.042 456.664 488.02 460 474C422.691 474 389.192 461.909 359 439.989C349.984 433.443 341.553 425.462 334.3 417C330.493 412.559 327.328 405.843 320.996 404.672C314.91 403.546 308.14 411.941 303 414.677C293.329 419.823 280.926 422.718 270 422.985C265.646 423.092 255.395 424.674 253.89 418.896C252.881 415.02 256.925 413.328 260.001 413.059C272.319 411.979 284.44 411.936 296 406.688C300.4 404.69 304.449 402.203 307.996 398.907C314.548 392.818 320.524 383.413 319.775 374C319.384 369.073 316.494 364.275 314.218 360C307.106 346.641 295.092 334.775 281 329.015C245.885 314.661 204.55 338.34 205.455 378C205.789 392.603 209.957 407.376 217.231 420C220.68 425.985 225.527 431.045 228.941 437C237.988 452.781 245.311 468.312 256.374 483C308.225 551.839 399.572 574.424 481 583.174C497.641 584.962 514.19 588.225 531 588.961C547.09 589.665 562.913 586 579 586C594.133 586 608.941 584.699 624 584.039C637.339 583.455 650.727 583.852 664 582.286C671.466 581.405 684.044 583.61 690.49 578.976C692.613 577.45 693.205 574.325 694.003 572C695.727 566.979 697.565 561.972 699.424 557C706.832 537.19 713.134 517.082 722 498M951 330L954 345C951.376 346.714 948.987 348.056 946 349C943.689 341.393 940.5 331.408 951 330M899 335C900.537 339.105 902.794 346.482 901.307 350.815C900.266 353.849 896.624 355.381 894 356.742C887.571 360.075 880.264 364.256 873 365C874.352 359.775 873.506 351.726 876.179 347.214C877.849 344.396 881.22 343.399 884 342.056C889.012 339.634 893.624 336.552 899 335M1016.04 338.786C1008.26 341.431 1008 357.238 1006.74 364C1002.13 388.663 991.57 411.958 981.988 435C952.574 505.737 909.462 574.278 846 618.798C794.721 654.771 731.468 684.182 668 686.961C650.203 687.74 629.484 687.48 614 677.452C605.782 672.13 599.045 663.91 604 654C613.401 635.199 638.093 629.97 657 630C664.904 630.013 677.388 632.279 680.673 640.971C682.125 644.812 677.85 645.776 674.999 645.956C667.244 646.445 656.429 644.469 653.303 654.004C651.005 661.016 656.026 667.686 663 668.786C673.887 670.504 688.44 669.441 696.957 661.787C699.382 659.608 701.296 656.963 702.647 654C712.616 632.142 690.494 612.82 671 608.236C645.218 602.174 613.121 610.933 594.015 629.09C579.632 642.758 573.451 664.892 585.44 682C596.634 697.973 615.425 705.204 634 708.246C668.698 713.929 706.723 707.316 740 696.975C806.863 676.196 870.751 638.053 917.83 586C942.736 558.463 962.76 525.901 979.742 493C989.125 474.82 998.948 456.254 1005.95 437C1012.94 417.75 1017.73 397.041 1021.8 377C1023.82 367.062 1025.6 357.207 1024.96 347C1024.67 342.389 1021.54 336.919 1016.04 338.786M955 351C955 359.252 957.498 368.931 948 372C947.632 363.428 943.74 353.186 955 351M603 373L603 401C603 404.377 602.06 409.612 604.603 412.298C606.802 414.62 611.047 415.399 614 416.279C623.243 419.034 631.15 419.643 639.985 415.004C643.896 412.95 646.58 408.261 651.004 407.337C657.459 405.99 660.247 412.773 658.258 418C656.38 422.934 651.482 425.977 647 428.24C635.739 433.925 623.045 434.017 611 430.844C605.926 429.507 600.265 426.057 595 426.057C590.361 426.057 585.408 428.972 581 430.279C573.306 432.56 564.986 433.718 557 432.572C547.574 431.218 530.787 426.017 531.103 414.001C531.227 409.255 535.236 405.902 539.961 407.607C544.132 409.113 546.955 413.583 551.001 415.622C560.366 420.342 576.091 419.573 584.682 412.914C587.852 410.458 587 405.537 587 402L587 373C581.918 372.238 575.941 370.38 572.894 365.895C570.565 362.467 570.844 357.349 575.109 355.604C581.37 353.042 587.729 359.278 594 359.414C600.442 359.553 605.808 354.826 611.985 355.153C618.001 355.471 619.47 362.381 616.258 366.787C613.364 370.757 607.591 372.312 603 373M902 358C902.864 362.652 904.591 370.352 901.972 374.671C900.133 377.704 896.023 379.23 893 380.752C885.065 384.749 875.933 390.086 867 391C867.723 385.639 869.016 376.607 872.589 372.394C874.881 369.69 878.9 368.684 882 367.219C888.598 364.102 894.968 360.026 902 358M452 359.285C458.683 358.486 468.658 357.714 474.891 360.703C480.562 363.423 478.983 370.721 472.985 371.566C465.218 372.661 457.009 370.812 449 372.004C445.332 372.55 440.717 374.755 437.059 373.382C433.006 371.861 432.037 366.556 435.318 363.728C439.341 360.259 446.96 359.888 452 359.285M721 359.289C730.503 358.035 743.031 358.506 751.956 362.249C757.188 364.444 758.725 372.217 751.981 373.642C749 374.272 745.888 372.848 743 372.31C737.687 371.32 732.396 370.94 727 371.004C723.336 371.047 718.591 372.645 715.109 371.243C711.197 369.668 710.218 364.547 713.434 361.738C715.403 360.019 718.505 359.619 721 359.289M294.228 360.619C299.659 358.374 308.443 366.248 311.254 370.289C313.057 372.883 313.102 376.849 309.772 378.238C304.679 380.362 295.506 372.501 292.746 368.675C290.899 366.115 290.916 361.988 294.228 360.619M282.059 372.708C288.222 370.879 299.924 379.973 303.566 384.3C305.756 386.903 306.743 391.786 302.772 393.377C300.842 394.15 298.741 393.48 297 392.566C292.205 390.049 283.021 384.91 279.747 380.61C277.635 377.837 278.527 373.757 282.059 372.708M955 375C953.964 380.319 953.156 383.601 948 386C947.035 380.178 949.186 376.399 955 375M904 381C903.987 385.777 904.592 394.506 901.972 398.61C899.707 402.158 893.623 403.954 890 405.752C879.071 411.178 866.898 417.181 855 420C856.062 414.043 859.861 403.066 864.498 398.969C869.96 394.144 879.442 392.325 886 389.219C891.926 386.413 897.506 382.239 904 381M468 382.3C471.258 381.836 475.908 381.339 478.89 383.028C482.554 385.102 483.195 389.623 479.768 392.258C476.157 395.034 469.369 394.333 465 395.2C457.79 396.63 450.79 398.415 444 401.284C439.398 403.228 433.161 407.138 428.019 406.667C420.31 405.962 423.333 397.11 428.019 394.532C439.972 387.959 454.586 384.211 468 382.3M712.044 382.434C716.803 381.045 722.294 382.509 727 383.389C738.249 385.492 748.429 388.786 759 393.204C763.136 394.933 771.998 402.84 763.852 406.242C759.823 407.925 754.662 404.887 751 403.397C742.401 399.897 734.129 397.011 725 395.2C720.622 394.331 714.098 395.031 710.279 392.682C705.786 389.919 707.366 383.799 712.044 382.434M268.094 385.452C272.966 384.124 282.478 390.67 285.253 394.379C287.382 397.224 286.436 401.172 282.941 402.353C278.266 403.932 268.275 397.448 265.607 393.787C263.419 390.785 264.296 386.488 268.094 385.452M1908 409C1924.51 410.303 1940.52 415.781 1957 416.91C1965.97 417.525 1975.02 416.646 1984 417.039C2029.27 419.022 2074.72 418.056 2120 420C2111.59 422.486 2101.73 422 2093 422L2053 422C2013.4 422 1973.6 424 1934 424C1916.84 424 1900.85 427.508 1884 430.246C1878.48 431.143 1869.48 430.179 1866 435C1883.92 435.77 1901.1 442.177 1919 442.961C1946.26 444.154 1973.72 442.679 2001 443.004C2046.64 443.547 2092.29 445 2138 445C2131.02 420.774 2107.33 404.988 2084 399.127C2044.8 389.279 2004.37 395.336 1965 400.87C1951.03 402.833 1936.99 404.064 1923 405.715C1917.87 406.319 1911.33 404.378 1908 409M1083 409C1093.01 409 1104.19 408.426 1114 410.518C1120.84 411.976 1127 415.966 1134 416.816C1143.6 417.98 1153.35 417.617 1163 418.039C1177.93 418.693 1193.06 419.959 1208 420L1207 399C1186.63 399 1165.27 397.144 1145 399.171C1134.78 400.193 1125.2 404.461 1115 405.714C1108.44 406.519 1101.6 406 1095 406C1090.34 406 1086.41 405.515 1083 409M1238 407C1240.39 410.686 1243.97 409.784 1248 410.17C1255.71 410.908 1263.4 412.314 1271 413.804C1291.26 417.777 1310.31 420 1331 420C1336.2 420 1346.96 422.045 1351.36 418.972C1356.32 415.511 1359.72 404.477 1362 399C1341.96 399 1320.94 397.177 1301 399.171C1291.15 400.156 1281.75 404.026 1272 405.561C1260.99 407.294 1249.14 407 1238 407M1379 410C1388.4 410 1398.74 408.794 1408 410.465C1415.24 411.77 1421.66 416.305 1429 416.907C1436.95 417.559 1445.03 416.69 1453 417.039C1481.92 418.306 1511.03 419 1540 419L1577 419C1580.94 419 1587.97 420.339 1591.36 417.972C1596.26 414.554 1598.91 404.378 1601 399L1493 399C1472.22 399 1450.56 397.235 1430 400.424C1417.73 402.327 1405.35 404.591 1393 405.831C1388.17 406.315 1381.88 405.537 1379 410M1620 407L1620 409C1630.06 409 1642.18 408.424 1652 410.518C1658.54 411.913 1664.34 415.718 1671 416.699C1675.63 417.381 1680.35 416.771 1685 417.09C1702 418.253 1718.93 419 1736 419C1738.21 412.006 1742.95 406.109 1745 399C1723.95 399 1701.94 397.143 1681 399.17C1670.41 400.194 1660.61 404.804 1650 405.83C1640 406.798 1630.01 405.735 1620 407M1753 409C1762.5 409 1772.57 408.041 1782 409.184C1790.07 410.163 1797.07 415.047 1805 416.532C1810.86 417.63 1817.07 416.869 1823 417.015C1829.35 417.17 1835.61 417.97 1842 418.001C1850.17 418.04 1860.01 421.033 1868 418.436C1876.82 415.571 1883.52 405.261 1891 400C1882.88 396.593 1869.8 399 1861 399C1845.22 399 1828.7 397.6 1813 399.171C1803.48 400.122 1794.45 403.934 1785 405.41C1777.79 406.536 1770.28 405.997 1763 406C1758.92 406.002 1755.53 405.49 1753 409M479.999 403.409C485.577 403.227 489.113 409.309 484.682 413.487C482.396 415.643 478.882 416.107 476 417.029C470.232 418.873 464.221 423.094 458.005 422.898C451.797 422.702 450.708 416.332 455.148 412.649C460.663 408.075 472.822 403.643 479.999 403.409M708.019 403.524C710.63 402.978 713.524 403.98 716 404.721C721.884 406.482 730.072 408.685 734.852 412.649C738.233 415.453 739.108 421.329 733.941 422.678C727.515 424.357 720.797 419.309 715 417.356C712.122 416.386 708.657 415.952 706.148 414.146C701.93 411.11 702.618 404.654 708.019 403.524M902 406C901.383 410.882 902.029 418.518 899.062 422.61C895.513 427.502 886.415 429.96 881 432.061C866.703 437.608 852.349 444.933 837 447C839.29 441.048 845.055 430.831 850.379 427.136C858.05 421.812 869.448 419.67 878 415.769C885.523 412.338 893.721 406.848 902 406M1366 435C1382.94 435.35 1399.15 441.755 1416 442.91C1453.51 445.482 1491.49 441.521 1529 444.09C1540.69 444.89 1552.26 445 1564 445C1568.13 445 1574.98 446.286 1578.61 443.972C1580.95 442.48 1582.06 439.368 1583.25 437C1585.84 431.832 1588.98 426.734 1590 421C1561.36 421 1532.61 422.954 1504 423C1483.62 423.033 1463.32 423.071 1443 423.961C1434.63 424.327 1426.33 423.636 1418 424.718C1405.6 426.329 1393.4 429.537 1381 430.95C1376.1 431.507 1369.05 430.771 1366 435M1607 435C1622.33 435.002 1636.89 440.032 1652 441.83C1661.71 442.986 1671.29 442.424 1681 443.09C1693.65 443.956 1706.29 445 1719 445L1719 447C1687.79 447 1655.77 448.574 1625 453.715C1618.71 454.765 1612.35 456.205 1606 456.83C1601.39 457.284 1597.56 456.61 1595 461C1610.27 461.042 1624.93 465.913 1640 467.715C1652.23 469.178 1664.7 468.501 1677 469.039C1685.66 469.419 1694.34 470.638 1703 470.96C1711.38 471.271 1709.67 465.677 1715.39 462.028C1717.93 460.41 1722.15 460.839 1725 461.184C1732.61 462.107 1739.43 466.438 1747 467.675C1758.84 469.61 1771.1 468.038 1783 469.17C1789.39 469.777 1795.58 469.94 1802 470.004C1804.92 470.033 1808.22 470.672 1811 469.512C1814.09 468.221 1816.52 465.439 1819 463.282C1824.8 458.241 1831.51 453.245 1836 447C1818.3 447 1800.65 448.188 1783 448.961C1773.01 449.398 1762.95 449.108 1753 450.174C1740.95 451.464 1730.31 456.992 1718 457C1719.6 451.137 1723.02 439.451 1728.39 436.028C1731.82 433.842 1737.3 435.298 1741 435.921C1751.34 437.662 1761.55 440.735 1772 441.83C1788.09 443.516 1804.84 443.974 1821 444C1826.62 444.009 1833.62 446.301 1839 444.258C1842.44 442.951 1845.26 439.938 1848 437.575C1853.87 432.507 1860.52 427.346 1865 421C1849.71 421.002 1834.27 422.292 1819 422.961C1805.62 423.547 1792.35 422.83 1779 424.171C1762.28 425.849 1747.08 432 1730 432L1734 421C1701.94 422.377 1669.7 422.232 1638 427.75C1630.65 429.029 1623.38 430.403 1616 431.424C1612.31 431.934 1609.12 431.733 1607 435M1071 435C1091.84 435.002 1112.41 440.087 1133 442.715C1155.06 445.53 1176.78 446 1199 446C1187.86 449.524 1175.53 447.732 1164 448.015C1152.02 448.308 1139.97 449.436 1128 449.961C1115.06 450.527 1102.81 450.481 1090 453.001C1083.08 454.362 1076.02 456.116 1069 456.829C1064.9 457.246 1060.71 456.446 1058 460C1074.3 460.337 1089.88 466.212 1106 467.829C1121.67 469.403 1137.29 468.351 1153 469.039C1172.96 469.913 1193 471 1213 471L1212 461C1226.72 461.01 1240.53 465.913 1255 467.714C1267.31 469.246 1279.75 467.84 1292 469.285C1300.01 470.231 1307.97 469.54 1316 470.09C1319.2 470.309 1323.58 471.951 1326.5 469.971C1328.67 468.498 1329.64 465.249 1330.76 463C1333.35 457.76 1336.38 452.631 1338 447C1325.04 447.036 1311.95 448.394 1299 448.961C1287.73 449.454 1276.23 449.097 1265 450.17C1247.2 451.871 1229.84 456.592 1212 458C1210.49 446.071 1209.01 434.04 1209 422C1187.37 422 1165.56 422.434 1144 423.91C1138.35 424.298 1132.64 423.594 1127 424.286C1118.4 425.342 1110.38 428.365 1102 430.346C1094.97 432.006 1088.17 431.997 1081 432C1077 432.002 1073.33 431.4 1071 435M1224 435C1234.11 435 1245.05 433.819 1255 435.808C1262.26 437.26 1268.71 441.456 1276 442.674C1286.9 444.495 1298.94 443.555 1310 444.039C1316.7 444.333 1323.25 445 1330 445C1332.64 445 1336.15 445.554 1338.61 444.397C1341.04 443.252 1342.11 440.243 1343.25 437.999C1345.85 432.84 1348.98 427.73 1350 422C1328.08 422 1304.72 421.467 1283 424.425C1273.29 425.747 1264.64 430.455 1255 431.711C1248.14 432.604 1240.91 431.997 1234 432C1230 432.002 1226.33 431.4 1224 435M898 430C897.953 435.285 897.253 446.345 893.411 450.301C888.675 455.178 878.225 457.312 872 459.8C851.161 468.129 828.304 475.166 806 478C808.327 473.654 812.586 470.994 816.17 467.675C820.333 463.821 824.088 458.844 829 455.924C835.143 452.271 843.197 450.865 850 448.856C856.776 446.855 863.397 444.087 870 441.576C879.244 438.059 888.366 432.064 898 430M281 432C281.212 442.291 283.713 452.856 285.414 463C286.135 467.303 288.089 472.952 285.257 476.852C281.339 482.247 274.34 479.606 272.558 473.995C270.324 466.963 269.961 459.258 268.866 452C267.855 445.299 266.141 438.821 266 432L281 432M180 493C176.395 490.466 172.591 488.39 168.001 489.282C159.585 490.918 157.536 500.293 161.279 507C167.641 518.403 184.136 521.999 193.907 512.811C200.939 506.198 203.607 496.311 204.532 487C206.393 468.275 190.84 449.565 173 445.529C164.185 443.534 154.091 445.656 146 449.313C121.888 460.213 112.964 489.438 114.039 514C115.2 540.514 128.674 563.703 145.001 584C171.955 617.508 205.872 645.033 240 670.87C254.813 682.085 269.878 692.18 286 701.421C290.733 704.135 299.821 711.174 303.821 703.938C307.397 697.468 301.516 693.109 297 689.576C285.636 680.685 274.286 671.794 263 662.801C246.706 649.817 231.432 636.132 216 622.17C202.576 610.024 188.963 598.48 176.831 585C163.291 569.955 149.294 554.026 141.604 535C133.997 516.179 133.828 485.928 152.015 472.638C162.635 464.877 177.802 468.049 181.032 482C181.9 485.746 180.936 489.373 180 493M1354 459C1362.04 462.863 1373.24 462.807 1382 464.884C1389.86 466.747 1397.95 469.024 1406 469.829C1419.42 471.171 1433.51 470 1447 470L1511 470L1549 470C1553.87 470 1561.25 471.369 1565.79 469.397C1568.38 468.27 1569.57 465.376 1570.74 462.999C1573.31 457.778 1575.76 452.37 1578 447C1531.35 447 1484.56 447.922 1438 449.961C1428.02 450.398 1417.96 449.407 1408 450.09C1395.58 450.94 1383.21 453.9 1371 456.196C1365.31 457.266 1359.55 457.244 1354 459M1839 460C1854.42 461.949 1869.56 466.355 1885 467.83C1897.2 468.996 1909.75 467.715 1922 468.015C1947.96 468.651 1973.97 469 2000 469C2047.97 469 2096 471 2144 471C2143.93 462.713 2141.09 455.124 2140 447C2065.64 447 1991.31 450 1917 450C1909.08 450 1900.89 449.419 1893 450.17C1881.53 451.261 1870.37 453.949 1859 455.704C1853.31 456.581 1842.67 455.173 1839 460M892 457C891.419 462.825 889.574 473.178 885.351 477.49C883.221 479.666 879.776 480.536 877 481.576C870.721 483.927 864.332 486.098 858 488.305C828.665 498.528 795.052 505 764 505C766.204 501.117 770.166 499.643 774 497.537C779.11 494.73 784.074 491.616 789 488.499C799.599 481.792 814.051 482.248 826 478.989C840.844 474.94 855.505 470.471 870 465.308C877.354 462.688 884.401 458.805 892 457M1818 486C1827.4 486 1837.73 484.797 1847 486.465C1855.87 488.06 1864 492.86 1873 493.826C1887.76 495.412 1903.15 494.389 1918 495.039C1928.07 495.48 1940.03 498.066 1950 495.686C1955.57 494.357 1960.36 488.9 1965 485.746C1973.14 480.219 1982.14 476.197 1991 472C1987.47 470.623 1983.74 471.894 1980 471.985C1971.67 472.189 1963.3 472.959 1955 472.999C1934.97 473.096 1914.95 473.544 1895 474.91C1888.68 475.344 1882.3 474.526 1876 475.428C1868.25 476.538 1861.49 479.596 1854 481.522C1845.84 483.619 1837.35 482.999 1829 483C1824.79 483 1820.48 482.171 1818 486M1708 472C1700.48 474.223 1691.8 472.824 1684 473.015C1669.08 473.38 1653.9 474.069 1639 475.09C1620.18 476.378 1601.9 482.948 1583 483L1583 486C1602.18 486.824 1621.08 491.941 1640 494.728C1653.73 496.751 1667.15 497 1681 497L1681 499C1652.19 499 1623.29 500.635 1595 506.335C1588.43 507.659 1574.17 505.518 1570 511C1597.84 512.196 1625.28 519.182 1653 521.83C1670.48 523.501 1687.55 522 1705 522L1736 522C1740.65 522 1746.55 522.944 1751 521.411C1754.85 520.087 1757.98 516.726 1761 514.13C1766.9 509.056 1772.64 503.463 1779 499C1771.84 495.996 1760.74 498 1753 498L1697 498C1698.13 495.312 1699.35 491.529 1702.21 490.201C1705.26 488.79 1709.9 490.804 1713 491.389C1721.63 493.017 1730.27 494 1739 494.83C1748.49 495.734 1758.46 496 1768 496C1772.06 496 1777.12 496.784 1781 495.4C1784.81 494.042 1788 490.588 1791 488C1796.79 483.008 1803.35 478.075 1808 472C1798.28 472 1788.7 473 1779 473C1767.46 473 1755.49 472.077 1744 473.17C1731.25 474.383 1718.68 477.964 1706 479C1707.37 476.552 1708.47 474.764 1708 472M1045 486C1062.01 486.011 1078.11 492.752 1095 493.91C1104.96 494.593 1115.02 493.603 1125 494.039C1154.64 495.337 1184.36 495.727 1214 497L1214 487C1225.73 487.097 1236.56 491.529 1248 493.536C1261.23 495.858 1276.56 495.978 1290 496C1294.65 496.007 1299.38 495.74 1304 496.285C1307.04 496.643 1310.81 497.755 1313.61 495.972C1315.95 494.486 1317.06 491.366 1318.25 489C1320.91 483.692 1323.24 478.261 1326 473C1308.98 473 1291.95 473.749 1275 474.91C1267.24 475.442 1259.73 474.991 1252 476.285C1245.19 477.425 1238.68 479.865 1232 481.525C1227.6 482.617 1217.31 485.361 1214.18 480.682C1212.73 478.519 1213.02 475.471 1213 473C1183.98 473 1154.95 473.693 1126 474.961C1111.24 475.607 1096.58 474.73 1082 477.884C1073.4 479.746 1064.71 481.029 1056 482.271C1051.9 482.856 1047.4 482.304 1045 486M1342 484L1342 486C1351.96 486 1362.2 485.391 1372 487.517C1379.11 489.058 1385.75 492.936 1393 493.816C1412.82 496.219 1433.1 495.43 1453 497C1444.74 499.441 1435.51 498.281 1427 499.285C1404.68 501.92 1382.33 504.172 1360 506.845C1352.67 507.723 1345.34 508.116 1338 508.83C1334.2 509.2 1331.22 508.578 1329 512C1349.21 512.167 1368.94 518.529 1389 519.911C1398.96 520.597 1409.02 519.603 1419 520.039C1453.98 521.571 1488.91 522 1524 522L1524 524C1489.63 524 1455.31 525.145 1421 525.985C1403.03 526.426 1384.89 525.46 1367 527.17C1357.21 528.105 1347.64 530.734 1338 532.54C1330.73 533.903 1323.08 533.848 1316 536C1324.86 539.72 1337.41 536.46 1347 538.379C1353.26 539.632 1358.65 543.614 1365 544.674C1371.84 545.816 1379.09 544.737 1386 545.039C1399.68 545.638 1413.26 546 1427 546C1457.93 546 1488.99 547 1520 547L1520 549C1495.06 549 1469.93 550.7 1445 550.996C1415.44 551.348 1385.39 549.688 1356 552.834C1343.54 554.168 1331.42 557.339 1319 558.845C1314.2 559.427 1306.81 558.672 1304 563C1313.52 563 1324.74 561.378 1334 563.761C1342.08 565.841 1348.5 572.209 1357 572.907C1368.85 573.879 1381.11 573 1393 573L1462 573L1501 573C1505.16 573 1512.8 574.46 1516.36 571.972C1521.84 568.147 1524.44 556.834 1527.26 551C1535.8 533.337 1545.47 516.123 1553 498L1456 498C1460.5 490.286 1465.52 481.596 1468 473C1444.33 473 1419.51 473.296 1396 476.184C1388.43 477.114 1381.51 481.184 1374 482.535C1363.92 484.349 1352.26 483.559 1342 484M2009 484L2009 486C2017.07 485.978 2024.93 484.189 2033 485.615C2043.19 487.416 2052.73 492.723 2063 493.826C2070.59 494.642 2078.38 493.705 2086 494.039C2105.36 494.887 2124.57 496 2144 496L2144 473C2132.62 473 2121.31 473.862 2110 473.996C2096.36 474.158 2082.55 473.623 2069 475.286C2059.45 476.459 2050.41 479.841 2041 481.535C2030.81 483.37 2019.35 483.993 2009 484M883 485C881.562 491.054 878.486 500.317 873.775 504.581C870.879 507.203 866.624 508.149 863 509.33C855.159 511.886 847.065 514.105 839 515.804C820.421 519.718 802.004 523.609 783 524.911C767.477 525.974 751.561 525 736 525C736.861 521.846 737.75 517.991 739.843 515.394C746.553 507.062 760.892 510.789 770 509.715C792.586 507.05 814.887 504.95 837 499.116C852.19 495.108 867.556 487.281 883 485M1033 509L1033 511C1054.93 511.06 1076.13 519.003 1098 519.961C1124.33 521.114 1150.72 521.111 1177 522.911C1186.28 523.546 1195.89 521.831 1205 524C1197.93 526.394 1190.33 527.103 1183 528.424C1169.7 530.822 1156.52 533 1143 533L1146 523C1137.82 524.947 1129.32 523.52 1121 524.089C1097.49 525.7 1074.32 526.189 1051 530.08C1043.65 531.307 1036.4 532.822 1029 533.714C1025.23 534.169 1022.2 533.611 1020 537C1035.94 537.044 1051.26 542.781 1067 544.714C1079.87 546.294 1093.11 544.884 1106 546.576C1111.98 547.361 1118 546.679 1124 547.089C1127.13 547.304 1130.85 548.658 1133.79 546.968C1136.89 545.179 1138.07 541.204 1139 538C1174.33 547.951 1211.61 548 1248 548L1275 548C1278.69 548 1284.19 549.004 1287.61 547.397C1290.04 546.252 1291.11 543.243 1292.25 540.999C1295.04 535.472 1298.28 529.964 1300 524L1216 523L1216 513C1236.4 515.634 1256.55 518.224 1277 520.17C1283.24 520.764 1294.8 524.124 1300.61 521.397C1303.04 520.253 1304.11 517.243 1305.25 514.999C1308.04 509.472 1311.28 503.964 1313 498C1290.53 500.84 1267.55 498.916 1245 501.171C1234.71 502.2 1225.12 506.505 1215 508C1215 505.374 1215.75 500.888 1213.4 499.028C1210.44 496.685 1203.44 497.972 1200 498.424C1190.8 499.633 1181.27 499 1172 499C1151.69 499 1131.27 500.073 1111 500.961C1103.03 501.31 1094.95 500.413 1087 501.17C1068.92 502.892 1051 506.725 1033 509M2008 509L2008 511C2018.17 511.007 2030.03 510.827 2040 512.808C2049.25 514.647 2057.51 518.579 2067 519.714C2077.91 521.02 2089.08 518.997 2100 520.286C2108.65 521.307 2117.37 520.442 2126 521.576C2129.24 522.002 2135.46 523.192 2138.26 520.972C2140.17 519.454 2140.35 516.208 2140.8 514C2141.88 508.648 2142.95 503.476 2143 498C2129.04 498.009 2114.94 499.35 2101 499.961C2090 500.442 2078.96 500 2068 501.174C2059.09 502.128 2050.81 506.174 2042 507.561C2031.11 509.275 2019.03 509 2008 509M591 545C590.284 541.211 587.109 534.647 588.403 531.044C590.581 524.977 600.15 524.894 602.2 531.094C603.481 534.967 600.05 540.717 600 545C620.174 543.35 630.645 522.651 615.815 507.093C609.063 500.01 601.297 498.771 592 499.015C576.402 499.423 561.739 518.003 569.453 532.999C573.492 540.851 582.61 544.617 591 545M1803 509C1805.7 512.544 1809.9 511.773 1814 512.17C1823.4 513.079 1832.66 514.788 1842 516.131C1863.24 519.187 1883.48 522 1905 522C1911.52 522 1921.75 523.937 1927.82 521.397C1930.57 520.242 1932.28 517.22 1934.09 514.999C1938.43 509.691 1943.21 504.725 1947 499C1917.53 499 1887.31 498.238 1858 501.171C1849.07 502.064 1840.74 505.764 1832 507.55C1822.43 509.507 1812.72 509 1803 509M869 514C866.148 520.526 861.016 529.857 854.826 533.721C851.66 535.698 847.574 536.07 844 536.88C836.653 538.547 829.455 540.229 822 541.286C810.376 542.934 798.735 545.107 787 545.911C767.721 547.231 748.216 545.397 729 545C729.612 540.916 731.494 531.535 736.225 530.357C739.214 529.613 742.938 530.91 746 530.985C753.317 531.165 760.681 531.083 768 530.996C785.488 530.788 803.821 528.139 821 524.905C831.337 522.959 841.881 520.457 852 517.573C857.489 516.008 863.267 513.149 869 514M1558 535L1558 537C1566.93 536.816 1575.07 535.406 1584 537.286C1592.75 539.128 1601.04 544.183 1610 544.907C1633.12 546.774 1656.79 545.728 1680 546.004C1704.6 546.297 1729.4 547.492 1754 548C1753 540.057 1752.01 532.016 1752 524C1717.29 524 1682.62 524.444 1648 525.961C1639.02 526.354 1629.97 525.475 1621 526.089C1609.79 526.858 1599.94 531.839 1589 533.561C1578.82 535.163 1568.27 533.702 1558 535M1793 535L1793 537C1810.49 537 1826.07 541.691 1843 544.905C1856.69 547.504 1871.1 548 1885 548L1906 548C1908.52 547.999 1912.14 548.575 1914.3 546.972C1916.58 545.288 1917.54 541.441 1918.76 539C1921.32 533.889 1924.58 529.172 1927 524C1908.98 524 1890.95 524.681 1873 525.911C1863.98 526.528 1855.01 526.078 1846 527.184C1838.43 528.114 1831.51 532.184 1824 533.536C1814.33 535.275 1802.84 534.999 1793 535M2003 537C2013.34 537 2023.8 536.356 2034 538.261C2042.76 539.897 2051.12 543.875 2060 544.826C2083.18 547.309 2106.88 545.078 2130 548C2132.32 539.896 2136.09 532.266 2138 524C2118.8 524 2099.15 522.778 2080 524.089C2065.24 525.1 2050.62 528.617 2036 530.729C2028.64 531.793 2021.42 533.112 2014 533.83C2009.9 534.227 2005.7 533.456 2003 537M848 541C844.829 548.489 835.692 558.234 828 561.262C822.589 563.391 815.72 563.144 810 564.08C786.117 567.989 760.046 566.672 736 564.91C731.254 564.562 726.799 563.1 722 563C722.975 559.427 724.401 551.151 728.278 549.693C733.072 547.889 741.945 550.349 747 550.83C755.872 551.675 765.09 551 774 551C799.176 551 823.401 545.771 848 541M1544 561C1551 565.195 1562.92 564.784 1571 566.4C1587.91 569.782 1603.92 569.92 1621 571.089C1632.67 571.888 1644.28 573 1656 573L1656 575C1631.28 575 1605.55 575.379 1581 578.286C1564.26 580.267 1547.91 585.274 1531 586L1531 588C1554.36 588 1575.91 596.329 1599 597.911C1608.96 598.593 1619.02 597.603 1629 598.039C1633.79 598.249 1639.13 600.005 1643.9 598.682C1649.44 597.141 1648.8 588.731 1655.04 588.573C1672.64 588.127 1690.72 595.058 1708 597.725C1724.28 600.239 1740.62 598 1757 598L1756 575C1742.64 575 1729.3 575.999 1716 576.911C1706.78 577.542 1697.15 576.982 1688 578.3C1676.22 579.997 1666.21 584.999 1654 585C1655.5 579.808 1659.3 567.797 1664.39 565.198C1666.63 564.058 1669.71 565.148 1672 565.6C1677.28 566.644 1682.64 567.427 1688 567.925C1710.21 569.991 1732.65 572.998 1755 573L1754 550C1724.84 550 1695.67 552.441 1667 558C1668.39 554.658 1670 551.484 1671 548C1660.35 548.007 1649.61 549.184 1639 549.911C1613.84 551.633 1589.83 552.974 1565 557.996C1558.11 559.39 1550.69 559.021 1544 561M1985 560L1985 562C1995.01 562.001 2006.21 562.178 2016 564.364C2023.81 566.107 2030.95 569.665 2039 570.711C2047.48 571.813 2056.46 570.96 2065 571.001C2071.69 571.033 2078.28 572 2085 572C2092.39 572 2099.63 572.998 2107 573C2109.95 573.001 2113.99 573.643 2116.61 571.972C2118.95 570.48 2120.06 567.369 2121.25 565C2123.91 559.711 2126.72 554.464 2129 549C2114.03 549 2098.95 550.306 2084 550.961C2069.33 551.603 2054.63 550.754 2040 552.17C2028.75 553.258 2018.13 557.822 2007 559.561C1999.84 560.679 1992.23 560 1985 560M1007 561C1014.37 564.178 1024.08 563.468 1032 564.754C1050.11 567.691 1068.65 572.212 1087 573L1087 575C1055.94 575 1025.94 585 995 585L995 588C1010.91 588.328 1026.19 594.32 1042 595.83C1056.06 597.173 1070.88 597.64 1085 597.985C1093.05 598.183 1101.04 597.523 1109 599C1110.89 595.771 1112.53 590.83 1116.1 589.117C1119.3 587.588 1124.66 589.023 1128 589.615C1137.41 591.281 1146.53 594.215 1156 595.572C1168.48 597.36 1181.41 596.706 1194 597.015C1207.32 597.341 1220.61 597.999 1234 598C1240.72 598 1247.29 598.998 1254 599C1256.64 599.001 1260.15 599.554 1262.61 598.397C1265.04 597.252 1266.11 594.243 1267.25 591.999C1270.04 586.472 1273.28 580.964 1275 575C1250.98 575 1226.96 575.911 1203 576.961C1190.96 577.488 1179.01 576.969 1167 578.171C1158.4 579.031 1150.4 582.574 1142 584.335C1133.38 586.142 1124.76 586 1116 586L1121 575L1113 575C1115.94 573.896 1119.99 573.578 1122.36 571.411C1125.21 568.811 1125.6 564.434 1130.04 563.894C1134.29 563.378 1138.85 564.869 1143 565.565C1152.29 567.122 1161.65 569.826 1171 570.826C1177.29 571.5 1183.69 570.657 1190 571.089C1206.96 572.251 1223.97 573 1241 573L1266 573C1269.06 573 1273.71 573.827 1276.36 571.972C1278.54 570.452 1279.61 567.28 1280.75 565C1283.24 560.034 1285.61 555.017 1288 550C1269.31 550 1250.62 550.775 1232 550.996C1210.97 551.246 1189.96 550.554 1169 552.09C1155.24 553.099 1143.13 559.991 1129 560C1130.39 556.657 1132 553.485 1133 550C1099.44 550 1066.06 550.611 1033 556.576C1024.47 558.115 1015.24 558.394 1007 561M1786 560L1786 563C1806.54 563.424 1826.66 569.655 1847 571.834C1867.83 574.065 1889.06 573 1910 573C1910.34 565.089 1911.85 557.592 1914 550C1890.51 550 1866.36 549.834 1843 552.171C1832.7 553.2 1823.13 557.594 1813 559.385C1804.27 560.927 1794.84 560 1786 560M818 568C814.869 574.406 807.004 577.965 801 581.421C797.56 583.401 793.945 585.799 790 586.606C786.642 587.292 783.347 586.319 780 586.089C772.934 585.605 766.037 585.109 759 584.13C744.967 582.179 730.171 581 716 581C716.437 576.024 718.413 571.69 720 567C752.973 571.167 784.95 572.181 818 568M1291 587C1294.96 588.663 1299.74 587.993 1304 588C1309.61 588.009 1315.45 588.475 1321 589.301C1328.31 590.391 1334.65 594.921 1342 595.816C1360.58 598.077 1379.47 596.659 1398 599C1387.57 602.169 1376.7 600.357 1366 601.089C1346.42 602.43 1327.38 604.312 1308 607.565C1301.67 608.627 1295.37 609.922 1289 610.715C1285.18 611.191 1281.48 610.74 1279 614C1295.6 614.046 1311.45 620.776 1328 621.911C1363.17 624.321 1398.77 621.497 1434 623.039C1447.68 623.638 1461.26 624 1475 624C1479.36 624 1486.79 625.407 1490.61 622.972C1492.95 621.48 1494.06 618.368 1495.25 616C1497.91 610.712 1500.73 605.464 1503 600L1406 600C1409.43 591.751 1415.42 583.85 1417 575C1404.37 575.105 1391.62 576.408 1379 576.961C1367.82 577.45 1356.08 576.704 1345 578.3C1337.4 579.396 1330.57 583.344 1323 584.56C1312.63 586.227 1301.08 584.021 1291 587M1782 586L1782 588C1791.64 588 1801.51 587.289 1811 589.286C1818.45 590.854 1825.43 594.885 1833 595.816C1850.26 597.936 1867.67 597.28 1885 598.039C1898.98 598.652 1912.99 600 1927 600C1922.71 595.168 1917.59 591.824 1914.35 586C1912.7 583.039 1911.97 577.162 1908.7 575.603C1906.24 574.434 1902.64 574.988 1900 575.001C1892.98 575.034 1886.05 576 1879 576C1864.08 576 1847.77 576.19 1833 578.3C1822.17 579.847 1811.84 584.155 1801 585.7C1794.81 586.582 1788.24 586 1782 586M1956 586L1956 588C1966.46 588 1977.73 587.172 1988 589.529C1994.56 591.035 2000.17 595.084 2007 595.826C2024.51 597.729 2042.41 596.269 2060 597.039C2069.03 597.435 2077.92 598 2087 598C2090.54 598 2095.38 598.826 2098.7 597.397C2101.42 596.227 2103.16 593.268 2104.87 590.999C2108.66 585.984 2112.76 580.905 2115 575C2091.26 575 2067.67 575.924 2044 576.961C2032.7 577.455 2021.24 576.835 2010 578.184C2002.38 579.099 1995.53 583.18 1988 584.536C1978 586.336 1966.18 586 1956 586M353 584.594C348.215 584.769 343.485 585.334 339 587.069C319.071 594.775 315.509 616.575 321.52 635C331.243 664.802 360.839 688.633 386 705.333C438.179 739.964 501.825 761.613 564 767.829C602.087 771.638 641.265 768.636 679 763.286C703.798 759.77 728.561 756.501 753 750.881C782.013 744.21 810.387 735.976 838 724.799C845.213 721.88 852.316 718.385 859 714.396C861.773 712.741 865.445 710.96 866.928 707.911C868.898 703.863 865.493 702.061 861.985 702.768C854.248 704.33 846.637 707.108 839 709.116C807.954 717.279 776.403 723.767 745 730.286C695.402 740.58 645.778 749 595 749C585.087 749 574.881 749.701 565 748.907C560.264 748.526 555.729 746.745 551 746.156C507.745 740.768 465.941 726.72 427 707.247C401.094 694.292 376.294 677.725 356.95 655.999C348.224 646.199 338.614 634.608 337.174 621C335.726 607.326 346.595 601.258 359 603.326C373.094 605.675 388.696 616.393 395.446 629C397.124 632.133 400.554 642.681 395.566 644.694C392.87 645.782 389.921 642.584 388.285 640.907C384.507 637.032 380.22 631.506 374.005 633.757C365.057 636.997 367.732 646.409 372.329 652C383.6 665.706 405.585 671.129 415.16 652C421.136 640.063 417.16 624.127 409.475 614C396.47 596.864 375.021 583.79 353 584.594M1519 614C1537.33 614.012 1554.72 621.16 1573 621.961C1586.32 622.544 1599.69 622.688 1613 623.015C1618.91 623.16 1624.97 624.858 1630.91 623.852C1635.64 623.049 1636.09 618.251 1639.39 615.603C1641.29 614.08 1643.67 614.025 1646 614.008C1663.78 613.886 1681.47 620.356 1699 622.718C1719.45 625.472 1739.44 624 1760 624C1759 616.089 1758.02 607.981 1758 600C1745.97 600 1734 601.435 1722 601.961C1708.62 602.547 1695.31 602.495 1682 604.289C1668.28 606.136 1654.89 610.404 1641 611L1645 600C1613.07 601.371 1580.48 600.705 1549 607C1542 608.4 1535.07 609.621 1528 610.576C1524.27 611.08 1521.16 610.666 1519 614M1785 612L1785 614C1802.41 614.359 1819.85 618.889 1837 621.561C1846.46 623.034 1856.45 623.257 1866 623.911C1914.5 627.232 1963.46 624 2012 624L2055 624C2060.99 624 2069.33 625.486 2075 623.397C2078.22 622.211 2080.64 619.357 2083 616.999C2088.01 611.999 2094 606.451 2097 600C2059.93 600 2023 603.079 1986 603.985C1964.16 604.52 1941.82 604.916 1920 603.961C1894.98 602.865 1869.06 601.373 1844 603.089C1824.28 604.44 1804.64 609.518 1785 612M982 611L982 614C993.149 614 1004.02 613.973 1015 616.286C1021.47 617.649 1027.4 620.757 1034 621.7C1045.07 623.281 1057.81 622.978 1069 623C1075.37 623.013 1081.62 624.002 1088 624C1090.58 623.999 1094.11 624.542 1096.36 622.972C1098.54 621.453 1099.61 618.28 1100.75 616C1103.24 611.04 1105.87 606.122 1108 601C1084.22 601 1059.61 600.462 1036 603.286C1017.81 605.46 1000.43 611 982 611M1115 611L1115 614C1124.8 614 1135.36 612.88 1145 614.808C1152.91 616.389 1159.92 620.958 1168 621.826C1174.94 622.572 1182.04 621.734 1189 622.039C1210.01 622.959 1230.93 624 1252 624C1254.33 615.922 1259.67 609.078 1262 601C1248.96 601 1235.97 601.842 1223 601.996C1206.09 602.197 1188.81 601.373 1172 603.174C1163.64 604.069 1156.19 608.351 1148 609.905C1137.25 611.945 1125.9 611 1115 611M969 637L969 639C979.244 639 989.948 638.134 1000 640.525C1006.18 641.994 1011.7 645.592 1018 646.675C1028.66 648.507 1039.32 647.154 1050 648.17C1057.69 648.902 1065.31 648.563 1073 649.089C1076.13 649.304 1079.85 650.658 1082.79 648.968C1085.29 647.524 1086.51 644.457 1087.75 642C1090.39 636.797 1093.38 631.616 1095 626C1071.06 626 1045.72 625.873 1022 629.3C1013.45 630.536 1005.47 634.308 997 635.905C987.807 637.638 978.316 637 969 637M1116 637L1116 639C1126.56 639 1137.58 638.514 1148 640.468C1154.91 641.762 1160.99 645.954 1168 646.816C1179.66 648.249 1191.36 647.062 1203 648.17C1211.02 648.933 1218.98 648.54 1227 649.089C1230.31 649.316 1234.56 650.9 1237.61 648.971C1239.95 647.493 1241.06 644.361 1242.25 642C1244.91 636.711 1247.73 631.464 1250 626C1235.05 626.01 1219.93 627.307 1205 627.961C1194.35 628.427 1183.6 628.034 1173 629.174C1164.78 630.057 1157.15 634.097 1149 635.536C1138.74 637.349 1126.44 636.993 1116 637M1266 637L1266 639C1275.39 639.001 1286.84 638.565 1296 640.518C1304.64 642.361 1312.02 646.961 1321 647.83C1335.42 649.225 1350.52 648 1365 648C1384.72 648 1404.31 649 1424 649L1463 649C1467.04 649 1474.23 650.85 1477.79 648.933C1480.31 647.575 1481.53 644.418 1482.75 642C1485.4 636.772 1487.78 631.418 1490 626C1456.3 626 1422.64 627.161 1389 627.985C1365.72 628.556 1342.22 627.498 1319 629.089C1301.15 630.313 1283.95 636.63 1266 637M1506 637L1506 639C1515.75 639 1527.51 638.384 1537 640.529C1543.22 641.933 1548.63 646.02 1555 646.815C1576.08 649.448 1597.8 648.327 1619 650C1611.63 652.76 1603.75 651.988 1596 652C1586.81 652.015 1577.18 652.461 1568 653.089C1559.71 653.657 1551.16 653.781 1543 655.45C1532.56 657.584 1522.68 661.525 1512 662.71C1506.16 663.357 1499.92 662 1494 662L1494 665C1503.48 665 1513.65 663.962 1523 665.615C1532.49 667.292 1541.41 671.799 1551 672.826C1560.48 673.842 1570.46 673 1580 673L1600 673C1602.82 673 1606.91 673.688 1609.36 671.972C1613.57 669.032 1616 660.555 1618 656C1622.51 645.783 1628.7 636.337 1633 626C1617.95 626 1603 627.304 1588 627.961C1578.14 628.392 1567.76 627.906 1558 629.3C1549.8 630.471 1542.11 633.984 1534 635.539C1524.72 637.319 1515.4 637 1506 637M1637 638C1645.98 641.804 1658.32 640.635 1668 642.247C1698.85 647.387 1728.73 650 1760 650C1752.63 652.76 1744.75 651.988 1737 652C1727.81 652.015 1718.18 652.461 1709 653.089C1701.37 653.612 1693.48 653.991 1686 655.665C1677.95 657.466 1670.23 660.642 1662 661.711C1654.5 662.686 1646.56 662 1639 662L1639 665C1648.49 665 1658.66 663.952 1668 665.808C1676.2 667.438 1683.64 671.928 1692 672.826C1715.12 675.311 1739.73 673 1763 673C1763 657.254 1760.01 641.701 1760 626C1744.29 626 1728.64 626.839 1713 627.911C1705.05 628.455 1696.88 628.011 1689 629.326C1681.78 630.529 1675.22 634.472 1668 635.674C1657.75 637.383 1646.81 633.861 1637 638M1795 637L1795 639C1811.55 640.306 1827.47 645.779 1844 646.911C1871.86 648.818 1900.05 648 1928 648C1948.67 648 1969.28 649 1990 649C1998.62 649 2007.4 648.501 2016 649.089C2023.7 649.617 2032.32 651.333 2040 649.606C2044.07 648.692 2047.61 645.957 2051 643.656C2058.38 638.639 2066.79 633.336 2072 626C2023.63 626 1975.3 626.802 1927 627.985C1900.37 628.638 1873.57 627.268 1847 629.089C1829.48 630.29 1812.58 636.245 1795 637M1253 664C1259.42 666.881 1268.04 666.851 1275 668.084C1291.01 670.92 1305.69 673 1322 673L1422 673L1454 673C1457.67 673 1463.37 674.039 1466.61 671.972C1471.98 668.549 1475.4 656.863 1477 651C1457.58 654.605 1435.73 651.999 1416 652C1388.07 652.002 1359.93 654 1332 654C1313.41 654 1296.28 656.172 1278 659.247C1269.9 660.61 1260.56 660.808 1253 664M956 663C959.737 664.568 963.986 663.916 968 664.015C973.537 664.15 979.567 664.728 985 665.808C994.13 667.622 1002.69 671.501 1012 672.711C1024 674.27 1036.9 673 1049 673C1054.9 673 1066.52 675.219 1071.61 671.972C1076.61 668.784 1080.42 657.495 1082 652C1059.62 652 1036.21 651.557 1014 654.286C1004 655.516 994.956 660.142 985 661.572C975.507 662.935 965.22 660.275 956 663M1118 665C1126.88 665 1136.18 664.203 1145 665.286C1154.75 666.483 1163.43 670.844 1173 672.536C1181.34 674.011 1190.55 673 1199 673L1218 673C1220.68 672.999 1224.22 673.517 1226.58 671.972C1231.62 668.682 1234.75 657.411 1237 652C1216.72 652 1195.08 651.432 1175 654.3C1165.4 655.672 1156.61 660.192 1147 661.572C1140.45 662.513 1133.61 661.986 1127 662C1123.21 662.008 1120.17 661.652 1118 665M1822 663C1827.63 665.995 1834.79 665.54 1841 666.286C1851.06 667.492 1861.01 669.425 1871 671.08C1911.18 677.736 1950.01 681.616 1990 671.116C2006.31 666.833 2020.57 659.422 2036 653C2029.81 650.401 2020.69 652 2014 652C1997.96 652 1981.98 651.816 1966 652.911C1937.45 654.866 1908.56 652.133 1880 654.089C1866.77 654.995 1854.02 658.08 1841 660.385C1834.75 661.492 1828.06 661.209 1822 663z"/>
</svg>
