<?xml version="1.0" encoding="UTF-8" standalone="no"?>
<!-- Created with Inkscape (http://www.inkscape.org/) -->

<svg
   version="1.1"
   id="svg1"
   width="3700"
   height="787"
   viewBox="0 0 3700 787"
   sodipodi:docname="neko_cat_side.svg"
   inkscape:version="1.4.2 (f4327f4, 2025-05-13)"
   xmlns:inkscape="http://www.inkscape.org/namespaces/inkscape"
   xmlns:sodipodi="http://sodipodi.sourceforge.net/DTD/sodipodi-0.dtd"
   xmlns="http://www.w3.org/2000/svg"
   xmlns:svg="http://www.w3.org/2000/svg">
  <defs
     id="defs1" />
  <sodipodi:namedview
     id="namedview1"
     pagecolor="#ffffff"
     bordercolor="#000000"
     borderopacity="0.25"
     inkscape:showpageshadow="2"
     inkscape:pageopacity="0.0"
     inkscape:pagecheckerboard="0"
     inkscape:deskcolor="#d1d1d1"
     inkscape:zoom="0.48"
     inkscape:cx="1850"
     inkscape:cy="680.20833"
     inkscape:window-width="1920"
     inkscape:window-height="1177"
     inkscape:window-x="-8"
     inkscape:window-y="-8"
     inkscape:window-maximized="1"
     inkscape:current-layer="g1">
    <inkscape:page
       x="0"
       y="0"
       inkscape:label="1"
       id="page1"
       width="3700"
       height="787"
       margin="0"
       bleed="0" />
  </sodipodi:namedview>
  <g
     id="g1"
     inkscape:groupmode="layer"
     inkscape:label="1">
    <path
       id="path1"
       d="m 203.582,3.676 c -0.894,10.25 -5.394,20.211 -8.25,30 -4.195,14.375 -7.316,29.004 -11.047,43.5 -2.027,7.867 -5.281,16.629 -5.453,24.75 10.859,-5.071 20.988,-11.996 31.5,-17.77 4.66,-2.558 11.563,-5.121 14.258,-9.992 2.926,-5.285 -1.133,-12.801 -2.754,-17.988 -3.836,-12.278 -7.684,-24.543 -11.754,-36.75 -1.684,-5.051 -2.746,-11.867 -6.5,-15.75 m -80.25,40.5 c 8.047,11.469 18.66,20.84 25.91,33 2.867,4.812 5.621,9.789 7.688,15 0.992,2.512 1.519,6.578 3.574,8.445 2.266,2.059 7.168,1.516 10.078,2.055 3.141,-8.324 4.852,-17.567 6.762,-26.25 0.668,-3.043 2.718,-7.317 1.718,-10.434 -1.429,-4.445 -8.449,-7.422 -12.23,-9.472 -13.398,-7.262 -28.187,-12.344 -43.5,-12.344 m -62.25,36 c 6.625,0.976 13.016,3.422 19.5,4.996 12.672,3.074 25.5,5.328 38.25,8.023 10.672,2.258 22.098,5.235 33,5.731 -5.09,-18.61 -19.336,-31.301 -30,-46.5 -7.602,1.293 -14.754,4.922 -21.75,8.019 -8.047,3.559 -16.152,6.782 -24,10.813 -4.559,2.34 -12.156,4.574 -15,8.918 m 216,36 c -10.582,1.586 -20.187,12.855 -21.75,23.25 l 5.25,0.75 c 3.059,-5.242 5.477,-10.551 10.5,-14.25 -2.672,4.695 -5.801,10.422 -6.75,15.75 l 3.75,0.75 c 3.465,-5.938 7.789,-13.465 9,-20.25 5.789,-0.457 11.422,-0.75 17.25,-0.75 -4.527,7.785 -9.512,17.613 -12,26.25 l 4.5,1.5 c 2.645,-6.356 5.93,-12.442 8.684,-18.75 1.211,-2.778 2.418,-7.258 5.109,-8.977 3.641,-2.324 11.254,-1.523 15.457,-1.523 -4.668,12.031 -10.91,23.429 -16.066,35.25 -1.637,3.75 -3.985,11.976 -7.481,14.23 -3.504,2.258 -11.359,1.52 -15.453,1.52 l 3,-8.25 c -2.105,0.773 -4.094,1.66 -5.707,3.285 -1.52,1.527 -2.293,3.82 -4.203,4.945 -1.957,1.153 -4.449,0.598 -6.59,1.063 -3.676,0.801 -9.637,3.765 -12.004,6.75 -5.637,7.117 -6.055,19.625 -6.875,28.207 -3.535,37 20.207,70.472 48.879,91.386 39.527,28.836 88.969,40.614 137.25,40.614 39.969,0 78.777,-7.324 114.75,-25.313 41.023,-20.515 76.34,-58.285 74.219,-106.687 -0.324,-7.43 -2.18,-14.715 -4.469,-21.75 3.621,0.285 11.867,-0.477 14.559,2.058 1.394,1.313 1.621,3.672 2.031,5.442 1.051,4.523 1.824,8.894 2.285,13.5 1.902,19.031 0.453,37.215 -5.641,55.5 -9.793,29.375 -29.843,53.785 -55.984,70.183 -8.039,5.043 -16.254,9.414 -24.75,13.633 -3.754,1.863 -9.309,3.063 -12.367,5.957 -3.809,3.606 -5.82,12.59 -7.645,17.477 -3.254,8.726 -6.269,17.539 -9.554,26.25 -2.278,6.035 -5.34,12.394 -6.434,18.75 15.098,0 30.758,2.195 45.75,3.965 6.758,0.797 16.715,3.382 23.25,1.355 4.516,-1.398 8.746,-4.223 12.75,-6.68 10.379,-6.355 19.906,-14.046 28.5,-22.64 32.238,-32.238 45.766,-76.949 48.816,-121.5 0.793,-11.594 1.411,-23.699 -0.394,-35.25 -1.934,-12.367 -4.902,-25.422 -10.367,-36.75 -2.453,-5.086 -4.961,-10.18 -7.914,-15 -1.621,-2.645 -4.203,-5.301 -5.188,-8.25 -0.754,-2.266 -0.211,-5.133 -0.203,-7.5 9.73,4.254 16.793,13.875 22.496,22.5 9.11,13.773 16.395,30.031 18.535,46.5 1.696,13.031 0.219,25.961 0.219,39 4.496,-1.293 8.516,-3.809 12.75,-5.77 2.398,-1.109 5.234,-1.992 6.856,-4.226 2.968,-4.086 2.89,-12.157 2.894,-17.004 0.004,-15.332 -2.746,-30.375 -9.566,-44.25 -7.395,-15.035 -17.692,-29.231 -31.684,-38.742 -3.812,-2.59 -7.754,-4.872 -12,-6.688 -2.523,-1.078 -5.82,-1.707 -8.016,-3.383 -2.082,-1.593 -2.007,-4.476 -3.062,-6.687 -1.43,-3.004 -3.949,-5.367 -6.922,-6.813 -6.641,-3.226 -14.352,-0.531 -20.84,-3.39 -4.117,-1.813 -6.41,-9.082 -9.922,-12.137 -5.8,-5.047 -13.742,-4.836 -20.988,-5.41 0.262,-12.656 7.152,-36.871 -9.75,-42.168 -14.309,-4.488 -34.344,0.453 -47.25,7.113 -7.797,4.02 -14.953,10.309 -24,11.277 -6.871,0.731 -14.344,-3.046 -21,-4.386 -13.562,-2.727 -28.184,-4.485 -42,-4.824 -19.945,-0.489 -39.539,1.039 -59.25,3.941 -8.105,1.195 -16.613,5.254 -24.75,5.355 -9.484,0.121 -18.293,-7.89 -26.25,-12.066 -8.348,-4.383 -18.48,-6.125 -27.75,-7.117 -5.957,-0.637 -12.16,-1.336 -18,0.457 -16.191,4.969 -10.758,26.984 -10.5,39.418 m -48,-36 c -5.223,4.449 -11.312,7.457 -17.25,10.82 -8.051,4.559 -15.98,9.32 -24,13.93 -4.273,2.457 -13.875,5.847 -10.797,12.543 1.246,2.711 5.996,3.359 8.547,4.207 8.84,2.945 18.012,4.176 27,6.5 5.52,-10.824 8.668,-23.063 12.699,-34.5 1.434,-4.067 4.723,-9.117 3.801,-13.5 m -126.75,72.75 c 6.797,-6.977 17.133,-10.461 25.5,-15.317 8.832,-5.129 16.84,-12.129 26.25,-16.183 -2.191,-5.696 -1.539,-9.137 -0.75,-15 -7.816,-0.988 -15.484,-2.508 -23.25,-3.762 -2.809,-0.453 -6.102,-2.133 -8.93,-1.031 -4.14,1.605 -6.062,8.558 -7.625,12.293 -2.859,6.824 -4.543,13.855 -6.379,21 -1.539,5.965 -3.785,11.941 -4.816,18 m 300.75,-35.25 c -0.699,4.656 -3.078,8.523 -5.02,12.75 -3.437,7.488 -7.003,14.949 -10.296,22.5 -1.571,3.59 -3.782,11.125 -6.957,13.48 -1.485,1.098 -3.75,0.735 -5.477,0.782 -3.523,0.093 -6.961,0.73 -10.5,0.738 0.969,-5.442 4.16,-10.785 6.555,-15.75 3.355,-6.949 6.398,-14.051 9.75,-21 1.738,-3.602 3.058,-9.629 6.488,-12.008 3.902,-2.707 10.965,-1.492 15.457,-1.492 m 21.75,0 c -1.055,5.918 -4.699,11.847 -7.309,17.25 -3.109,6.445 -5.851,13.078 -9.007,19.5 -1.653,3.363 -3.219,9.898 -6.477,11.98 -3.555,2.274 -11.34,0.77 -15.457,0.77 0.965,-5.418 4.129,-10.828 6.563,-15.75 3.3,-6.66 6.355,-13.477 9.417,-20.25 1.61,-3.563 3.399,-10.547 6.813,-12.727 3.555,-2.273 11.34,-0.773 15.457,-0.773 m 20.25,0.75 c -3.344,12.136 -10.551,23.89 -15.914,35.25 -1.648,3.488 -3.109,10.433 -6.324,12.73 -3.254,2.324 -11.371,0.77 -15.262,0.77 3.336,-12.192 10.715,-23.719 15.856,-35.25 1.675,-3.77 3.593,-11.071 7.121,-13.477 1.621,-1.101 3.746,-0.445 5.523,-0.238 2.98,0.348 6.004,0.215 9,0.215 m -63,0 c -3.488,12.109 -10.664,23.801 -15.922,35.25 -1.715,3.73 -3.461,11.086 -6.953,13.48 -3.621,2.481 -12.582,0.77 -16.875,0.77 1.141,-3.957 3.289,-7.485 4.934,-11.25 3.617,-8.293 7.41,-16.617 11.382,-24.75 1.719,-3.52 3.383,-10.43 6.661,-12.727 3.546,-2.488 12.539,-0.773 16.773,-0.773 m 84.75,0.75 c -2.816,11.855 -10.445,23.336 -15.316,34.5 -1.575,3.601 -3.645,11.187 -6.914,13.48 -3.707,2.602 -12.414,0.02 -16.77,0.02 4.856,-11.676 10.641,-23.004 15.922,-34.5 1.758,-3.824 3.48,-10.981 7.055,-13.477 3.644,-2.547 11.781,-0.027 16.023,-0.023 m -129.75,0 c -3.574,12.414 -10.887,24.277 -16.27,36 -1.73,3.765 -3.519,11.207 -7.187,13.48 -3.352,2.078 -11.582,1.489 -15.543,1.52 3.547,-12.309 11.168,-24.27 16.395,-36 1.628,-3.653 3.691,-11.27 7.148,-13.477 3.27,-2.09 11.559,-1.492 15.457,-1.523 m 22.5,0 c -3.488,12.195 -10.699,23.683 -15.855,35.25 -1.625,3.648 -3.536,11.219 -6.957,13.48 -1.766,1.164 -4.438,0.766 -6.438,0.77 -3.543,0.008 -6.977,0.597 -10.5,0.75 3.488,-12.196 10.699,-23.684 15.856,-35.25 1.71,-3.84 3.738,-11.688 7.167,-14.227 1.469,-1.086 3.766,-0.769 5.477,-0.773 h 11.25 m 129,0.75 c -3.199,11.691 -10.18,22.703 -15.105,33.75 -1.653,3.711 -3.575,11.117 -7.02,13.48 -3.621,2.481 -12.582,0.77 -16.875,0.77 4.238,-11.84 10.734,-23.016 15.856,-34.5 1.624,-3.649 3.535,-11.215 6.957,-13.477 3.531,-2.336 12.293,-0.949 16.187,-0.023 m 21,0.75 c -3.539,12.285 -10.75,24.488 -16.309,36 -1.683,3.492 -3.054,9.793 -6.484,11.98 -3.824,2.438 -11.152,0.032 -15.457,0.02 1.141,-3.957 3.289,-7.485 4.934,-11.25 3.613,-8.289 7.394,-16.633 11.382,-24.75 1.618,-3.285 3.336,-9.953 6.481,-11.977 3.48,-2.25 11.641,-0.929 15.453,-0.023 m 21,0.75 c -4.672,17.082 -16.859,31.765 -21.75,48.75 -5.578,0 -10.961,-0.313 -16.5,-0.75 4.566,-11.774 10.715,-22.965 15.856,-34.5 1.589,-3.567 3.597,-11.309 7.019,-13.449 1.441,-0.903 3.313,-0.317 4.875,-0.176 3.473,0.304 7.016,0.125 10.5,0.125 m 19.5,0.75 c -0.52,5.09 -3.258,9.683 -5.414,14.25 -3.402,7.207 -6.828,14.441 -10.02,21.75 -1.574,3.609 -3.46,10.402 -6.793,12.73 -3.472,2.426 -10.554,0.055 -14.523,0.02 0.727,-4.067 2.938,-7.508 4.606,-11.25 3.585,-8.047 7.453,-15.957 11.039,-24 1.531,-3.434 3.453,-10.531 6.582,-12.727 3.179,-2.23 10.753,-0.773 14.523,-0.773 m -16.5,50.25 c 1.906,-8.035 6.719,-15.836 10.305,-23.25 4.195,-8.668 7.664,-17.75 12.195,-26.25 3.539,0.656 6.914,0.687 10.5,0.754 1.418,0.027 3.512,-0.137 4.445,1.199 1.965,2.801 -2.656,8.98 -3.8,11.547 -3.911,8.773 -7.817,17.64 -12.082,26.25 -1.379,2.789 -2.625,8.008 -5.36,9.726 -1.91,1.203 -4.39,0.348 -6.453,0.153 -3.223,-0.305 -6.516,-0.129 -9.75,-0.129 m 60,-46.5 c -3.273,11.969 -10.48,23.152 -15.434,34.5 -1.57,3.605 -3.55,11.156 -6.804,13.48 -3.485,2.489 -11.879,0.02 -16.012,0.02 0.785,-4.559 3.047,-8.582 4.969,-12.75 3.457,-7.5 7.16,-14.934 10.465,-22.5 1.621,-3.715 3.699,-11.27 7.273,-13.477 3.77,-2.332 11.356,0.395 15.543,0.727 m -373.5,61.5 c -6.98,-2.934 -14.285,-2.281 -21,-6.914 -5.832,-4.024 -9.867,-10.367 -13.5,-16.336 -7.312,-12.016 -12.492,-25.051 -17.25,-38.25 -1.863,0.371 -4.062,0.578 -5.512,1.941 -1.851,1.742 -2.457,4.766 -3.347,7.059 -2.383,6.156 -4.368,12.363 -6.055,18.75 -0.973,3.683 -3.477,8.429 -0.594,11.777 4.004,4.649 10.223,6.695 15.508,9.356 16.414,8.261 33.383,12.617 51.75,12.617 m -44.25,-61.5 c 4.547,12.176 8.992,24.172 15.895,35.25 3.062,4.914 6.281,10.383 11.105,13.765 17.832,12.5 43.082,-1.593 59.25,-10.359 5.824,-3.156 12.57,-6.148 17.25,-10.906 -9.004,-4.543 -19.617,-6.309 -29.25,-9.149 -16.402,-4.843 -32.93,-7.746 -49.5,-11.66 -8.371,-1.976 -16.418,-5.012 -24.75,-6.941 m 415.5,51 c -4.902,-0.91 -10.027,-1.106 -15,-1.5 1.086,-4.563 3.457,-8.496 5.356,-12.75 3.687,-8.278 7.39,-16.594 11.335,-24.75 1.36,-2.805 3.563,-11.082 7.387,-10.965 4.34,0.125 9.871,6.687 9.113,10.965 -0.875,4.933 -4.57,10.488 -6.75,15 -3.847,7.984 -6.964,16.328 -11.441,24 m -438.75,-47.25 c -8.848,5.855 -17.68,12 -27,17.078 -4.719,2.57 -12.633,5.058 -15.973,9.332 -4.058,5.191 -2.668,13.367 -1.988,19.34 1.047,9.199 4.992,17.75 8.41,26.25 3.637,9.047 6.871,18.183 11.051,27 4.125,-8.512 5.047,-19.317 7.125,-28.5 3.352,-14.813 7.254,-29.637 11.406,-44.25 1.719,-6.039 3.446,-12.055 5.469,-18 0.93,-2.727 2.477,-5.43 1.5,-8.25 m 477.75,12.75 c -1.609,4.523 -6.148,7.351 -10.5,9 0.004,-7.926 3.059,-9 10.5,-9 m -17.25,1.5 c 2.285,9.566 5.77,29.867 -7.5,33.332 -2.988,0.781 -6.016,0.047 -9,-0.332 4.586,-11.18 10.629,-21.731 15,-33 h 1.5 m 4.5,30.75 c 1.035,-3.184 2.457,-6.406 2.863,-9.75 0.309,-2.578 -0.433,-5.672 0.59,-8.114 1.692,-4.039 9.52,-8.613 13.047,-11.156 1.559,-1.129 3.633,-2.148 5.246,-0.523 1.356,1.367 1.719,3.75 2.156,5.543 0.61,2.519 1.391,5.66 0.395,8.183 -0.957,2.422 -3.563,4.059 -5.547,5.579 -5.301,4.046 -12.094,9.05 -18.75,10.238 m -516,-21 0.75,0.75 -0.75,-0.75 m 541.5,13.5 c -0.152,7.144 -4.687,9.066 -10.5,12.199 -2.289,1.234 -6.066,3.156 -8.531,1.18 -3.035,-2.434 3.254,-5.278 4.781,-6.063 2.043,-1.047 4.063,-2.097 6,-3.34 2.758,-1.765 4.961,-3.496 8.25,-3.976 m 35.25,21 -5.25,-9 c 3.723,-0.055 11.039,7.051 5.25,9 m -511.5,-9 c 1.082,4.488 0.195,13.441 3.75,16.5 -0.918,4.695 0.379,9.535 0.75,14.25 h 10.5 c -0.055,-6.52 -1.461,-13.114 -2.656,-19.5 -0.414,-2.223 -0.258,-5.153 -1.797,-6.977 -2.195,-2.601 -7.379,-3.539 -10.547,-4.273 m 480,9.75 -6.75,2.25 c -0.594,-1.406 -1.316,-2.852 -1.25,-4.434 0.094,-2.367 2.488,-4.183 4.754,-3.004 1.926,1 2.637,3.289 3.246,5.188 m 39.75,14.25 c -2.187,-3.75 -4.484,-7.696 -5.25,-12 6.238,-1.035 11.531,8.465 5.25,12 m -317.25,-11.781 c 12.457,-1.622 19.106,9.718 25.277,18.531 3.086,4.406 6.164,12.824 -2.027,14.066 -10.887,1.656 -11.586,-16.902 -21,-18.465 -2.496,-0.414 -5.398,1.625 -7.5,2.735 -4.574,2.414 -9.113,4.965 -13.5,7.703 -3.379,2.109 -7.039,4.558 -11.234,3.387 -6.328,-1.766 -4.598,-9.274 -0.688,-12.481 7.766,-6.371 20.598,-14.168 30.672,-15.476 m 120.75,0.066 c 6.109,-1.223 11.207,1.383 16.5,4.031 6.641,3.32 13.606,6.66 19.484,11.254 4.168,3.254 5.805,10.816 -0.738,12.606 -3.996,1.089 -7.305,-1.102 -10.496,-3.168 -4.379,-2.832 -8.973,-5.192 -13.5,-7.758 -2.176,-1.231 -4.879,-3.145 -7.5,-3.028 -2.719,0.122 -4.555,2.563 -6.074,4.532 -3.805,4.925 -9.067,16.933 -17.145,13.687 -5.453,-2.191 -3.691,-8.449 -1.261,-12.191 5.046,-7.774 10.91,-18 20.73,-19.965 m 159,0.465 c 1.473,2.523 4.457,6.527 4.102,9.59 -0.45,3.894 -7.801,5.254 -10.852,5.41 -0.234,-2.973 -2.402,-8.899 -0.699,-11.512 1.387,-2.129 5.172,-2.863 7.449,-3.488 m 44.25,12 c 2.324,5.664 6.043,11.293 -1.5,14.25 -0.758,-5.055 -6.133,-12.656 1.5,-14.25 m -37.5,3 c 1.523,3.953 2.891,7.844 3.75,12 -5.051,2.949 -10.594,6.23 -16.5,6.75 0.711,-3.836 -0.984,-9.188 0.453,-12.59 1.485,-3.508 8.875,-5.551 12.297,-6.16 m -128.25,138 c -5.297,2.472 -10.227,5.437 -15.75,7.461 -16.129,5.914 -35.359,9.054 -52.5,9.789 -0.008,3.121 -0.129,6.062 -1.324,9 -5.707,14.051 -26.215,18.625 -39.176,12.308 -8.215,-4.004 -13.289,-12.277 -13.5,-21.308 -5.961,-0.121 -12.09,-1.328 -18,-2.153 -14.148,-1.964 -29.004,-4.66 -42,-10.835 -8.898,-4.231 -16.754,-11.747 -14.25,-22.262 -27.98,0 -53.105,-9.067 -75.75,-25.508 -6.762,-4.91 -13.086,-10.895 -18.523,-17.242 -2.856,-3.332 -5.231,-8.367 -9.981,-9.246 -4.562,-0.844 -9.64,5.453 -13.496,7.504 -7.254,3.859 -16.555,6.031 -24.75,6.23 -3.266,0.082 -10.953,1.27 -12.082,-3.066 -0.758,-2.907 2.277,-4.176 4.582,-4.379 9.238,-0.809 18.328,-0.84 27,-4.778 3.301,-1.496 6.336,-3.363 8.996,-5.836 4.914,-4.566 9.399,-11.621 8.836,-18.679 -0.293,-3.696 -2.461,-7.293 -4.168,-10.5 -5.336,-10.02 -14.344,-18.918 -24.914,-23.238 -26.336,-10.766 -57.336,6.992 -56.66,36.738 0.25,10.953 3.379,22.031 8.832,31.5 2.586,4.488 6.223,8.285 8.785,12.75 6.785,11.836 12.277,23.484 20.574,34.5 38.887,51.629 107.399,68.57 168.469,75.133 12.48,1.339 24.891,3.785 37.5,4.339 12.066,0.528 23.934,-2.222 36,-2.222 11.348,0 22.457,-0.977 33.75,-1.469 10.004,-0.437 20.043,-0.141 30,-1.316 5.598,-0.661 15.031,0.992 19.867,-2.481 1.594,-1.144 2.035,-3.488 2.633,-5.234 1.293,-3.766 2.672,-7.52 4.066,-11.25 5.559,-14.856 10.286,-29.938 16.934,-44.25 m 171.75,-126 2.25,11.25 c -1.969,1.285 -3.762,2.293 -6,3 -1.734,-5.703 -4.125,-13.196 3.75,-14.25 m -39,3.75 c 1.152,3.078 2.844,8.613 1.73,11.863 -0.781,2.273 -3.511,3.422 -5.48,4.445 -4.82,2.5 -10.301,5.633 -15.75,6.192 1.012,-3.918 0.379,-9.953 2.383,-13.34 1.254,-2.113 3.781,-2.859 5.867,-3.867 3.758,-1.817 7.219,-4.129 11.25,-5.293 m 87.781,2.84 c -5.836,1.984 -6.031,13.839 -6.976,18.91 -3.457,18.496 -11.379,35.969 -18.563,53.25 -22.062,53.054 -54.394,104.461 -101.992,137.847 -38.461,26.981 -85.898,49.039 -133.5,51.125 -13.348,0.582 -28.887,0.387 -40.5,-7.132 -6.164,-3.993 -11.215,-10.157 -7.5,-17.59 7.051,-14.102 25.57,-18.024 39.75,-18 5.926,0.012 15.289,1.711 17.754,8.23 1.09,2.879 -2.117,3.602 -4.254,3.739 -5.816,0.367 -13.93,-1.118 -16.273,6.035 -1.723,5.258 2.043,10.261 7.273,11.086 8.164,1.289 19.078,0.492 25.469,-5.25 1.816,-1.633 3.254,-3.618 4.265,-5.84 7.477,-16.395 -9.113,-30.883 -23.734,-34.324 -19.336,-4.543 -43.41,2.023 -57.738,15.64 -10.789,10.254 -15.422,26.852 -6.434,39.684 8.399,11.98 22.492,17.402 36.422,19.683 26.023,4.266 54.543,-0.695 79.5,-8.453 50.148,-15.582 98.063,-44.191 133.371,-83.23 18.68,-20.653 33.699,-45.074 46.434,-69.75 7.039,-13.633 14.406,-27.559 19.656,-42 5.242,-14.438 8.836,-29.969 11.891,-45 1.511,-7.453 2.847,-14.844 2.367,-22.5 -0.215,-3.457 -2.563,-7.559 -6.688,-6.16 m -45.781,9.16 c 0,6.191 1.875,13.449 -5.25,15.75 -0.277,-6.43 -3.195,-14.11 5.25,-15.75 m -264,16.5 v 21 c 0,2.535 -0.707,6.461 1.203,8.472 1.649,1.743 4.832,2.329 7.047,2.989 6.934,2.066 12.863,2.523 19.488,-0.957 2.934,-1.539 4.946,-5.059 8.266,-5.75 4.84,-1.012 6.93,4.078 5.437,7.996 -1.406,3.699 -5.082,5.984 -8.441,7.679 -8.445,4.266 -17.965,4.333 -27,1.954 -3.805,-1.004 -8.051,-3.59 -12,-3.59 -3.48,0 -7.195,2.187 -10.5,3.168 -5.77,1.711 -12.012,2.578 -18,1.718 -7.07,-1.015 -19.66,-4.917 -19.422,-13.929 0.09,-3.559 3.098,-6.074 6.641,-4.793 3.129,1.129 5.246,4.48 8.281,6.012 7.023,3.539 18.816,2.96 25.262,-2.032 2.375,-1.843 1.738,-5.535 1.738,-8.187 v -21.75 c -3.812,-0.571 -8.293,-1.965 -10.578,-5.328 -1.75,-2.571 -1.539,-6.41 1.66,-7.719 4.695,-1.922 9.465,2.758 14.168,2.859 4.832,0.102 8.856,-3.441 13.488,-3.195 4.512,0.238 5.614,5.418 3.203,8.723 -2.168,2.976 -6.5,4.144 -9.941,4.66 m 224.25,-11.25 c 0.648,3.488 1.941,9.265 -0.02,12.504 -1.382,2.273 -4.464,3.418 -6.73,4.562 -5.953,2.996 -12.801,7 -19.5,7.684 0.543,-4.02 1.512,-10.793 4.191,-13.953 1.719,-2.028 4.735,-2.785 7.059,-3.883 4.949,-2.336 9.727,-5.395 15,-6.914 m -337.5,0.965 c 5.012,-0.602 12.492,-1.18 17.168,1.062 4.254,2.039 3.07,7.516 -1.43,8.149 -5.824,0.82 -11.98,-0.567 -17.988,0.328 -2.75,0.41 -6.211,2.062 -8.957,1.031 -3.039,-1.141 -3.766,-5.117 -1.305,-7.238 3.016,-2.602 8.731,-2.879 12.512,-3.332 m 201.75,0.004 c 7.125,-0.942 16.523,-0.59 23.215,2.218 3.926,1.645 5.078,7.477 0.019,8.543 -2.234,0.473 -4.57,-0.594 -6.734,-0.996 -3.984,-0.742 -7.953,-1.027 -12,-0.98 -2.75,0.031 -6.309,1.23 -8.918,0.179 -2.934,-1.183 -3.668,-5.023 -1.258,-7.129 1.477,-1.289 3.805,-1.589 5.676,-1.835 m -320.078,0.996 c 4.07,-1.684 10.66,4.222 12.769,7.254 1.352,1.945 1.383,4.917 -1.113,5.96 -3.82,1.594 -10.699,-4.304 -12.769,-7.171 -1.383,-1.922 -1.371,-5.016 1.113,-6.043 m -9.129,9.066 c 4.625,-1.371 13.398,5.449 16.133,8.695 1.64,1.953 2.383,5.614 -0.598,6.809 -1.445,0.578 -3.023,0.074 -4.328,-0.609 -3.598,-1.887 -10.484,-5.743 -12.941,-8.969 -1.582,-2.078 -0.914,-5.141 1.734,-5.926 m 504.707,1.719 c -0.777,3.988 -1.383,6.453 -5.25,8.25 -0.723,-4.367 0.891,-7.199 5.25,-8.25 m -38.25,4.5 c -0.012,3.582 0.445,10.129 -1.52,13.207 -1.699,2.66 -6.261,4.008 -8.98,5.359 -8.195,4.067 -17.328,8.57 -26.25,10.684 0.797,-4.469 3.645,-12.699 7.125,-15.774 4.094,-3.617 11.207,-4.98 16.125,-7.312 4.445,-2.106 8.629,-5.235 13.5,-6.164 m -327,0.976 c 2.441,-0.347 5.93,-0.722 8.168,0.547 2.746,1.555 3.227,4.946 0.656,6.922 -2.707,2.082 -7.797,1.555 -11.074,2.207 -5.406,1.07 -10.656,2.41 -15.75,4.563 -3.453,1.457 -8.129,4.39 -11.984,4.035 -5.786,-0.528 -3.516,-7.168 0,-9.102 8.964,-4.929 19.922,-7.738 29.984,-9.172 m 183.031,0.098 c 3.571,-1.039 7.688,0.059 11.219,0.719 8.438,1.578 16.07,4.047 24,7.359 3.102,1.297 9.75,7.227 3.637,9.781 -3.02,1.262 -6.891,-1.019 -9.637,-2.136 -6.449,-2.625 -12.652,-4.789 -19.5,-6.145 -3.285,-0.652 -8.176,-0.129 -11.043,-1.89 -3.367,-2.071 -2.184,-6.661 1.324,-7.688 m -332.961,2.266 c 3.653,-0.996 10.789,3.914 12.868,6.695 1.597,2.133 0.89,5.094 -1.731,5.98 -3.508,1.184 -11,-3.679 -13.004,-6.425 -1.64,-2.25 -0.98,-5.473 1.867,-6.25 m 158.93,13.468 c 4.184,-0.136 6.836,4.422 3.512,7.559 -1.715,1.617 -4.352,1.965 -6.512,2.656 -4.328,1.383 -8.836,4.547 -13.496,4.403 -4.656,-0.149 -5.473,-4.926 -2.145,-7.688 4.137,-3.43 13.258,-6.754 18.641,-6.93 m 171.016,0.086 c 1.957,-0.41 4.129,0.34 5.984,0.899 4.414,1.32 10.555,2.972 14.137,5.945 2.539,2.102 3.195,6.508 -0.68,7.52 -4.82,1.261 -9.859,-2.528 -14.207,-3.993 -2.16,-0.726 -4.758,-1.05 -6.641,-2.406 -3.164,-2.277 -2.644,-7.117 1.407,-7.965 m 145.484,1.856 c -0.465,3.66 0.02,9.39 -2.203,12.457 -2.664,3.672 -9.484,5.512 -13.547,7.09 -10.723,4.16 -21.488,9.652 -33,11.203 1.719,-4.465 6.039,-12.125 10.035,-14.899 5.754,-3.992 14.301,-5.597 20.715,-8.523 5.641,-2.574 11.789,-6.692 18,-7.328 m -3,18 c -0.035,3.965 -0.562,12.258 -3.441,15.226 -3.551,3.657 -11.391,5.258 -16.059,7.125 -15.629,6.246 -32.773,11.524 -49.5,13.649 1.746,-3.258 4.938,-5.254 7.629,-7.742 3.121,-2.891 5.937,-6.625 9.621,-8.813 4.606,-2.742 10.648,-3.797 15.75,-5.305 5.082,-1.5 10.047,-3.574 15,-5.457 6.934,-2.64 13.773,-7.136 21,-8.683 m -462.75,1.5 c 0.16,7.719 2.035,15.64 3.309,23.25 0.543,3.226 2.007,7.465 -0.118,10.39 -2.937,4.047 -8.187,2.063 -9.523,-2.144 -1.676,-5.274 -1.949,-11.051 -2.77,-16.496 -0.757,-5.024 -2.042,-9.883 -2.148,-15 h 11.25 m -75.75,45.75 c -2.703,-1.899 -5.559,-3.457 -9,-2.789 -6.312,1.226 -7.848,8.258 -5.043,13.289 4.773,8.554 17.145,11.25 24.473,4.359 5.273,-4.961 7.273,-12.375 7.968,-19.359 1.395,-14.043 -10.269,-28.074 -23.648,-31.102 -6.613,-1.496 -14.184,0.094 -20.25,2.836 -18.086,8.176 -24.777,30.094 -23.973,48.516 0.871,19.886 10.977,37.277 23.223,52.5 20.215,25.133 45.652,45.773 71.25,65.152 11.109,8.41 22.406,15.984 34.5,22.914 3.551,2.035 10.367,7.317 13.367,1.887 2.68,-4.852 -1.73,-8.121 -5.117,-10.77 -8.523,-6.668 -17.035,-13.336 -25.5,-20.082 -12.223,-9.738 -23.676,-20.004 -35.25,-30.472 -10.066,-9.11 -20.277,-17.77 -29.379,-27.879 -10.152,-11.281 -20.652,-23.231 -26.418,-37.5 -5.707,-14.114 -5.832,-36.805 7.809,-46.77 7.965,-5.82 19.34,-3.441 21.761,7.02 0.653,2.808 -0.07,5.531 -0.773,8.25 m 534,-27 c -0.437,4.371 -1.82,12.133 -4.988,15.367 -1.598,1.633 -4.18,2.285 -6.262,3.066 -4.711,1.762 -9.5,3.391 -14.25,5.047 -22,7.668 -47.211,12.52 -70.5,12.52 1.652,-2.91 4.625,-4.016 7.5,-5.598 3.832,-2.105 7.555,-4.441 11.25,-6.777 7.949,-5.031 18.789,-4.688 27.75,-7.133 11.133,-3.035 22.129,-6.387 33,-10.262 5.516,-1.965 10.801,-4.875 16.5,-6.23 m -6.75,21 c -1.078,4.543 -3.387,11.488 -6.918,14.687 -2.172,1.965 -5.363,2.676 -8.082,3.563 -5.883,1.914 -11.953,3.578 -18,4.855 -13.934,2.934 -27.746,5.852 -42,6.828 -11.644,0.797 -23.578,0.067 -35.25,0.067 0.645,-2.364 1.313,-5.258 2.883,-7.203 5.031,-6.25 15.785,-3.453 22.617,-4.262 16.938,-1.996 33.664,-3.57 50.25,-7.949 11.391,-3.004 22.918,-8.875 34.5,-10.586 m -219,45 c -0.539,-2.84 -2.918,-7.766 -1.949,-10.465 1.633,-4.551 8.812,-4.613 10.347,0.035 0.961,2.906 -1.609,7.219 -1.648,10.43 15.129,-1.238 22.984,-16.762 11.859,-28.43 -5.062,-5.312 -10.886,-6.242 -17.859,-6.058 -11.699,0.304 -22.695,14.242 -16.91,25.488 3.027,5.89 9.867,8.715 16.16,9 m 208.5,-23.25 c -2.141,4.894 -5.988,11.894 -10.629,14.793 -2.375,1.48 -5.441,1.761 -8.121,2.367 -5.512,1.25 -10.91,2.512 -16.5,3.305 -8.719,1.234 -17.449,2.867 -26.25,3.468 -14.461,0.989 -29.09,-0.386 -43.5,-0.683 0.457,-3.063 1.871,-10.098 5.418,-10.981 2.242,-0.558 5.035,0.414 7.332,0.469 5.488,0.137 11.012,0.074 16.5,0.008 13.117,-0.156 26.867,-2.141 39.75,-4.567 7.754,-1.46 15.66,-3.335 23.25,-5.5 4.117,-1.171 8.449,-3.316 12.75,-2.679 m -15.75,20.25 c -2.379,5.617 -9.23,12.926 -15,15.195 -4.059,1.598 -9.211,1.414 -13.5,2.117 -17.914,2.93 -37.465,1.942 -55.5,0.621 -3.559,-0.261 -6.902,-1.359 -10.5,-1.433 0.73,-2.68 1.801,-8.887 4.707,-9.981 3.598,-1.351 10.25,0.493 14.043,0.856 6.652,0.633 13.566,0.125 20.25,0.125 18.883,0 37.051,-3.922 55.5,-7.5 m -22.5,20.25 c -2.348,4.804 -8.246,7.472 -12.75,10.066 -2.582,1.485 -5.293,3.285 -8.25,3.887 -2.52,0.516 -4.988,-0.215 -7.5,-0.387 -5.301,-0.363 -10.473,-0.734 -15.75,-1.469 -10.523,-1.461 -21.621,-2.347 -32.25,-2.347 0.328,-3.731 1.809,-6.981 3,-10.5 24.73,3.125 48.711,3.886 73.5,0.75 m -348.75,12.445 c -3.59,0.133 -7.137,0.555 -10.5,1.856 -14.945,5.781 -17.617,22.132 -13.109,35.949 7.293,22.351 29.488,40.226 48.359,52.75 39.133,25.972 86.867,42.211 133.5,46.871 28.566,2.859 57.949,0.605 86.25,-3.406 18.598,-2.637 37.172,-5.09 55.5,-9.305 21.758,-5.004 43.039,-11.176 63.75,-19.559 5.41,-2.191 10.738,-4.812 15.75,-7.804 2.078,-1.243 4.832,-2.578 5.945,-4.864 1.477,-3.035 -1.074,-4.386 -3.707,-3.855 -5.8,1.172 -11.511,3.254 -17.238,4.758 -23.285,6.125 -46.949,10.988 -70.5,15.879 -37.199,7.722 -74.418,14.035 -112.5,14.035 -7.434,0 -15.09,0.527 -22.5,-0.071 -3.551,-0.285 -6.953,-1.621 -10.5,-2.062 -32.441,-4.039 -63.793,-14.578 -93,-29.18 -19.43,-9.718 -38.031,-22.144 -52.539,-38.437 -6.543,-7.352 -13.75,-16.043 -14.832,-26.25 -1.086,-10.254 7.066,-14.805 16.371,-13.254 10.57,1.762 22.273,9.801 27.336,19.254 1.258,2.351 3.828,10.262 0.09,11.769 -2.024,0.817 -4.235,-1.582 -5.461,-2.84 -2.836,-2.906 -6.051,-7.05 -10.711,-5.363 -6.711,2.434 -4.707,9.492 -1.258,13.684 8.453,10.281 24.942,14.347 32.125,0 4.481,-8.953 1.5,-20.903 -4.265,-28.5 -9.754,-12.852 -25.84,-22.656 -42.356,-22.055"
       style="display:inline;fill:#040405;fill-opacity:1;fill-rule:nonzero;stroke:none"
       transform="scale(1.3333333)"
       sodipodi:nodetypes="cccccccccccccccccccccccccccccccccccccccccccccccccsccccccccccccccccscccccccccccccccccccccccccccccccccccccccccccccccccccccccccccccccccccccccccccccccccccccccccccccccccccccccccccccccccccccccccccccccccccccccsccccccccccccccsccccccccccccccccsccccccccccccccccccccscccccccccccccscccccccccccccccccccccccccccccccccccccccccccccccccccccccccccccccccccccccccccccccccccccccccccccsccccccccccccccccccccccccccccccccccccccccccccccscccccccsccccccsccccccccccccccccccscccccccccccccccccccccccccccccccccccccccccccccccccccccccccccccccccccccccccccccccccccccccccccccccccsccccccccccccccccccccccccccccccccccccccccccccsccccccccccccsccccscccccccccccccccccscccccccccccccc" />
    <path
       id="path3"
       d="m 2074.668,75.891 c 5.285,0.648 11.863,1.89 17.062,0.648 m 202.735,51.75 c 32.285,0.082 64.16,9.727 96.351,11.805 15.914,0.906 32.118,0 48.176,0 22.313,0.008 44.856,0.668 67.242,0.91 48.129,0.516 96.348,2.359 144.524,2.719 v 1.816 c -108.113,0 -216.09,3.477 -324.176,3.633 -25.644,0.035 -51.961,6.437 -77.281,9.742 -8.68,1.152 -21.692,-0.523 -25.09,8.414 30.906,0 60.48,10.543 91.332,11.805 21.992,0.906 44.16,0 66.238,0 33.34,0.047 66.953,0.551 100.367,0.91 67.547,0.727 135.102,1.812 202.735,1.812 -11.067,-34.769 -49.52,-59.886 -86.313,-69.382 -66.422,-17.145 -136.644,-7.649 -203.738,0.902 -24.672,3.148 -49.434,6.082 -74.27,7.734 -9.05,0.598 -21.777,-1.445 -26.097,7.18 m -1385.024,0 c 18.313,0 37.137,-1.359 55.2,2.074 11.734,2.239 22.035,8.125 34.125,9.469 15.8,1.758 32.117,0.57 48.175,1.203 25.039,0.992 50.18,2.688 75.274,2.688 -2.082,-7.914 -1.41,-16.34 -2.586,-24.512 -0.426,-2.356 0.262,-6.356 -2.035,-8.149 -2.457,-1.757 -7.516,-0.929 -10.434,-0.929 h -27.098 c -22.503,0 -45.945,-1.695 -68.25,1.164 -13.648,1.754 -26.589,6.59 -40.144,8.82 -15.055,2.305 -30.109,1.817 -45.164,1.817 -7.563,0 -14.484,-1.395 -17.063,6.355 m 258.942,0 c 29.105,0.07 57.742,7.371 86.312,11.801 20.328,3.027 40.657,3.633 61.223,3.633 h 33.117 c 3.742,0 10.039,1.101 13.414,-0.907 2.918,-1.816 4.371,-6.304 5.903,-9.078 4.234,-7.66 9.187,-15.343 11.796,-23.605 h -63.226 c -11.043,0 -22.25,-0.785 -33.121,0.156 -21.539,1.852 -41.719,9.629 -63.231,11.488 -12.199,1.067 -24.867,1.067 -37.132,1.067 -6.102,0 -12.637,-0.528 -15.055,5.445 m 236.859,0.906 c 17.805,0 36.637,-1.593 54.196,1.297 12.042,1.992 22.644,8.727 35.128,9.598 19.282,1.144 38.883,-0.414 58.211,0.015 44.797,0.993 89.625,1.801 134.485,1.801 18.722,0 37.429,0.91 56.207,0.91 5.699,0 16.758,1.911 21.687,-0.91 2.864,-1.676 4.207,-5.445 5.656,-8.172 3.961,-7.16 9.79,-15.433 10.793,-23.601 h -176.64 c -37.715,0 -76.031,-1.817 -113.41,3.105 -21.09,2.824 -42.153,6.168 -63.231,8.438 -9.109,0.972 -19.07,-1.297 -23.082,7.519 m 405.469,-0.906 c 18.68,0 38.82,-1.254 57.207,1.902 10.039,1.735 18.848,7.379 29.105,8.719 20.032,2.621 41.02,1.656 61.223,2.102 9.836,0.218 20.309,0.203 30.109,1.05 5.02,0.438 12.836,2.262 17.672,0.208 3.215,-1.27 4.688,-5.809 6.168,-8.536 4.215,-7.621 9.68,-15.398 12.293,-23.601 h -67.246 c -11.578,0 -23.601,-0.844 -35.125,0.156 -20.5,1.762 -39.847,8.613 -60.219,11.125 -12.136,1.492 -24.898,0.52 -37.136,0.52 -6.387,0.027 -12.176,0.07 -14.051,6.355 m 223.812,-0.906 c 11.039,0 22.055,0.429 33.122,0.906 6.628,0.227 13.511,-0.644 20.07,0.422 12.765,2.078 24.265,8.656 37.137,10.199 4.648,0.602 9.382,0.063 14.05,0.356 17.356,1.074 34.774,1.55 52.188,1.738 9.32,0.098 18.742,0.707 28.101,0.918 3.243,0.07 6.836,1.137 10.039,0.574 4.727,-0.836 8.59,-4.961 12.043,-7.711 6.004,-4.68 12.024,-9.551 18.067,-14.281 4,-3.109 8.629,-6.063 11.039,-10.371 h -84.305 c -14.219,0 -29.105,-1.067 -43.156,0.156 -17.621,1.656 -33.762,8.09 -51.188,10.348 -13.046,1.691 -27.097,1.297 -40.144,1.297 -7.211,0 -13.656,-1.329 -17.063,5.449 m -649.355,39.945 c 28.934,0 56.547,9.988 85.309,11.801 10.668,0.578 21.437,-0.387 32.117,0.035 49.051,1.945 98.355,1.781 147.535,1.781 22.703,0 45.473,0.91 68.246,0.91 h 17.063 c 2.597,0 6.023,0.493 8.394,-0.91 3.375,-2.16 5.125,-7.668 6.906,-10.894 4.653,-8.41 9.793,-16.739 13.805,-25.422 -28.102,0 -56.242,1.183 -84.305,1.816 -36.492,0.91 -72.961,0.34 -109.398,1.817 -32.41,1.25 -65.039,-0.832 -97.352,1.883 -22.492,1.89 -44.89,6.492 -67.246,9.394 -8.027,1.023 -19.512,-1.004 -21.074,7.789 m 404.469,-0.91 c 31.043,0 61.476,9.988 92.332,12.555 24.09,2.089 48.953,1.293 73.265,2.882 7.711,0.395 15.504,-0.73 23.086,0.907 -6.164,1.648 -12.711,0.597 -19.07,0.988 -14.055,0.871 -28.102,1.215 -42.152,1.77 -33.75,1.339 -67.246,3.121 -100.364,9.042 -11.632,2.071 -23.355,3.633 -35.129,4.692 -6.3,0.758 -11.605,0.758 -13.046,7.113 24.086,0 47.488,6.832 71.257,9.731 18.356,2.234 36.746,2.285 55.2,3.015 18.691,0.871 37.5,2.481 56.207,2.688 3.425,0.031 8.625,0.906 11.648,-0.906 4.848,-2.727 4.844,-9.707 9.063,-13.075 2.945,-2.347 8.773,-1.453 12.406,-1.418 15.926,0.633 30.359,9.332 46.168,11.375 14.304,1.856 29.707,0.993 44.16,1.313 18.418,0.41 36.719,1.805 55.199,1.805 -16.055,4.273 -35.64,1.812 -52.187,1.812 -29.192,0 -58.446,0.176 -87.317,4.539 -10.699,1.52 -22.082,2.883 -32.117,6.356 l 5.02,-10.895 c -25.125,0 -50.207,1.816 -75.274,2.727 -30.633,1.175 -60.219,2.16 -90.328,7.625 -12.043,2.156 -24.086,4.175 -36.133,5.152 -5.625,0.473 -11.855,-0.02 -14.051,5.379 8.243,2.523 17.504,2.722 26.098,3.75 14.727,1.855 29.387,4.125 44.16,5.484 12.442,1.145 24.668,4.539 37.133,5.942 19.547,2.203 39.531,2.98 59.215,2.98 v 1.816 c -26.246,0 -53.191,-0.277 -79.289,1.973 -19.797,1.707 -39.449,6.695 -59.215,8.016 -10.07,0.551 -20.07,2.176 -30.105,2.722 -7.731,0.36 -15.055,-0.296 -19.071,6.356 38.137,0.019 76.68,8.875 114.414,13.363 44.828,5.328 90.328,5.852 135.492,3.059 13.262,-0.821 26.852,-0.082 40.145,-0.082 5.469,0 12.875,1.164 18.066,-0.543 5.665,-1.867 10.563,-7.383 15.055,-10.871 10.652,-8.282 20.942,-17.203 32.117,-24.899 -4.23,-1.609 -9.5,-0.91 -14.05,-0.91 h -28.102 c -11.379,0 -22.688,-0.906 -34.125,-0.902 -21.078,0.226 -42.215,1.418 -63.23,1.812 2.007,-4.539 5.355,-8.844 7.027,-13.621 32.933,7.266 67.523,9.988 101.367,9.988 8.027,0 16.055,0.907 24.086,0.907 3.277,0.015 6.992,0.39 10.039,-0.907 10.266,-4.429 19.59,-14.777 28.102,-21.531 21.968,-17.43 43.003,-36.898 66.238,-52.914 -5.016,-1.816 -11.692,-0.91 -17.063,-0.91 -14.05,0 -28.316,0.473 -42.152,1.66 -7.312,0.633 -14.746,-0.098 -22.078,0.192 -12.695,0.503 -25.445,1.242 -38.141,1.781 -6.336,0.215 -12.761,-0.422 -19.066,0.258 -21.703,2.464 -41.152,11.543 -63.231,11.543 2.95,-7.829 7.207,-15.309 11.286,-22.696 1.578,-2.722 3.062,-7.261 6.168,-9.054 5.156,-2.977 15.152,0.113 20.683,0.957 18.832,2.875 37.137,7.597 56.203,9.652 21.25,2.301 42.957,0.398 64.235,2.23 8.359,0.754 16.757,0.192 25.089,0.911 6.254,0.535 13.907,1.96 20.075,0.285 5.422,-1.348 9.91,-6.485 14.05,-9.782 10.438,-8.312 24.004,-16.777 32.118,-26.976 -25.719,0 -51.598,1.816 -77.282,2.723 -23.082,0.91 -46.289,0 -69.25,1.972 -16.722,1.461 -32.836,7.11 -49.269,9.598 -11.078,1.762 -22.82,1.14 -34.035,1.14 3.011,-4.855 6.304,-9.984 8.031,-15.433 -9.074,1.035 -18.066,0.426 -27.098,0.992 -25.73,1.731 -51.508,1.731 -77.281,2.676 -20.453,0.871 -40.144,4.551 -60.219,6.965 -12.328,1.472 -24.64,3.894 -37.132,4.8 -6.208,0.376 -12.329,0 -14.051,6.356 m -902.274,0 c 36.129,0.273 72.535,8.191 108.391,12.457 36.133,4.297 71.969,4.793 108.394,4.793 -7.46,1.996 -16.336,0.91 -24.086,0.91 -12.648,0 -25.453,0.637 -38.14,0.922 -40.242,0.891 -80.676,1.215 -120.438,7.477 -13.379,2.105 -26.589,4.921 -40.144,6.125 -6.535,0.484 -12.86,0 -15.055,6.355 30.86,0 60.711,9.988 91.332,12.555 17.653,1.523 35.488,0.398 53.192,1.101 39.398,1.559 78.961,2.688 118.429,2.688 -1.336,-5.078 -1.004,-10.242 -1.004,-15.434 24.356,0.012 48.176,7.453 72.262,10.645 23.727,3.164 48.176,2.453 72.266,2.988 10.035,0.223 20.984,0.176 31.109,1.047 4.512,0.387 11.531,2.207 15.668,-0.156 3.344,-1.813 4.965,-6.911 6.66,-9.985 4.774,-8.668 10.793,-17.929 13.805,-27.238 -21.371,0.16 -42.883,1.84 -64.234,2.723 -19.668,0.746 -39.641,0 -59.215,2.078 -29.641,3.172 -59.395,11.543 -89.325,11.543 -1.574,-18.074 -5.015,-36.317 -5.015,-54.473 -26.395,0 -52.934,1.645 -79.289,2.723 -21.317,0.906 -43.156,-0.504 -64.235,2.078 -12.82,1.562 -25.511,5.66 -38.136,8.222 -12.043,2.442 -23.907,2.411 -36.133,2.411 -7.297,0 -13.422,-1.246 -17.059,5.445 m 257.934,0 c 10.035,0 20.074,0.91 30.109,0.91 7.461,0.031 15.762,-0.91 23.086,0.469 12.496,2.398 23.434,9.125 36.129,10.933 18.899,2.692 39.109,1.805 58.211,2.231 9.762,0.215 20.43,0.125 30.109,1.277 4.696,0.559 13.454,2.028 17.676,-0.386 3.344,-1.813 4.961,-6.911 6.66,-9.985 4.692,-8.488 10.793,-17.199 13.805,-26.328 -22.793,0 -45.516,1.813 -68.25,2.723 -17.586,0.66 -35.738,-0.168 -53.191,2.09 -14.168,1.828 -26.832,8.375 -41.149,10.23 -12.047,1.555 -25.094,0.391 -37.137,0.391 -7.023,0 -12.777,-1.082 -16.058,5.445 m 218.793,39.039 c 32.004,0.242 62.605,12.547 94.344,15.277 18.738,1.618 38.382,0.157 57.207,0.157 h 198.722 c 2.711,0 6.235,0.457 8.641,-0.907 3.344,-1.816 4.961,-6.914 6.66,-9.988 4.766,-8.625 9.711,-17.43 13.805,-26.328 -55.926,0 -111.754,2.121 -167.61,2.723 -21.41,0.23 -42.879,0.91 -64.234,0.91 -19.613,0 -39.762,-0.727 -59.215,1.558 -22.215,2.614 -44.16,7.032 -66.238,9.856 -7.418,0.949 -19.11,-0.735 -22.082,6.742 m 814.957,0 c 31.465,0.238 61.863,11.426 93.34,12.711 21.656,0.91 43.554,0 65.234,0 32.691,0 65.602,0.562 98.359,0.91 86.282,0.93 172.59,2.723 258.938,2.723 -2.008,-9.438 -3.063,-18.797 -5.645,-28.145 -0.816,-2.953 -1.199,-7.984 -4.668,-9.441 -2.757,-1.153 -6.808,-0.547 -9.757,-0.547 h -20.075 c -24.812,0 -49.484,0.91 -74.269,0.91 -91.024,0 -181.953,2.723 -272.992,2.723 -33.219,0 -64.602,5.918 -97.352,9.984 -6.683,0.91 -13.383,1.348 -20.074,2.078 -2.598,0.282 -6.359,0.227 -8.598,1.578 -1.804,1.09 -2.035,2.758 -2.441,4.516 m -35.125,39.039 c 16.527,0 33.855,-1.351 50.18,1.332 14.648,2.402 28.347,8.656 43.156,10.211 6.633,0.734 13.41,0.035 20.074,0.297 19.406,0.871 38.766,1.359 58.211,1.793 10.238,0.226 20.875,0.34 31.113,0.976 6.985,0.434 15.055,2.102 22.078,0.54 3.942,-0.891 6.973,-4.008 10.039,-6.247 4.829,-3.453 9.875,-6.718 15.055,-9.804 14.984,-8.938 31.02,-14.961 47.168,-21.793 -6.156,-2.336 -13.629,-0.293 -20.07,0 -13.047,0.476 -26.176,0.906 -39.145,0.906 -26.093,0 -52.258,1.656 -78.281,2.723 -21.848,0.91 -44.602,-0.864 -66.242,2.215 -10.309,1.468 -20.184,5.562 -30.11,8.367 -14.832,4.187 -31.789,3.039 -47.171,3.039 -6.582,0 -14.137,-1.637 -16.055,5.445 m -1299.715,0 c 29.105,0 57.207,9.988 86.313,11.805 21.691,1.261 43.511,0.086 65.234,0.941 45.41,1.797 90.996,2.688 136.496,2.688 l -1.004,-13.618 c 21.492,0.055 42.992,7.754 64.234,10.504 6.321,0.821 12.723,0.079 19.067,0.473 15.031,0.93 30.082,1.574 45.164,1.738 8.891,0.094 18.066,0.438 27.101,0.985 3.727,0.23 8.34,1.75 11.829,-0.082 3.57,-1.817 5.226,-6.797 6.992,-9.985 4.797,-8.675 10.285,-17.914 13.293,-27.238 -8.738,1 -17.34,0.445 -26.094,0.988 -30.687,1.903 -61.707,1.024 -92.336,3.707 -12.777,1.118 -24.773,5.696 -37.133,8.493 -11.039,2.496 -21.793,3.156 -33.121,3.156 0,-3.633 1.004,-12.711 -2.609,-15.406 -2.938,-2.036 -9.938,-0.028 -13.449,-0.028 -12.336,0.051 -24.879,-0.66 -37.133,0.649 -12.555,1.339 -25.52,-0.207 -38.141,0.293 -44.273,1.781 -88.598,0.191 -132.48,6.851 -15.055,2.281 -30.11,5.528 -45.164,6.731 -7.082,0.562 -14.34,-0.461 -17.059,6.355 m 1620.879,0 c 15.055,0 30.109,-1.816 45.164,0.559 15.238,2.504 29.824,9.593 45.164,11.086 16.859,1.64 34.121,0.433 51.184,1.101 29.043,1.153 58.211,2.688 87.316,2.688 l 1.004,-37.223 c -25.719,1 -51.547,2.141 -77.281,2.723 -16.055,0.343 -32.25,-0.375 -48.172,1.066 -16.418,1.481 -32.117,7.281 -48.176,9.559 -13.629,1.922 -27.457,2.57 -41.148,3.746 -6.164,0.531 -12.207,-1.375 -15.055,4.695 m -1121.066,-4.539 -1.004,3.633 c 5.234,1.398 10.648,0.73 16.058,0.941 11.039,0.442 23.082,0.414 34.121,2.074 12.274,1.852 23.789,7.551 36.133,9.434 15.777,2.406 32.117,1.481 48.176,2.113 17.746,0.7 35.383,1.778 53.191,1.778 v 1.816 c -49.39,0 -98.355,8.68 -147.535,11.852 -3.437,0.222 -6.515,1.765 -10.039,1.765 -12.348,0.395 -24.871,0.91 -37.133,2.34 -6.019,0.707 -11.554,-0.523 -13.047,5.832 24.086,0.449 49.5,4.942 73.266,8.547 8.906,1.441 18.066,3.512 27.098,4.164 21.664,1.293 43.539,0.086 65.238,0.945 53.73,2.125 107.75,2.688 161.586,2.688 -9.156,2.445 -20.586,0.906 -30.109,0.906 -17.442,0 -34.735,0.91 -52.188,0.91 -29.437,0 -58.922,1.813 -88.32,1.813 -17.442,0.074 -34.817,0.512 -52.192,0.91 -15.211,0.32 -30.109,-0.207 -45.164,1.816 -20.539,2.465 -40.625,7.407 -61.222,9.727 -7.352,0.828 -17.508,-0.938 -20.071,6.613 12.778,0 25.414,0.039 38.137,0.91 4.695,0.207 9.414,-0.332 14.051,0.618 12.883,2.628 23.64,10.277 37.137,11.183 15.246,0.906 30.878,0 46.164,0 22.316,0.031 44.859,0.672 67.246,0.91 46.48,0.5 92.949,1.813 139.504,1.813 -11.04,3.344 -23.739,1.816 -35.125,1.816 -18.114,0 -36.133,0.91 -54.2,0.91 -28.425,0 -56.906,1.504 -85.308,1.813 -34.629,0.371 -69.985,-1.141 -104.379,2.726 -21.567,2.192 -42.711,6.918 -64.231,9.598 -7.027,0.871 -18.308,-0.902 -20.074,6.742 13.047,0 26.094,-0.363 39.141,0.754 4.726,0.406 9.402,-0.109 14.051,1.063 13.429,3.113 23.984,12.183 38.14,13.461 19.031,1.726 39.082,0.156 58.211,0.156 h 200.727 c 2.715,0 6.238,0.453 8.64,-0.906 3.106,-1.817 4.594,-6.227 6.168,-9.079 3.848,-6.96 7.739,-13.898 11.532,-20.882 7.785,-14.422 14.695,-29.442 23.148,-43.578 7.637,-12.711 17.316,-26.872 21.773,-40.856 h -162.589 c 4.316,-13.558 15.757,-24.512 20.07,-38.129 -26.457,0 -52.887,1.641 -79.285,2.723 -13.278,0.488 -27.102,-0.379 -40.149,1.168 -13.578,1.597 -25.808,7.91 -39.14,10.226 -11.493,2.223 -23.461,1.317 -35.129,1.317 -7.074,0 -14.051,0.906 -21.074,0.906 m -520.891,42.672 c 37.133,0 73.461,10.285 110.398,13.461 23.618,2.035 47.571,1.07 71.262,2.008 36.012,1.425 72.262,3.597 108.391,3.597 -11.137,3.059 -23.621,4.075 -35.125,5.821 -22.313,3.386 -44.582,6.886 -67.246,6.886 3.003,-4.539 5.742,-9.547 8.031,-14.523 -23.809,0 -47.512,1.816 -71.258,2.723 -31.914,1.226 -62.852,2.109 -94.344,7.808 -12.043,2.18 -24.086,3.992 -36.133,5.422 -6.445,0.777 -11.796,-0.812 -14.05,5.836 25.082,0.187 49.535,8.531 74.269,11.547 22.61,2.754 45.672,0.828 68.25,3.238 12.481,1.332 25.559,1.555 38.137,1.555 3.742,0.019 9.461,1.816 12.832,0 4.23,-2.238 7.219,-9.684 9.25,-13.617 59.582,15.152 123.348,14.527 184.668,14.527 h 45.164 c 5.492,0 14.656,1.59 19.68,-0.547 3.402,-1.469 5.07,-6.562 6.664,-9.441 4.98,-9.016 12.797,-19.067 14.804,-29.051 -26.093,0 -52.222,0.562 -78.281,0 -21.129,-0.484 -42.156,-1.508 -63.23,0 l -1.004,-14.527 c 34.125,7.632 71.258,9.71 106.387,11.882 8.988,0.559 18.062,1.735 27.097,1.735 3.012,0.015 7.742,0.746 10.403,-0.907 3.14,-2.011 4.652,-6.988 6.41,-9.988 4.636,-8.386 9.543,-16.672 13.297,-25.418 -27.418,0 -54.977,0.949 -82.301,2.723 -11.688,0.641 -23.473,-0.324 -35.125,1.18 -16.059,2.058 -31.36,7.019 -47.172,9.714 l -1.004,-14.527 c -21.355,0 -42.906,0.938 -64.234,1.816 -28.418,1.09 -56.907,0.657 -85.309,1.817 -29.562,1.133 -58.98,-0.567 -88.32,3.855 -11.039,1.649 -22.106,2.758 -32.946,4.547 -5.191,0.856 -9.867,2.492 -15.23,2.492 -8.348,0.172 -18.82,-1.117 -23.082,6.356 m 1640.953,0 c 7.023,0 14.031,0.738 21.074,0.906 10.684,0.223 21.571,-0.437 32.117,1.512 12.993,2.406 24.938,8.476 38.141,10.027 13.289,1.571 26.785,0.68 40.145,1.207 30.066,1.192 60.199,2.688 90.328,2.688 1.859,-12.469 6.734,-24.508 7.023,-37.223 -23.363,0 -46.914,1.816 -70.254,2.723 -19.336,0.73 -39.14,-0.207 -58.211,2.078 -15.757,1.879 -30.328,7.91 -46.168,9.469 -13.734,1.468 -27.406,0.394 -41.148,1.246 -5.27,0.328 -12.043,-0.082 -13.047,5.367 m -346.258,0 c 54.645,2.125 107.727,17.25 162.59,17.25 h 33.121 c 5.277,0 12.957,0.418 17.883,-1.457 4.5,-1.715 7.863,-7.906 10.824,-11.254 7.41,-8.395 16.676,-15.773 23.485,-24.512 -25.789,0 -51.539,1.535 -77.282,1.813 -14.082,0.152 -28.125,0.586 -42.152,0.91 -9.035,0.183 -18.188,-0.707 -27.102,0.258 -16.211,1.754 -31.328,6.605 -47.168,9.832 -12.113,2.465 -24.785,2.621 -37.136,2.621 -6.766,0 -13.071,-1.235 -17.063,4.539 m -411.492,39.039 c 15.469,0 31.961,-1.496 47.172,1.316 12.023,2.313 23.082,7.528 35.129,10.485 6.336,1.359 13.535,1.332 20.07,1.816 17.324,0.992 34.844,-0.652 52.192,0.035 59.062,2.34 118.429,2.688 177.644,2.688 -3.168,-12.028 -3.012,-25.781 -4.016,-38.129 -42.496,0 -85.003,2.262 -127.461,2.723 -19.089,0.203 -38.164,0.906 -57.21,0.906 -15.481,0 -31.86,-0.871 -47.168,1.304 -9.317,1.422 -18.11,4.696 -27.102,7.122 -16.312,4.394 -33.277,4.285 -50.18,4.285 -6.832,0 -16.058,-1.184 -19.07,5.449 m 395.434,0.906 c 18.922,0 37.636,1.176 56.207,4.731 12.867,2.531 25.058,6.785 38.136,8.496 20.602,2.699 41.457,2.207 62.227,2.207 12.043,0 24.031,0.91 36.129,0.91 3.703,0 10.226,1.117 13.402,-0.91 3.403,-2.223 5.09,-8.488 6.918,-11.801 4.774,-8.789 12.098,-17.16 15.813,-26.328 -30.758,0.574 -61.602,2.379 -92.336,3.629 -13.629,0.504 -27.606,-0.422 -41.149,1.172 -14.246,1.672 -27.097,8.023 -41.148,10.394 -12.746,2.153 -26.231,1.168 -39.145,2.055 -6.363,0.309 -13.414,-1.656 -15.054,5.445 m 352.281,-0.906 c 17.269,0 36.129,-0.422 53.191,2.371 14.633,2.406 28.371,8.336 43.157,10.074 20.511,2.414 41.593,1.301 62.226,2.114 13.664,0.543 27.469,1.781 41.149,1.781 4.015,0 11.843,1.328 15.418,-0.906 2.91,-1.817 4.207,-6.239 5.453,-9.079 3.839,-8.769 8.234,-18.707 9.238,-28.144 -28.231,0 -57.207,-1.664 -85.309,0.082 -30.386,1.883 -60.304,7.18 -90.328,11.719 -13.191,1.902 -26.785,3.957 -40.144,4.539 -5.723,0.199 -12.575,-0.68 -14.051,5.449 m -769.793,39.039 c 21.437,1.531 42.117,6.77 63.226,9.598 22.934,3.113 47.102,4.019 70.258,4.019 12.032,0.02 24.086,1.817 36.129,1.817 5.863,0.058 12.508,-1.137 17.063,2.722 -25.825,0 -51.528,1.817 -77.282,2.723 -28.554,1.098 -56.234,2.309 -84.304,8.172 -11.27,2.203 -22.653,2.879 -34.125,3.711 -5.434,0.394 -11.039,0.238 -13.047,5.367 17.808,1.269 35.59,2.148 53.195,5.273 12.512,2.219 24.445,6.621 37.133,8.086 33.121,3.891 67.848,3.891 101.367,3.891 -6.047,1.617 -12.797,0.91 -19.07,0.91 -9.859,0.043 -20.246,0.379 -30.106,0.988 -23.086,1.426 -46.289,0.828 -69.253,2.797 -15.188,1.309 -30.219,4.043 -45.165,6.746 -12.043,2.18 -24.085,3.813 -36.128,5.161 -5.485,0.648 -11.043,-0.133 -13.047,5.187 8.457,2.266 18.3,1.922 27.097,3.457 17.645,3.078 35.125,7.547 53.192,9.098 19.011,1.652 38.14,1.254 57.207,2.008 9.301,0.371 18.808,0.374 28.101,0.953 8.422,0.523 17.621,1.941 26.059,0.828 9.629,-1.563 7.062,-15.106 18.101,-15.414 10.563,-0.301 21.731,1.98 32.118,3.613 22.082,3.238 44.019,7.93 66.242,10.637 33.09,4.031 66.133,1.164 99.359,1.164 -1.765,-12.614 -1.449,-25.633 -4.015,-38.133 -19.446,0 -38.813,1.922 -58.211,2.726 -20.649,0.907 -41.692,0.696 -62.227,2.981 -25.144,2.801 -49.816,10.637 -75.269,10.637 2.972,-7.91 7.652,-15.254 11.793,-22.7 1.589,-2.722 3.125,-7.425 6.484,-8.972 4,-1.84 12.523,0 16.848,0.558 13.859,1.786 27.496,4.125 41.148,6.918 16.77,3.426 34.008,6.707 51.187,7.852 22.59,1.32 45.594,-0.906 68.247,-0.906 0,-12.153 -2.434,-24.196 -3.012,-36.317 -22.477,0 -44.824,1.817 -67.242,2.723 -15.332,0.574 -30.926,0.281 -46.168,2.078 -11.383,1.348 -22.078,5.738 -33.121,8.012 -8.028,1.715 -17.059,1.715 -25.09,1.715 4.656,-9.989 12.426,-19.571 16.058,-29.961 19.625,4.988 40.145,5.695 60.219,7.418 31.684,2.73 63.492,5.293 95.344,5.293 -1.668,-11.801 -3.008,-24.27 -3.008,-36.317 -48.285,0 -98.18,3.875 -145.527,12.711 2.629,-5.023 5.402,-9.988 7.023,-15.433 -21.402,0 -42.902,2.226 -64.234,3.632 -34.188,2.036 -67.586,3.149 -101.367,9.258 -12.356,2.238 -24.637,4.36 -37.133,5.789 -5.563,0.668 -10.789,-0.523 -13.047,4.926 m 739.684,0 c 16.054,0 33.117,-0.324 49.175,2.238 12.934,2.067 25.043,8 38.141,9.407 21.516,2.32 43.586,1.503 65.234,1.988 23.086,0.508 46.094,1.801 69.254,1.801 v 1.816 c -39.43,0 -79.062,2.035 -118.43,3.629 -18.16,0.687 -37.21,-0.906 -55.203,1.301 -12.293,1.59 -23.136,6.668 -35.125,8.988 -14.05,2.715 -29.855,2.422 -44.16,2.422 -7.027,0 -14.609,-1.781 -17.062,5.449 17.062,0 36.316,-1.742 53.191,1.516 12.906,2.488 23.719,9.824 37.137,11.039 10.035,1.062 20.863,0.156 31.113,0.156 18.887,0 38.137,0.195 57.207,0.941 15.391,0.61 30.711,0.875 46.168,0.875 5.016,0.008 13.047,2.395 17.805,0 6.281,-3.304 11.187,-12.023 15.312,-17.25 7.793,-9.453 14.051,-19.769 20.5,-29.961 5.477,-8.769 11.539,-18.437 14.629,-28.144 -24.383,0 -48.914,1.816 -73.265,2.723 -25.09,0.953 -50.379,-0.18 -75.274,1.972 -14.351,1.239 -28.234,5.438 -42.152,8.586 -14.051,3.149 -26.84,3.969 -41.149,3.969 -5.472,0 -11.632,-1.34 -13.046,4.539 m -1642.961,0 c 30.109,0 61.668,5.863 91.332,10.363 14.488,2.348 29.433,5.071 44.16,5.071 v 1.816 c -39.813,0 -78.047,10.059 -117.426,13.461 -9.035,0.781 -18.066,1.25 -27.102,2.121 -5.324,0.52 -9.793,0.441 -12.043,5.297 26.981,3.086 53.196,9.562 80.293,12.453 19.879,2.129 40.145,0.918 60.219,2.156 16.528,1.024 34.559,3.352 51.078,2.356 9.059,-0.551 7.133,-15.567 17.168,-15.965 17.871,-0.719 36.797,6.668 54.196,9.508 24.468,4.019 49.46,4.019 74.269,4.019 16.984,0.024 34.125,1.106 51.188,1.817 9.679,0.347 19.437,-0.52 29.105,0.082 8.41,0.519 16.633,0.828 25.09,0.828 3.211,0 7.808,0.707 10.648,-0.91 3.403,-2.086 5.352,-7.606 7.172,-10.895 4.688,-8.484 9.871,-16.84 14.297,-25.422 -40.156,0 -80.363,1.102 -120.437,2.727 -19.344,0.73 -38.93,-0.625 -58.211,1.062 -15.161,1.328 -29.395,7.106 -44.25,9.602 -14.965,2.543 -30.02,2.043 -45.075,2.043 l 8.032,-15.434 h -13.047 v -1.816 c 3.984,0 9.988,1.015 13.656,-0.543 4.617,-1.965 7.598,-10.703 8.422,-14.891 16.887,3.953 34.93,5.473 52.191,7.528 7.024,0.847 13.989,3.367 21.075,4.109 14.05,1.543 28.867,0.543 43.156,1.109 23.086,0.918 46.101,1.782 69.254,1.782 15.34,0.066 30.754,0.906 46.164,0.906 5.418,0 13.828,1.43 18.855,-0.543 3.696,-1.457 5.235,-6.422 6.992,-9.442 4.852,-8.773 11.29,-17.8 14.301,-27.238 -45.461,0 -91.117,0.91 -136.496,2.727 -21.078,0.906 -42.187,-0.324 -63.23,0.988 -13.496,0.84 -26.192,6.012 -39.141,9.102 -9.422,2.246 -18.422,2.617 -28.102,2.617 l 8.028,-15.434 c -18.449,0 -36.797,1.395 -55.199,1.817 -37.274,0.91 -73.614,1.582 -110.403,7.816 -12.043,2.172 -24.086,4.543 -36.129,5.648 -5.808,0.528 -11.734,-0.101 -14.05,5.602 m 1308.746,0.906 c 10.679,0.082 21.547,2.184 32.117,3.633 24.453,2.965 48.758,7.098 73.265,9.727 35.083,3.89 71.079,2.074 106.387,2.074 0,-13.039 4.016,-24.485 6.02,-37.223 -25.446,0 -50.883,1.817 -76.274,2.727 -14.601,0.539 -29.656,-0.446 -44.16,1.164 -16.234,1.805 -31.301,7.465 -47.172,10.637 -12.269,2.429 -24.64,1.816 -37.136,1.816 -6.02,0 -11.582,-0.891 -13.047,5.445 m -831.016,38.133 c 16.891,0 35.617,-1.668 52.191,1.516 12.875,2.468 23.957,9.383 37.133,10.933 12.047,1.426 24.895,0.719 37.137,1.203 18.062,0.719 36.129,1.989 54.195,2.688 -6.32,1.816 -13.511,0.91 -20.07,0.91 -10.277,0 -20.855,0.356 -31.113,0.988 -35.192,2.184 -69.637,4.176 -104.379,10.454 -11.039,1.968 -22.082,3.742 -33.121,4.746 -6.024,0.543 -11.41,-0.039 -14.051,5.601 29.504,0.551 57.887,10.895 87.316,12.711 14.973,0.906 30.11,-0.32 45.164,0.012 43.809,0.972 87.61,1.336 131.477,1.808 22.648,0.243 45.543,0.414 68.246,0.918 6.383,0.141 12.645,0.903 19.07,0.891 2.45,0 5.465,0.32 7.637,-0.906 3.402,-2.086 5.352,-7.606 7.172,-10.895 4.812,-8.711 10.16,-17.25 14.297,-26.328 l -163.594,-0.91 c 3.785,-5.863 6.723,-12.121 10.039,-18.156 3.613,-6.18 7.902,-12.368 10.035,-19.067 -21.371,0.16 -42.883,1.84 -64.234,2.727 -19.609,0.738 -39.75,-0.438 -59.215,2.086 -13.527,1.754 -25.48,7.996 -39.141,9.457 -12.226,1.308 -24.82,1.164 -37.136,1.164 -6.653,0 -12.762,-1.305 -15.055,5.449 m 823.992,0 c 16.059,0 32.332,-1.816 48.172,1.098 13.856,2.664 27.102,9.906 41.152,11.445 5.297,0.578 10.739,-0.008 16.059,0.203 l 48.172,1.817 c 32.754,1.296 65.535,3.593 98.359,3.593 -16.168,-10.148 -30.308,-20.136 -33.121,-39.039 -26.484,0 -52.871,1.645 -79.289,2.727 -16.676,0.621 -33.621,0 -50.18,2.074 -13.308,1.703 -26.097,5.77 -39.144,8.215 -11.742,2.187 -24.16,3.328 -36.129,3.328 -6.023,0 -11.41,-1.098 -14.051,4.539 m 6.02,39.039 c 22.082,1.578 44.402,4.969 66.242,8.399 8.32,1.308 16.695,3.402 25.09,4.156 34.047,3.23 68.176,3.043 102.371,3.801 39.75,0.894 79.683,1.597 119.433,0.023 28.102,-1.117 57.207,2.316 85.309,-0.687 21.078,-2.258 43.895,-0.258 65.238,-0.258 7.668,0 18.86,1.867 26.094,-0.547 4.774,-1.59 8.547,-6.277 12.043,-9.438 8.941,-8.086 21.074,-17.422 26.098,-28.144 -72.336,0 -144.528,4.738 -216.789,6.355 -35.832,0.907 -71.641,-0.91 -107.391,-1.804 -26.395,-0.582 -52.883,-0.012 -79.285,-0.012 -32.328,0 -62.59,5.883 -94.344,10.672 -5.621,0.847 -11.367,1.719 -17.062,2.039 -5.469,0.242 -11.672,-0.238 -13.047,5.445 M 744.844,433.34 v 5.445 c 16.945,0 34.586,0.656 51.187,4.02 9.231,1.867 17.762,6.011 27.098,7.492 8.73,1.383 17.328,0.738 26.094,1.281 12.968,0.824 26.093,1.734 39.144,1.734 10.367,0 20.727,0.692 31.11,0.922 3.789,0.082 9.222,1.926 12.656,-0.015 3.402,-2.063 5.359,-7.617 7.172,-10.895 4.812,-8.711 10.16,-17.25 14.297,-26.328 -26.114,0 -52.223,1.656 -78.286,2.723 -16.074,0.601 -32.168,0.222 -48.171,1.957 -27.567,2.996 -54.333,11.664 -82.301,11.664 m 215.785,5.445 c 12.043,0 24.066,0.395 36.129,0.906 6.004,0.204 12.043,-0.527 18.066,0.61 12.461,2.39 23.461,9.379 36.133,10.922 14.633,1.906 30.375,1.179 45.16,1.179 13.344,0 26.746,0.91 40.149,0.91 13.234,0.055 26.879,0.418 40.144,0.942 4.684,0.184 11.039,2.254 15.664,0.328 3.371,-1.453 4.641,-6.625 6.172,-9.441 4.91,-9.036 11.215,-18.461 14.297,-28.145 -31.121,0 -62.281,1.457 -93.34,2.723 -21.226,0.91 -43.203,-0.907 -64.234,1.937 -12.489,1.711 -23.766,7.598 -36.129,9.867 -13.649,2.497 -28.297,0.469 -42.152,1.661 -7.063,0.609 -12.649,-1.184 -16.059,5.601 m 881.195,33.594 -1.004,4.539 c 12.785,2.144 26.094,2.312 39.141,3.887 31.113,3.804 61.977,8.82 93.34,11.39 24.551,2.114 49.605,1.063 74.269,1.063 v 1.816 c -24.429,0 -48.925,1.137 -73.265,2.723 -12.043,0.66 -24.215,-0.156 -36.133,1.168 -15.879,1.765 -30.551,7.668 -46.164,10.215 -12.047,1.937 -24.09,2.238 -36.133,2.238 -6.023,0 -11.41,-1.098 -14.051,4.539 10.035,0 20.071,0.668 30.11,0.906 7.703,0.157 15.492,-0.562 23.082,0.922 12.722,2.488 24.07,9.457 37.136,10.723 13.43,1.304 27.641,0.156 41.149,0.156 h 81.297 c 0,-18.309 -2.364,-37.195 -4.735,-55.379 -0.523,-4.027 0.946,-14.5 -2.898,-17.226 -3.063,-2.168 -9.84,-0.024 -13.445,-0.024 -13.747,0.145 -27.45,0.91 -41.149,1.817 -19.246,1.109 -39.144,-0.172 -58.211,2.078 -14.051,1.64 -26.433,8.113 -40.148,10.632 -9.145,1.817 -18.809,0.907 -28.102,0.907 -8.031,0.035 -16.058,0.91 -24.086,0.91 m 263.957,5.445 c 30.004,0.223 59.215,9.988 89.324,11.805 14.618,0.906 29.508,-0.156 44.161,0 26.031,0.277 52.179,0.902 78.285,0.902 39.086,0.172 78.281,1.817 117.426,1.817 14.953,0 30.109,-0.844 45.164,0.082 12.492,0.828 27.574,2.855 39.968,0.586 5.196,-0.981 10.766,-5.438 15.407,-7.93 13.875,-7.66 31.472,-17.774 40.972,-29.961 -33.406,0 -66.98,1.063 -100.363,1.816 -44.508,0.973 -88.98,0 -133.484,0.922 -42.446,0.938 -84.957,1.801 -127.461,1.801 -28.223,0 -55.571,6.617 -83.305,10.508 -5.316,0.75 -10.703,1.578 -16.059,2.047 -2.613,0.234 -6.195,-0.317 -8.425,1.222 -1.61,1.082 -1.61,2.797 -1.61,4.383 M 744.844,472.375 v 5.449 c 9.34,0 18.039,0 27.097,2.203 10.247,2.657 19.5,7.493 30.11,9.176 4.976,0.793 10.039,0.192 15.054,0.504 17.055,1.059 34.106,1.094 51.188,1.77 9.523,0.375 19.648,0.125 29.105,1.132 4.012,0.43 10.809,1.993 14.414,-0.257 3.376,-2.157 5.126,-7.668 6.911,-10.895 4.672,-8.461 8.785,-17.055 13.804,-25.422 -20.113,0 -40.152,1.36 -60.218,1.817 -19.551,0.421 -39.836,-0.309 -59.215,2.203 -15.117,1.961 -29.387,7.144 -44.16,10.507 -7.536,1.54 -16.434,3.407 -24.09,1.813 m 218.793,4.539 c 14.703,3.93 31.992,-0.613 47.172,1.172 14.921,1.754 28.386,8.816 43.156,11.117 5.293,0.863 10.723,0.176 16.058,0.504 16.997,1.055 34.125,1.734 51.188,1.734 10.848,0.016 22.269,0.317 33.121,0.989 4.918,0.308 11.957,2.285 16.668,0.281 3.402,-1.469 5.07,-6.559 6.66,-9.441 4.774,-8.723 10.793,-17.848 13.805,-27.235 -24.692,0.059 -49.602,1.817 -74.27,2.723 -16.574,0.621 -33.711,-0.664 -50.183,1.168 -16.551,1.84 -31.754,8.433 -48.172,10.859 -12.426,1.836 -26.551,1.59 -39.145,1.59 -6.418,0 -13.047,-1.449 -16.058,4.539 m 251.914,0 c 5.754,1.539 12.047,0.91 18.066,0.91 9.606,0.016 20.629,0 30.11,1.305 13.503,1.926 25.464,9.012 39.14,10.336 6.305,0.617 12.742,-0.055 19.071,0.195 17.39,0.692 34.734,0.875 52.191,0.875 34.766,0 69.566,0.535 104.379,0.91 23.031,0.25 46.14,0.907 69.25,0.907 4.988,0 10.035,-0.274 15.054,0.156 3.676,0.312 8.258,1.656 11.829,0.203 3.711,-1.469 4.879,-6.422 6.496,-9.441 4.73,-8.848 10.777,-17.766 13.793,-27.235 -56.266,0 -112.426,2.113 -168.614,2.723 -22.086,0.234 -44.203,0.91 -66.238,0.91 -18.57,0 -37.797,-0.84 -56.207,1.426 -21.887,2.699 -43.394,7.062 -65.234,9.988 -7.086,0.945 -19.731,-0.863 -23.086,5.832 m 403.465,0 c 5.746,1.539 12.043,0.91 18.066,0.91 10.535,0 21.691,-0.176 32.117,1.18 12.539,1.637 23.399,8.808 36.129,10.348 14.027,1.832 28.992,0.656 43.156,1.218 20.375,0.871 40.832,2.309 61.223,2.688 v 1.816 c -24.484,0 -48.848,1.817 -73.266,2.723 -15.355,0.574 -30.921,0.121 -46.168,2.074 -14.734,1.891 -28.656,7.195 -43.156,10.039 -11.039,2.129 -22.078,1.504 -33.121,1.504 -6.555,0 -12.215,-0.906 -16.055,4.539 8.028,0 16.051,0.91 24.086,0.91 8.571,0.035 17.629,-0.785 26.094,0.555 16.676,2.652 32.352,9.121 49.18,10.988 15.965,1.774 33.094,0.258 49.176,0.258 h 34.125 c 4.015,0 11.019,1.168 14.664,-0.906 2.347,-1.379 3.402,-4.207 4.652,-6.356 l 7.535,-13.617 c 9.449,-17.223 18.656,-34.5 28.348,-51.75 -25.149,0 -50.188,1.817 -75.27,2.723 -17.265,0.648 -35.129,-0.207 -52.191,2.215 -13.383,1.89 -26.094,6.863 -39.141,9.398 -11.734,2.27 -23.187,2.004 -35.129,2.004 -6.234,0 -12.043,-1.234 -15.054,4.539 m -874.172,33.594 v 7.262 c 15.961,2.132 30.929,8.832 47.172,10.636 20.492,2.278 42.578,0.258 63.23,0.258 h 26.094 c 3.297,0 8.547,0.91 11.406,-0.906 2.914,-1.817 4.371,-6.301 5.902,-9.078 4.235,-7.657 9.188,-15.344 11.797,-23.606 -23.461,0 -46.851,1.817 -70.254,2.723 -17.296,0.648 -35.129,0 -52.191,2.09 -14.801,1.918 -28.258,8.906 -43.156,10.621 m 222.808,5.445 c 10.434,0 20.739,0.664 31.114,0.91 7.355,0.149 14.816,-0.523 22.082,0.731 14.379,2.488 27.625,9.097 42.152,10.808 14.297,1.684 29.742,0.262 44.16,0.262 h 32.117 c 3.739,0 10.035,1.106 13.411,-0.906 2.917,-1.817 4.371,-6.301 5.906,-9.078 4.168,-7.547 9.211,-15.434 11.793,-23.606 -21.075,0 -42.207,1.856 -63.227,2.723 -15.308,0.57 -31.113,0 -46.168,1.937 -14.82,2.028 -28.234,9.067 -43.195,10.774 -11.395,1.094 -23.617,0 -35.09,0 -6.469,0 -12.551,-0.906 -15.055,5.445 m 227.828,0 c 9.403,2.027 19.524,2.352 29.106,3.859 18.773,2.954 37.133,7.063 56.203,8.696 21.363,1.972 43.773,0.156 65.238,0.156 h 187.68 c 5.637,0 17.699,2.066 22.445,-0.906 2.914,-1.817 4.371,-6.301 5.903,-9.078 4.215,-7.621 9.183,-15.391 11.797,-23.606 -56.918,0 -113.766,2.106 -170.618,2.723 -22.082,0.234 -44.234,0.91 -66.242,0.91 -18.066,0 -36.367,-0.902 -54.195,1.293 -21.879,2.695 -43.391,7.152 -65.238,9.984 -7.356,0.95 -19.067,-1.777 -22.079,5.969 m 956.469,-5.445 -2.008,5.445 c 35.129,0 70.926,7.613 105.383,13.235 33.317,5.437 67.488,8.953 101.367,7.648 38.606,-1.563 77.282,-8.836 113.411,-21.266 9.921,-3.414 19.621,-7.351 29.105,-11.64 5.906,-2.672 11.781,-6.133 18.066,-7.95 -8.386,-3.183 -22.078,-0.906 -31.113,-0.906 -25.332,0 -50.969,0.906 -76.273,1.817 -15.364,0.574 -30.801,-0.329 -46.168,0.011 -22.348,0.493 -44.899,1.559 -67.246,1.801 -15.055,0.16 -30.215,-0.844 -45.164,0.086 -33.387,2.066 -65.786,11.719 -99.36,11.719"
       style="display:inline;fill:#000000;fill-opacity:1;fill-rule:nonzero;stroke:none"
       transform="scale(1.3333333)"
       sodipodi:nodetypes="ccccccccccccccccccccccccccssccscccsscccsccscccccsscccscccccccccccscccccccccccccccsccsccccssscccccsccccccccccccccccccccsccccccccccccscccccscccsscccsccccscccccccccccccccccccccccccccscccccccccscccccccccccsccccccsccccccscccssccccscscccsccscsssscccccccccscccccscccscccccccccccccccccccccccccccccccccccccccccccccccccccsscccscccccccsscccccccssccccccccccscccccccccccccccccssccccccccccccccccccccccccccccccccccsscccscccscccccccccsccsccccssccccccccccccsccccccccccccccscccccscccccccccccscccccccccccccccccccccccccccccccccccscccscccccccccsccccccccccccccccsccccccccccccccccsccccccccccccccccccccsccccccsccccccccccccccccscscccccccccccscccccccscccccsccccccccscccccccccccscccccccccccccccccccsccccscccccccccccscsccccccscccccccccccccccccccccccccccccssccccccscscccccsccccsccccccccsccccsscccccccsccccsscccccccccsssccccccsccccssccccsccccccccccsccccc" />
  </g>
</svg>
