<?xml version="1.0" encoding="UTF-8" standalone="no"?>
<!-- Created with Inkscape (http://www.inkscape.org/) -->

<svg
   version="1.1"
   id="svg1"
   width="2590.6667"
   height="637.66138"
   viewBox="0 0 2590.6668 637.66137"
   sodipodi:docname="neko_only_text.svg"
   inkscape:version="1.4.2 (f4327f4, 2025-05-13)"
   xmlns:inkscape="http://www.inkscape.org/namespaces/inkscape"
   xmlns:sodipodi="http://sodipodi.sourceforge.net/DTD/sodipodi-0.dtd"
   xmlns="http://www.w3.org/2000/svg"
   xmlns:svg="http://www.w3.org/2000/svg">
  <defs
     id="defs1" />
  <sodipodi:namedview
     id="namedview1"
     pagecolor="#ffffff"
     bordercolor="#000000"
     borderopacity="0.25"
     inkscape:showpageshadow="2"
     inkscape:pageopacity="0.0"
     inkscape:pagecheckerboard="0"
     inkscape:deskcolor="#d1d1d1"
     inkscape:zoom="0.3467542"
     inkscape:cx="1293.4234"
     inkscape:cy="-405.18615"
     inkscape:window-width="1920"
     inkscape:window-height="1177"
     inkscape:window-x="-8"
     inkscape:window-y="-8"
     inkscape:window-maximized="1"
     inkscape:current-layer="g1"
     showgrid="false">
    <inkscape:page
       x="0"
       y="0"
       inkscape:label="1"
       id="page1"
       width="2590.6667"
       height="637.66138"
       margin="0"
       bleed="0" />
    <inkscape:grid
       id="grid1"
       units="px"
       originx="-172"
       originy="-1749.4061"
       spacingx="1"
       spacingy="0.99999998"
       empcolor="#0099e5"
       empopacity="0.30196078"
       color="#0099e5"
       opacity="0.14901961"
       empspacing="5"
       enabled="true"
       visible="false" />
  </sodipodi:namedview>
  <g
     id="g1"
     inkscape:groupmode="layer"
     inkscape:label="1"
     transform="translate(-172,-1749.4062)">
    <path
       id="path1"
       d="m 1673,678 c 32.168,-0.089 63.927,-10.714 96,-13 15.854,-1 32,0 48,0 22.235,-0.009 44.695,-0.739 67,-1.004 47.953,-0.57 96,-2.599 144,-2.996 v -2 c -107.724,0 -215.309,-3.827 -323,-4 -25.55,-0.041 -51.775,-7.094 -77,-10.729 -8.647,-1.271 -21.614,0.572 -25,-9.271 30.794,0 60.262,-11.615 91,-13 21.915,-1 44,0 66,0 33.218,-0.053 66.708,-0.608 100,-1.004 67.306,-0.8 134.614,-1.996 202,-1.996 -11.028,38.295 -49.339,65.959 -86,76.421 -66.178,18.885 -136.149,8.426 -203,-0.997 -24.583,-3.465 -49.255,-6.699 -74,-8.513 -9.014,-0.661 -21.694,1.588 -26,-7.911 m -1380,0 c 18.247,0 37,1.498 55,-2.286 11.69,-2.465 21.953,-8.947 34,-10.428 15.741,-1.934 32,-0.631 48,-1.325 24.951,-1.093 50,-2.961 75,-2.961 -2.076,8.719 -1.404,18 -2.576,27 -0.424,2.593 0.258,7 -2.027,8.972 C 497.948,698.912 492.91,698 490,698 h -27 c -22.422,0 -45.776,1.867 -68,-1.286 -13.602,-1.929 -26.495,-7.258 -40,-9.714 -15,-2.538 -30,-2 -45,-2 -7.534,0 -14.435,1.534 -17,-7 m 258,0 c 29,-0.08 57.536,-8.122 86,-13 20.252,-3.332 40.508,-4 61,-4 h 33 c 3.727,0 10,-1.215 13.363,1 2.908,2 4.355,6.942 5.884,10 4.216,8.432 9.151,16.9 11.753,26 h -63 c -11,0 -22.168,0.862 -33,-0.17 -21.459,-2.043 -41.567,-10.612 -63,-12.66 C 590.842,684 578.221,684 566,684 c -6.077,-0.002 -12.588,0.58 -15,-6 m 236,-1 c 17.742,0 36.504,1.759 54,-1.424 12,-2.199 22.563,-9.615 35,-10.576 19.214,-1.257 38.743,0.457 58,-0.015 44.635,-1.093 89.299,-1.985 134,-1.985 18.651,0 37.293,-1 56,-1 5.678,0 16.698,-2.105 21.61,1 2.853,1.848 4.191,6 5.637,9 3.945,7.89 9.753,17 10.753,26 H 986 c -37.578,0 -75.755,2 -113,-3.421 -21.012,-3.111 -42,-6.794 -63,-9.293 -9.08,-1.076 -19,1.423 -23,-8.286 m 404,1 c 18.613,0 38.68,1.383 57,-2.095 10,-1.91 18.778,-8.128 29,-9.605 19.958,-2.884 40.87,-1.822 61,-2.315 9.799,-0.24 20.236,-0.225 30,-1.155 5,-0.481 12.789,-2.494 17.61,-0.227 3.202,1.397 4.668,6.397 6.143,9.397 4.199,8.398 9.644,16.963 12.247,26 h -67 c -11.536,0 -23.515,0.924 -35,-0.17 -20.427,-1.945 -39.702,-9.491 -60,-12.254 -12.091,-1.645 -24.808,-0.576 -37,-0.577 -6.365,-0.03 -12.133,-0.078 -14,-6.999 m 223,1 c 11,0 21.978,-0.478 33,-1 6.606,-0.25 13.465,0.712 20,-0.465 12.717,-2.288 24.175,-9.535 37,-11.235 4.631,-0.662 9.347,-0.071 14,-0.389 17.292,-1.185 34.65,-1.709 52,-1.915 9.286,-0.11 18.673,-0.782 28,-1.011 3.231,-0.079 6.81,-1.254 10,-0.632 4.709,0.919 8.559,5.464 12,8.492 5.979,5.155 11.979,10.52 18,15.731 3.987,3.424 8.598,6.679 11,11.424 h -84 c -14.163,0 -29,1.173 -43,-0.17 -17.555,-1.83 -33.636,-8.914 -51,-11.402 -13,-1.86 -27,-1.428 -40,-1.428 -7.184,0 -13.606,1.466 -17,-6 M 767,635 c 28.827,0 56.343,-11 85,-13 10.627,-0.638 21.36,0.427 32,-0.039 48.87,-2.14 98,-1.961 147,-1.961 22.623,0 45.309,-1 68,-1 h 17 c 2.584,0 6,-0.542 8.363,1 3.364,2.377 5.107,8.447 6.884,12 4.633,9.265 9.753,18.437 13.753,28 -28,0 -56.04,-1.3 -84,-2 -36.359,-1 -72.696,-0.371 -109,-2 -32.292,-1.375 -64.806,0.918 -97,-2.075 -22.41,-2.083 -44.725,-7.147 -67,-10.346 -8,-1.126 -19.443,1.105 -21,-8.579 m 403,1 c 30.935,0 61.255,-11 92,-13.83 24,-2.3 48.773,-1.421 73,-3.17 7.683,-0.437 15.445,0.799 23,-1 -6.14,-1.815 -12.665,-0.656 -19,-1.089 -14.003,-0.959 -28,-1.336 -42,-1.95 -33.629,-1.473 -67,-3.436 -100,-9.961 -11.588,-2.279 -23.269,-4 -35,-5.166 C 1155.724,599 1150.436,599 1149,592 c 24,0 47.317,-7.527 71,-10.718 18.288,-2.463 36.615,-2.516 55,-3.321 18.621,-0.961 37.364,-2.736 56,-2.961 3.415,-0.037 8.594,-1 11.61,1 4.829,3 4.825,10.692 9.027,14.397 2.934,2.586 8.74,1.603 12.363,1.564 15.866,-0.701 30.248,-10.276 46,-12.533 14.254,-2.042 29.597,-1.09 44,-1.443 18.351,-0.449 36.587,-1.985 55,-1.985 -16,-4.71 -35.512,-2 -52,-2 -29.085,0 -58.233,-0.19 -87,-5 -10.661,-1.673 -22,-3.173 -32,-7 l 5,12 c -25.032,0 -50.025,-2 -75,-3 -30.521,-1.297 -60,-2.384 -90,-8.4 -12,-2.375 -24,-4.6 -36,-5.675 -5.605,-0.521 -11.814,0.019 -14,-5.925 8.211,-2.779 17.436,-3 26,-4.13 14.674,-2.045 29.283,-4.545 44,-6.041 12.398,-1.259 24.579,-4.999 37,-6.544 19.476,-2.424 39.386,-3.285 59,-3.285 v -2 c -26.152,0 -53,0.308 -79,-2.17 -19.728,-1.879 -39.308,-7.375 -59,-8.83 -10.037,-0.606 -20,-2.399 -30,-3 -7.698,-0.393 -15,0.329 -19,-7 38,-0.025 76.404,-9.775 114,-14.718 44.665,-5.873 90,-6.448 135,-3.372 13.214,0.905 26.754,0.09 40,0.09 5.448,0 12.827,-1.28 18,0.603 5.643,2.053 10.523,8.127 15,11.973 10.615,9.119 20.867,18.949 32,27.424 -4.215,1.769 -9.465,1 -14,1 h -28 c -11.334,0 -22.607,1 -34,0.996 -21,-0.249 -42.063,-1.564 -63,-1.996 2,5 5.334,9.737 7,15 32.815,-8 67.282,-11 101,-11 8,0 15.995,-1 24,-1 3.266,-0.015 6.966,-0.43 10,1 10.232,4.878 19.52,16.278 28,23.715 21.89,19.2 42.847,40.644 66,58.285 -5,2 -11.65,1 -17,1 -14,0 -28.216,-0.518 -42,-1.83 -7.287,-0.694 -14.693,0.111 -22,-0.209 -12.65,-0.554 -25.35,-1.368 -38,-1.961 -6.313,-0.237 -12.713,0.466 -19,-0.286 C 1398.38,610 1379,600 1357,600 c 2.937,8.624 7.179,16.864 11.247,25 1.569,3 3.051,8 6.143,9.972 5.137,3.277 15.1,-0.123 20.61,-1.053 18.76,-3.168 37,-8.369 56,-10.633 21.172,-2.533 42.801,-0.438 64,-2.456 8.327,-0.83 16.696,-0.209 25,-1 6.229,-0.593 13.854,-2.161 20,-0.316 5.401,1.486 9.876,7.141 14,10.772 10.398,9.154 23.919,18.479 32,29.714 -25.624,0 -51.412,-2 -77,-3 -23,-1 -46.122,0 -69,-2.17 -16.66,-1.612 -32.713,-7.83 -49.089,-10.571 C 1399.872,642.315 1388.172,643 1377,643 c 3,5.349 6.282,11 8,17 -9.039,-1.142 -18,-0.469 -27,-1.089 -25.635,-1.911 -51.322,-1.911 -77,-2.95 -20.379,-0.961 -40,-5.01 -60,-7.672 -12.285,-1.622 -24.552,-4.289 -37,-5.289 -6.182,-0.411 -12.28,-10e-4 -14,-7 m -899,0 c 36,-0.299 72.272,-9.02 108,-13.718 36,-4.737 71.706,-5.282 108,-5.282 -7.435,-2.198 -16.277,-1 -24,-1 -12.603,-10e-4 -25.358,-0.705 -38,-1.015 -40.096,-0.985 -80.383,-1.339 -120,-8.235 -13.332,-2.321 -26.496,-5.42 -40,-6.75 -6.512,-0.531 -12.814,0 -15,-7 30.747,0 60.494,-11 91,-13.83 17.588,-1.675 35.359,-0.437 53,-1.209 39.253,-1.719 78.67,-2.961 118,-2.961 -1.331,5.592 -1,11.283 -1,17 24.267,-0.016 48,-8.21 72,-11.728 23.64,-3.483 48,-2.702 72,-3.287 10,-0.248 20.909,-0.194 31,-1.155 4.492,-0.427 11.487,-2.432 15.61,0.17 3.33,2 4.944,7.615 6.637,11 4.753,9.546 10.753,19.751 13.753,30 -21.293,-0.176 -42.727,-2.029 -64,-3 -19.596,-0.819 -39.5,0 -59,-2.286 C 569.464,608.218 539.819,599 510,599 c -1.571,19.908 -5,40 -5,60 -26.297,0 -52.742,-1.811 -79,-3 -21.238,-1 -43,0.556 -64,-2.289 -12.776,-1.721 -25.422,-6.235 -38,-9.06 C 312,641.965 300.18,642 288,642 c -7.274,0 -13.376,1.37 -17,-6 m 257,0 c 10,0 20,-1 30,-1 7.432,-0.035 15.703,1 23,-0.518 12.453,-2.641 23.353,-10.052 36,-12.043 18.83,-2.964 38.967,-1.987 58,-2.454 9.728,-0.238 20.355,-0.143 30,-1.409 4.678,-0.615 13.402,-2.233 17.61,0.424 3.33,2 4.944,7.615 6.637,11 4.675,9.349 10.753,18.943 13.753,29 -22.707,0 -45.348,-2 -68,-3 -17.525,-0.728 -35.609,0.185 -53,-2.3 -14.119,-2.017 -26.733,-9.229 -41,-11.272 C 569,640.713 556,642 544,642 c -7,0 -12.73,1.193 -16,-6 m 218,-43 c 31.887,-0.264 62.377,-13.819 94,-16.83 18.671,-1.778 38.241,-0.17 57,-0.17 h 112 68 18 c 2.702,0 6.213,-0.501 8.61,1 3.33,2 4.945,7.615 6.637,11 4.749,9.5 9.673,19.2 13.753,29 -55.724,0 -111.348,-2.334 -167,-3 -21.333,-0.25 -42.722,-1 -64,-1 -19.543,0 -39.619,0.799 -59,-1.718 -22.137,-2.876 -44,-7.744 -66,-10.858 -7.392,-1.042 -19.038,0.811 -22,-7.424 m 812,0 c 31.352,-0.26 61.635,-12.587 93,-14 21.579,-1 43.399,0 65,0 32.57,0 65.363,-0.616 98,-1.004 85.968,-1.022 171.964,-2.996 258,-2.996 -2,10.393 -3.052,20.703 -5.626,31 -0.813,3.251 -1.196,8.793 -4.653,10.397 -2.743,1.272 -6.778,0.603 -9.721,0.603 h -20 c -24.724,0 -49.306,-1 -74,-1 -90.69,0 -181.293,-3 -272,-3 -33.101,0 -64.368,-6.518 -97,-11 -6.66,-1 -13.336,-1.486 -20,-2.286 -2.59,-0.31 -6.34,-0.248 -8.566,-1.736 -1.801,-1.205 -2.03,-3.041 -2.434,-4.978 m -35,-43 c 16.469,0 33.735,1.49 50,-1.463 14.595,-2.649 28.245,-9.537 43,-11.251 6.609,-0.811 13.36,-0.035 20,-0.325 19.337,-0.961 38.624,-1.501 58,-1.976 10.203,-0.25 20.8,-0.376 31,-1.074 6.962,-0.477 15,-2.317 22,-0.593 3.925,0.978 6.947,4.414 10,6.877 4.812,3.805 9.841,7.401 15,10.802 14.928,9.843 30.911,16.477 47,24.003 -6.138,2.576 -13.582,0.32 -20,0 -13,-0.527 -26.077,-1 -39,-1 -26,0 -52.072,-1.825 -78,-3 -21.764,-1 -44.439,0.955 -66,-2.439 -10.273,-1.617 -20.11,-6.128 -30,-9.214 -14.781,-4.612 -31.677,-3.347 -47,-3.347 -6.559,0 -14.084,1.799 -16,-6 m -1295,0 c 29,-0.003 57,-11 86,-13 21.615,-1.391 43.354,-0.092 65,-1.039 C 424.245,533.979 469.663,533 515,533 l -1,15 c 21.414,-0.059 42.835,-8.541 64,-11.572 6.296,-0.901 12.676,-0.084 19,-0.517 14.975,-1.026 29.974,-1.736 45,-1.915 8.855,-0.105 18,-0.479 27,-1.085 3.715,-0.255 8.312,-1.927 11.787,0.089 3.558,2 5.211,7.49 6.966,11 4.777,9.554 10.247,19.732 13.247,30 -8.708,-1.101 -17.276,-0.492 -26,-1.089 -30.578,-2.094 -61.484,-1.126 -92,-4.081 -12.734,-1.233 -24.683,-6.275 -37,-9.355 -11,-2.75 -21.713,-3.475 -33,-3.475 0,4 1,14 -2.603,16.968 -2.924,2.244 -9.9,0.032 -13.397,0.032 -12.293,-0.058 -24.788,0.726 -37,-0.714 -12.508,-1.476 -25.426,0.225 -38,-0.325 -44.115,-1.961 -88.278,-0.212 -132,-7.547 -15,-2.51 -30,-6.089 -45,-7.414 -7.057,-0.618 -14.289,0.507 -17,-7 m 1615,0 c 15,0 30,2 45,-0.614 15.183,-2.756 29.719,-10.571 45,-12.212 16.801,-1.806 34,-0.474 51,-1.213 28.939,-1.268 58,-2.961 87,-2.961 l 1,41 c -25.624,-1.1 -51.361,-2.357 -77,-3 -16,-0.376 -32.137,0.416 -48,-1.171 -16.357,-1.635 -32,-8.019 -48,-10.533 -13.58,-2.118 -27.355,-2.828 -41,-4.126 -6.142,-0.585 -12.162,1.518 -15,-5.17 m -1117,5 -1,-4 c 5.216,-1.542 10.61,-0.803 16,-1.039 11,-0.486 23,-0.458 34,-2.287 12.228,-2.038 23.703,-8.315 36,-10.388 15.717,-2.65 32,-1.63 48,-2.325 17.685,-0.775 35.254,-1.961 53,-1.961 v -2 C 862.791,531 814,521.443 765,517.946 761.575,517.699 758.506,516 754.996,516 742.696,515.565 730.215,515 718,513.424 712,512.643 706.486,514 705,507 c 24,-0.496 49.319,-5.442 73,-9.414 8.875,-1.586 18,-3.868 27,-4.586 21.585,-1.423 43.379,-0.093 65,-1.039 53.537,-2.345 107.361,-2.961 161,-2.961 -9.123,-2.697 -20.511,-1 -30,-1 -17.378,0 -34.609,-1 -52,-1 -29.327,0 -58.706,-2 -88,-2 -17.374,-0.083 -34.689,-0.561 -52,-1 -15.156,-0.357 -30,0.225 -45,-2 -20.466,-2.715 -40.475,-8.161 -61,-10.715 -7.325,-0.912 -17.447,1.032 -20,-7.285 12.734,0 25.323,-0.042 38,-1 4.68,-0.231 9.38,0.364 14,-0.68 12.835,-2.9 23.553,-11.32 37,-12.32 15.19,-1 30.771,0 46,0 22.234,-0.036 44.695,-0.738 67,-1.004 46.314,-0.551 92.612,-1.996 139,-1.996 -11,-3.682 -23.652,-2 -35,-2 -18.046,0 -36,-1 -54,-1 -28.324,0 -56.705,-1.66 -85,-2 -34.502,-0.407 -69.73,1.256 -104,-3 -21.488,-2.416 -42.558,-7.622 -64,-10.575 -7,-0.957 -18.244,0.997 -20,-7.425 13,0 26,0.402 39,-0.83 4.708,-0.448 9.366,0.121 14,-1.17 13.378,-3.431 23.896,-13.418 38,-14.829 18.961,-1.898 38.94,-0.171 58,-0.171 h 116 67 17 c 2.703,0 6.213,-0.501 8.61,1 3.092,2 4.574,6.861 6.143,10 3.833,7.665 7.71,15.309 11.491,23 7.756,15.887 14.643,32.428 23.065,48 7.61,14 17.254,29.599 21.691,45 H 920 c 4.302,14.934 15.704,27 20,42 -26.363,0 -52.697,-1.809 -79,-3 -13.226,-0.54 -27,0.418 -40,-1.289 C 807.469,566.952 795.287,560 782,557.45 770.551,555 758.626,556 747,556 c -7.052,0 -14,-1 -21,-1 M 207,508 c 37,0 73.194,-11.328 110,-14.83 23.531,-2.24 47.393,-1.176 71,-2.209 C 423.882,489.389 460,487 496,487 484.902,483.628 472.465,482.51 461,480.586 438.771,476.857 416.582,473 394,473 c 2.994,5 5.717,10.517 8,16 -23.722,0 -47.339,-2 -71,-3 -31.797,-1.353 -62.622,-2.325 -94,-8.6 -12,-2.4 -24,-4.4 -36,-5.976 -6.421,-0.853 -11.753,0.895 -14,-6.424 24.987,-0.207 49.354,-9.398 74,-12.718 22.529,-3.034 45.503,-0.913 68,-3.567 12.438,-1.468 25.47,-1.715 38,-1.716 3.728,-0.018 9.427,-1.999 12.787,10e-4 4.213,2.464 7.191,10.668 9.213,15 59.369,-16.69 122.901,-16 184,-16 h 45 c 5.471,0 14.6,-1.753 19.61,0.603 3.39,1.617 5.052,7.227 6.637,10.397 4.965,9.931 12.753,21 14.753,32 -26,0 -52.034,-0.622 -78,0 -21.051,0.53 -42,1.662 -63,0 l -1,16 c 34,-8.407 71,-10.696 106,-13.09 8.958,-0.614 18,-1.91 27,-1.91 3,-0.014 7.715,-0.82 10.363,1 3.135,2.216 4.637,7.695 6.39,11 4.619,9.237 9.508,18.362 13.247,28 -27.318,0 -54.778,-1.046 -82,-3 -11.649,-0.708 -23.392,0.355 -35,-1.3 -16,-2.266 -31.247,-7.732 -47,-10.7 l -1,16 c -21.277,0 -42.751,-1.03 -64,-2 -28.316,-1.201 -56.702,-0.721 -85,-2 -29.458,-1.25 -58.767,0.624 -88,-4.247 -11,-1.814 -22.027,-3.038 -32.83,-5.012 C 240,516.8 235.345,515 230,515 c -8.322,-0.192 -18.755,1.229 -23,-7 m 1635,0 c 7,0 13.981,-0.813 21,-1 10.646,-0.246 21.493,0.485 32,-1.666 12.947,-2.651 24.848,-9.334 38,-11.045 13.243,-1.725 26.688,-0.745 40,-1.328 29.957,-1.312 59.979,-2.961 90,-2.961 1.85,13.735 6.711,26.996 7,41 -23.28,-0.003 -46.747,-2 -70,-3 -19.266,-0.804 -39,0.23 -58,-2.289 -15.7,-2.066 -30.218,-8.711 -46,-10.425 -13.684,-1.621 -27.308,-0.438 -41,-1.375 -5.249,-0.36 -12,0.089 -13,-5.911 m -345,0 c 54.445,-2.338 107.334,-19 162,-19 h 33 c 5.259,0 12.912,-0.46 17.816,1.603 4.484,1.888 7.837,8.708 10.784,12.397 7.385,9.245 16.62,17.375 23.4,27 -25.696,0 -51.351,-1.691 -77,-2 -14.032,-0.163 -28.023,-0.643 -42,-1 -9,-0.204 -18.123,0.776 -27,-0.286 -16.154,-1.932 -31.214,-7.271 -47,-10.826 -12.066,-2.717 -24.697,-2.888 -37,-2.888 -6.741,0 -13.025,1.359 -17,-5 m -410,-43 c 15.409,0 31.844,1.649 47,-1.45 11.98,-2.55 23,-8.294 35,-11.55 6.318,-1.498 13.488,-1.465 20,-2 17.26,-1.093 34.715,0.718 52,-0.039 58.847,-2.577 118,-2.961 177,-2.961 -3.155,13.251 -3,28.399 -4,42 -42.338,0 -84.695,-2.493 -127,-3 -19.018,-0.222 -38.024,-1 -57,-1 -15.427,0 -31.745,0.962 -47,-1.439 -9.282,-1.561 -18.043,-5.171 -27,-7.84 -16.254,-4.843 -33.162,-4.721 -50,-4.721 -6.808,0 -16,1.305 -19,-6 m 394,-1 c 18.852,0 37.499,-1.293 56,-5.211 12.82,-2.789 24.969,-7.474 38,-9.361 20.526,-2.972 41.304,-2.428 62,-2.428 12,0 23.946,-1 36,-1 3.689,0 10.189,-1.231 13.351,1 3.39,2.449 5.072,9.351 6.896,13 4.753,9.68 12.055,18.9 15.753,29 -30.643,-0.633 -61.379,-2.62 -92,-4 -13.578,-0.555 -27.509,0.464 -41,-1.289 -14.194,-1.845 -27,-8.836 -41,-11.45 -12.701,-2.371 -26.131,-1.29 -39,-2.261 -6.339,-0.345 -13.369,1.82 -15,-6 m 351,1 c 17.207,0 36,0.463 53,-2.614 14.577,-2.646 28.27,-9.182 43,-11.097 20.437,-2.655 41.44,-1.428 62,-2.328 13.613,-0.596 27.37,-1.961 41,-1.961 4,-0.002 11.802,-1.459 15.363,1 2.9,2 4.193,6.87 5.433,10 3.825,9.655 8.204,20.6 9.204,31 -28.127,0 -57,1.832 -85,-0.09 -30.279,-2.073 -60.085,-7.91 -90,-12.91 -13.144,-2.093 -26.688,-4.356 -40,-5 -5.7,-0.219 -12.528,0.75 -14,-6 m -767,-43 c 21.361,-1.686 41.963,-7.456 63,-10.571 22.848,-3.429 46.93,-4.429 70,-4.429 11.989,-0.019 24,-2 36,-2 5.841,-0.066 12.459,1.255 17,-3 -25.73,0 -51.339,-2 -77,-3 -28.454,-1.207 -56.033,-2.541 -84,-9 -11.228,-2.425 -22.571,-3.167 -34,-4.086 -5.416,-0.435 -11,-0.263 -13,-5.914 17.741,-1.4 35.459,-2.364 53,-5.804 12.468,-2.445 24.358,-7.297 37,-8.911 33,-4.285 67.6,-4.285 101,-4.285 -6.026,-1.781 -12.75,-1 -19,-1.001 -9.826,-0.047 -20.174,-0.416 -30,-1.089 -23,-1.569 -46.121,-0.91 -69,-3.08 -15.134,-1.441 -30.11,-4.456 -45,-7.43 -12,-2.4 -24,-4.2 -36,-5.685 -5.465,-0.715 -11,0.147 -13,-5.715 8.431,-2.492 18.236,-2.113 27,-3.803 17.583,-3.392 35,-8.314 53,-10.027 18.942,-1.817 38,-1.377 57,-2.209 9.267,-0.406 18.738,-0.416 28,-1.051 8.389,-0.574 17.556,-2.136 25.96,-0.91 9.593,1.717 7.04,16.635 18.04,16.977 10.525,0.332 21.65,-2.182 32,-3.977 22,-3.569 43.858,-8.735 66,-11.718 32.972,-4.441 65.893,-1.282 99,-1.282 -1.756,13.894 -1.445,28.236 -4,42 -19.376,0 -38.672,-2.114 -58,-3 -20.573,-1 -41.541,-0.766 -62,-3.286 -25.054,-3.087 -49.635,-11.714 -75,-11.714 2.966,8.712 7.626,16.801 11.752,25 1.582,3 3.116,8.179 6.461,9.883 3.985,2.029 12.478,0.002 16.787,-0.612 13.81,-1.968 27.393,-4.546 41,-7.621 16.708,-3.775 33.882,-7.388 51,-8.65 22.509,-1.452 45.431,1 68,1 -10e-4,13.387 -2.427,26.65 -3,40 -22.397,0 -44.664,-2 -67,-3 -15.277,-0.63 -30.812,-0.31 -46,-2.289 -11.342,-1.479 -22,-6.321 -33,-8.823 C 1267,386 1258,386 1250,386 c 4.64,11 12.378,21.554 16,33 19.553,-5.495 40,-6.272 60,-8.17 31.572,-3.004 63.262,-5.83 95,-5.83 -1.663,13 -3,26.731 -3,40 -48.109,0 -97.82,-4.267 -145,-14 2.622,5.534 5.381,11 7,17 -21.325,0 -42.745,-2.455 -64,-4 -34.066,-2.243 -67.344,-3.467 -101,-10.2 -12.313,-2.463 -24.548,-4.8 -37,-6.376 -5.542,-0.736 -10.749,0.576 -13,-5.424 m 737,0 c 16,0 33,0.357 49,-2.464 12.887,-2.278 24.953,-8.813 38,-10.366 21.438,-2.552 43.431,-1.656 65,-2.185 23,-0.563 45.924,-1.985 69,-1.985 v -2 c -39.287,0 -78.772,-2.243 -118,-4 -18.092,-0.753 -37.073,1 -55,-1.428 -12.251,-1.755 -23.055,-7.351 -35,-9.903 -14,-2.988 -29.746,-2.669 -44,-2.669 -7,0 -14.555,1.964 -17,-6 17,0 36.183,1.918 53,-1.669 12.86,-2.743 23.631,-10.824 37,-12.16 10,-1.171 20.79,-0.171 31,-0.171 18.82,0 38,-0.214 57,-1.039 15.337,-0.672 30.603,-0.961 46,-0.961 5,-0.008 13,-2.642 17.741,0 6.259,3.635 11.144,13.241 15.259,19 7.763,10.41 14,21.773 20.424,33 5.458,9.661 11.496,20.308 14.576,31 -24.294,0 -48.74,-2 -73,-3 -25,-1.051 -50.197,0.2 -75,-2.17 -14.299,-1.366 -28.131,-5.989 -42,-9.457 -14,-3.471 -26.744,-4.373 -41,-4.373 -5.453,0 -11.588,1.472 -13,-5 m -1637,0 c 30,0 61.445,-6.457 91,-11.414 C 270.439,408 285.328,405 300,405 v -2 c -39.667,0 -77.763,-11.081 -117,-14.83 -9,-0.859 -18,-1.372 -27,-2.336 -5.303,-0.568 -9.758,-0.483 -12,-5.834 26.883,-3.397 53,-10.532 80,-13.715 19.807,-2.344 40,-1.012 60,-2.375 16.468,-1.127 34.432,-3.69 50.896,-2.592 9.022,0.602 7.104,17.141 17.104,17.584 17.804,0.79 36.666,-7.346 54,-10.478 C 430.377,364 455.282,364 480,364 c 16.923,-0.027 34,-1.22 51,-2 9.644,-0.383 19.368,0.57 29,-0.09 8.379,-0.573 16.575,-0.91 25,-0.91 3.199,0 7.776,-0.78 10.61,1 3.39,2.296 5.332,8.377 7.143,12 4.673,9.345 9.835,18.549 14.247,28 -40.013,0 -80.07,-1.212 -120,-3 -19.275,-0.805 -38.791,0.689 -58,-1.17 C 423.894,396.368 409.71,390 394.91,387.255 380,384.454 365,385 350,385 l 8,17 h -13 v 2 c 3.971,0 9.954,-1.116 13.61,0.603 4.598,2.163 7.568,11.787 8.39,16.397 16.823,-4.353 34.802,-6.028 52,-8.289 7,-0.934 13.936,-3.711 21,-4.527 14,-1.699 28.763,-0.6 43,-1.223 23,-1.008 45.932,-1.961 69,-1.962 15.284,-0.073 30.644,-0.999 46,-0.999 5.397,0 13.778,-1.576 18.787,0.603 3.68,1.601 5.213,7.07 6.966,10.397 4.832,9.663 11.247,19.607 14.247,30 -45.294,0 -90.784,-1 -136,-3 -21,-1 -42.034,0.354 -63,-1.09 -13.449,-0.926 -26.097,-6.622 -39,-10.026 C 390.615,428.409 381.645,428 372,428 l 8,17 c -18.383,0 -36.664,-1.536 -55,-2 -37.137,-1 -73.346,-1.743 -110,-8.611 -12,-2.389 -24,-5.004 -36,-6.22 -5.784,-0.58 -11.692,0.113 -14,-6.169 m 1304,-1 c 10.642,-0.088 21.468,-2.402 32,-4 24.365,-3.265 48.581,-7.815 73,-10.715 34.955,-4.285 70.819,-2.285 106,-2.285 0,14.364 4,26.971 6,41 -25.356,0 -50.699,-2 -76,-3 -14.546,-0.598 -29.548,0.489 -44,-1.286 -16.177,-1.987 -31.186,-8.221 -47,-11.714 -12.224,-2.676 -24.549,-2 -37,-2 -6,0 -11.544,0.981 -13,-6 M 641,379 c 16.827,0 35.483,1.834 52,-1.669 12.83,-2.721 23.872,-10.336 37,-12.042 12,-1.573 24.8,-0.794 37,-1.328 17.996,-0.788 36,-2.188 54,-2.961 -6.298,-2 -13.463,-1 -20,-1 -10.24,0 -20.778,-0.39 -31,-1.09 -35.063,-2.401 -69.383,-4.597 -104,-11.51 -11,-2.17 -22,-4.124 -33,-5.231 -6,-0.597 -11.367,0.041 -14,-6.169 29.399,-0.607 57.676,-12 87,-14 14.917,-1 30,0.352 45,-0.015 43.648,-1.069 87.292,-1.469 131,-1.989 22.567,-0.268 45.38,-0.456 68,-1.011 6.359,-0.155 12.598,-0.998 19,-0.985 2.441,0 5.447,-0.352 7.61,1 3.39,2.296 5.332,8.377 7.143,12 4.797,9.595 10.124,19 14.247,29 l -163,1 c 3.771,6.461 6.695,13.352 10,20 3.603,6.809 7.874,13.62 10,21 -21.293,-0.176 -42.727,-2.029 -64,-3 -19.538,-0.816 -39.604,0.479 -59,-2.3 -13.482,-1.932 -25.392,-8.804 -39,-10.415 C 680.818,384.844 668.268,385 656,385 c -6.627,0 -12.717,1.437 -15,-6 m 821,0 c 16,0 32.216,2 48,-1.211 13.803,-2.934 27,-10.91 41,-12.605 5.276,-0.639 10.698,0.009 16,-0.223 l 48,-2 c 32.633,-1.429 65.296,-3.961 98,-3.961 -16.108,11.181 -30.194,22.181 -33,43 -26.388,0 -52.679,-1.808 -79,-3 -16.618,-0.688 -33.499,0 -50,-2.285 -13.256,-1.88 -26,-6.354 -39,-9.049 -11.698,-2.413 -24.073,-3.666 -36,-3.666 -6,0 -11.366,1.207 -14,-5 m 6,-43 c 22,-1.738 44.24,-5.471 66,-9.25 8.29,-1.44 16.635,-3.75 25,-4.58 33.921,-3.556 67.928,-3.35 102,-4.185 39.604,-0.985 79.395,-1.759 119,-0.024 28,1.232 57,-2.549 85,0.754 21,2.49 43.736,0.285 65,0.285 7.641,0 18.792,-2.054 26,0.603 4.754,1.753 8.515,6.912 12,10.397 8.905,8.905 20.998,19.186 26,31 -72.072,0 -144,-5.221 -216,-7 -35.705,-1 -71.382,1 -107,1.985 -26.299,0.645 -52.693,0.015 -79,0.015 -32.212,0 -62.364,-6.482 -94,-11.753 -5.602,-0.933 -11.327,-1.896 -17,-2.247 -5.449,-0.268 -11.634,0.26 -13,-6 m -1339,6 v -6 c 16.881,0 34.461,-0.724 51,-4.425 9.201,-2.059 17.701,-6.624 27,-8.254 8.699,-1.525 17.264,-0.812 26,-1.411 12.923,-0.91 26,-1.91 39,-1.91 10.333,0 20.652,-0.761 31,-1.015 3.774,-0.092 9.186,-2.12 12.61,0.015 3.39,2.275 5.338,8.39 7.143,12 4.797,9.595 10.124,19 14.247,29 -26.019,0 -52.036,-1.824 -78,-3 -16.021,-0.662 -32.054,-0.241 -48,-2.155 C 183.534,351.548 156.866,342 129,342 m 215,-6 c 12,0 23.982,-0.434 36,-1 5.979,-0.222 12,0.582 18,-0.669 12.414,-2.633 23.376,-10.331 36,-12.031 14.581,-2.101 30.267,-1.3 45,-1.3 13.293,-0.005 26.647,-1 40,-1.001 13.187,-0.063 26.782,-0.46 40,-1.038 4.668,-0.205 11,-2.48 15.606,-0.358 3.36,1.598 4.626,7.296 6.15,10.397 4.894,9.954 11.172,20.336 14.244,31 -31.007,0 -62.055,-1.605 -93,-3 -21.147,-1 -43.047,1 -64,-2.134 -12.445,-1.882 -23.678,-8.366 -36,-10.866 -13.598,-2.751 -28.19,-0.516 -42,-1.83 -7.034,-0.67 -12.603,1.302 -16,-6.17 m 878,-37 -1,-5 c 12.737,-2.365 26,-2.545 39,-4.282 31,-4.189 61.749,-9.718 93,-12.548 24.46,-2.328 49.424,-1.17 74,-1.17 v -2 c -24.339,0 -48.749,-1.25 -73,-3 -12,-0.727 -24.129,0.172 -36,-1.286 -15.825,-1.944 -30.441,-8.444 -46,-11.249 -12,-2.137 -24,-2.465 -36,-2.465 -6,0 -11.366,1.207 -14,-5 10,0 19.997,-0.74 30,-1 7.677,-0.173 15.439,0.622 23,-1.015 12.677,-2.743 23.981,-10.417 37,-11.811 13.382,-1.434 27.541,-0.174 41,-0.174 h 81 c 0,20.169 -2.35,40.973 -4.714,61 -0.524,4.433 0.939,15.971 -2.889,18.971 -3.052,2.393 -9.805,0.029 -13.397,0.029 -13.694,-0.159 -27.353,-1 -41,-2 -19.175,-1.224 -39,0.187 -58,-2.289 -14,-1.808 -26.335,-8.938 -40,-11.711 -9.115,-2 -18.742,-1 -28,-1.001 -8.005,-0.038 -16,-0.999 -24,-0.999 m 263,-6 c 29.896,-0.247 59,-11 89,-13 14.562,-1 29.404,0.17 44,-0.004 25.939,-0.308 51.988,-0.996 78,-0.997 38.945,-0.188 78,-1.999 117,-1.999 14.899,0 30,0.928 45,-0.09 12.448,-0.91 27.477,-3.146 39.826,-0.646 5.174,1.079 10.726,5.988 15.348,8.736 13.826,8.436 31.363,19.575 40.826,33 -33.285,0 -66.738,-1.17 -100,-2 -44.346,-1.072 -88.655,0 -133,-1.015 -42.294,-1.036 -84.65,-1.985 -127,-1.985 -28.123,0 -55.368,-7.29 -83,-11.576 -5.297,-0.821 -10.665,-1.735 -16,-2.254 -2.607,-0.254 -6.176,0.348 -8.397,-1.344 C 1485,296.636 1485,294.748 1485,293 m -1356,6 v -6 c 9.306,0 17.971,0 27,-2.427 10.206,-2.926 19.427,-8.253 30,-10.109 4.956,-0.87 10,-0.212 15,-0.554 16.991,-1.163 33.979,-1.204 51,-1.949 9.488,-0.416 19.578,-0.135 29,-1.246 3.995,-0.472 10.77,-2.196 14.363,0.285 3.364,2.376 5.107,8.447 6.884,12 4.657,9.315 8.753,18.784 13.753,28 -20.04,0 -40.005,-1.495 -60,-2 -19.478,-0.463 -39.69,0.338 -59,-2.428 -15.061,-2.158 -29.277,-7.867 -44,-11.572 -7.507,-1.694 -16.373,-3.753 -24,-2 m 218,-5 c 14.649,-4.33 31.876,0.676 47,-1.289 14.869,-1.933 28.28,-9.711 43,-12.246 5.272,-0.949 10.683,-0.19 16,-0.555 16.935,-1.159 34,-1.91 51,-1.91 10.81,-0.017 22.192,-0.349 33,-1.09 4.901,-0.335 11.914,-2.515 16.61,-0.307 3.39,1.617 5.052,7.227 6.637,10.397 4.753,9.611 10.753,19.662 13.753,30 -24.603,-0.068 -49.422,-2 -74,-3 -16.517,-0.684 -33.591,0.729 -50,-1.286 -16.493,-2.026 -31.642,-9.288 -48,-11.96 C 389.622,298.732 375.548,299 363,299 c -6.393,0 -13,1.597 -16,-5 m 251,0 c 5.729,-1.694 12,-1 18,-1 9.569,-0.015 20.555,0 30,-1.439 13.453,-2.118 25.371,-9.923 39,-11.387 6.28,-0.675 12.696,0.063 19,-0.213 17.328,-0.759 34.609,-0.961 52,-0.961 34.642,0 69.318,-0.591 104,-1.004 22.948,-0.273 45.977,-0.996 69,-0.996 4.968,0 10,0.301 15,-0.17 3.663,-0.348 8.225,-1.83 11.786,-0.227 3.698,1.614 4.864,7.073 6.472,10.397 4.716,9.745 10.737,19.569 13.742,30 -56.057,0 -112.015,-2.33 -168,-3 -22.006,-0.258 -44.044,-1 -66,-1 -18.501,0 -37.662,0.92 -56,-1.576 -21.807,-2.969 -43.239,-7.776 -65,-10.997 -7.059,-1.044 -19.659,0.949 -23,-6.427 m 402,0 c 5.725,-1.692 12,-1 18,-1 10.496,0 21.612,0.197 32,-1.3 12.496,-1.802 23.318,-9.7 36,-11.4 13.977,-2.014 28.886,-0.721 43,-1.339 20.301,-0.961 40.685,-2.542 61,-2.961 v -2 c -24.393,0 -48.671,-2 -73,-3 -15.299,-0.631 -30.808,-0.131 -46,-2.285 -14.684,-2.083 -28.553,-7.925 -43,-11.053 -11,-2.349 -22,-1.662 -33,-1.662 -6.532,0 -12.171,1 -16,-5 8,0 15.995,-1 24,-1 8.538,-0.04 17.567,0.865 26,-0.615 16.612,-2.915 32.234,-10.04 49,-12.099 15.907,-1.953 32.973,-0.286 49,-0.286 h 34 c 4,0 10.982,-1.286 14.61,1 2.338,1.52 3.39,4.632 4.637,7 l 7.505,15 c 9.417,18.969 18.591,38 28.248,57 -25.06,0 -50.006,-2 -75,-3 -17.199,-0.714 -35,0.225 -52,-2.439 -13.334,-2.083 -26,-7.561 -39,-10.35 -11.69,-2.504 -23.1,-2.211 -35,-2.211 -6.211,0 -12,1.361 -15,-5 M 129,257 v -8 c 15.902,-2.348 30.818,-9.726 47,-11.714 20.419,-2.507 42.422,-0.286 63,-0.286 h 26 c 3.285,0 8.515,-1 11.363,1 2.908,2 4.355,6.942 5.884,10 4.216,8.432 9.152,16.9 11.753,26 -23.374,0 -46.682,-2 -70,-3 -17.234,-0.715 -35,0 -52,-2.3 -14.75,-2.113 -28.156,-9.81 -43,-11.7 m 222,-6 c 10.393,0 20.665,-0.732 31,-1 7.329,-0.165 14.76,0.58 22,-0.805 14.33,-2.741 27.528,-10.02 42,-11.906 14.246,-1.855 29.635,-0.289 44,-0.289 h 32 c 3.727,0 10,-1.215 13.363,1 2.908,2 4.355,6.942 5.884,10 4.155,8.311 9.18,17 11.753,26 -21,0 -42.056,-2.043 -63,-3 -15.253,-0.629 -31,0 -46,-2.134 -14.764,-2.233 -28.133,-9.987 -43.039,-11.866 -11.352,-1.204 -23.53,0 -34.961,0 -6.447,0 -12.507,1 -15,-6 m 227,0 c 9.371,-2.231 19.453,-2.591 29,-4.25 18.707,-3.25 37,-7.777 56,-9.58 C 684.284,235 706.615,237 728,237 h 127 60 c 5.617,0 17.635,-2.273 22.363,1 2.908,2 4.355,6.942 5.884,10 4.197,8.394 9.148,16.955 11.753,26 -56.71,0 -113.353,-2.322 -170,-3 -22,-0.258 -44.073,-1 -66,-1 -18,0 -36.234,0.993 -54,-1.425 -21.799,-2.968 -43.235,-7.879 -65,-10.996 -7.328,-1.049 -19,1.956 -22,-6.579 m 953,6 -2,-6 c 35,0 70.667,-8.383 105,-14.576 33.194,-5.986 67.243,-9.863 101,-8.424 38.464,1.724 77,9.735 113,23.424 9.883,3.76 19.546,8.096 29,12.823 5.884,2.942 11.74,6.753 18,8.753 -8.357,3.507 -22,1 -31,1 -25.242,0 -50.785,-1 -76,-2 -15.304,-0.631 -30.686,0.361 -46,-0.015 -22.265,-0.545 -44.733,-1.716 -67,-1.985 -15,-0.174 -30.107,0.93 -45,-0.09 -33.266,-2.278 -65.548,-12.91 -99,-12.91"
       style="fill:#020202;fill-opacity:1;fill-rule:nonzero;stroke:none"
       transform="matrix(1.3333333,0,0,-1.3333333,0,2690.6667)"
       sodipodi:nodetypes="cccsccsccccccsssccccccccssccscccsscscsccccccccsscccscccccssccccscccccccccssccccsccsccccssscccccccccccccccccccccccsccsccccccccccccccccccscscsscccsccccsssccccccccsccccccccccccccccccccccccccccccccccccccscccccccccccccsccssccscsccscccccsscscssssccccccccsccccccscssscccccccccccsccsccccccccccccccccccccccccccccccccccccsscccccccccccsscccccccsccsccccccccccscccccccccscccccccsscccccccccccccccccccccccscsccccccccsscsccccsscccccscccscsscccssscccccccccccsccsccccccccccccccsccccccccccsccccccccccccscccccccccccccccsccccsccccccscscscccccccscsccccccscccscccccsccccscccccccccccsscccscccccccccccccscsccscscsscccccccccccccccscscccscccccccsccsccccscscccssccccsscscccccscccccccccccccccccccccccscsccccscccccccccccccsccccccscscccccscccccccccccccccccccccsscccccsssscccccsccccsccccccccsccccsscccccccsccccsscsccccccscssccccccsccccscscsccsccccccccscscccsc" />
  </g>
</svg>
